<mxfile host="app.diagrams.net" modified="2021-11-11T14:39:51.309Z" agent="5.0 (Windows NT 10.0; Win64; x64) AppleWebKit/537.36 (KHTML, like Gecko) Chrome/95.0.4638.69 Safari/537.36" etag="PnBYro-jcS2Z8Je3bUZC" version="15.7.0" type="github">
  <diagram id="Qg9AwZa511yK8TTqFMuh" name="Page-1">
    <mxGraphModel dx="1038" dy="479" grid="1" gridSize="10" guides="1" tooltips="1" connect="1" arrows="1" fold="1" page="1" pageScale="1" pageWidth="850" pageHeight="1100" math="0" shadow="0">
      <root>
        <mxCell id="0" />
        <mxCell id="1" parent="0" />
        <mxCell id="qCqkurPFL0nyQApsLO0Z-102" value="" style="rounded=1;whiteSpace=wrap;html=1;fontSize=10;fillColor=default;" vertex="1" parent="1">
          <mxGeometry x="50" y="3020" width="770" height="500" as="geometry" />
        </mxCell>
        <mxCell id="H-HWdOOOYINvLzMVceXF-1" value="" style="rounded=1;whiteSpace=wrap;html=1;" parent="1" vertex="1">
          <mxGeometry x="40" y="40" width="200" height="360" as="geometry" />
        </mxCell>
        <mxCell id="H-HWdOOOYINvLzMVceXF-2" value="profile picture" style="ellipse;whiteSpace=wrap;html=1;" parent="1" vertex="1">
          <mxGeometry x="95" y="60" width="90" height="90" as="geometry" />
        </mxCell>
        <mxCell id="H-HWdOOOYINvLzMVceXF-3" value="java" style="ellipse;whiteSpace=wrap;html=1;" parent="1" vertex="1">
          <mxGeometry x="65" y="205" width="30" height="30" as="geometry" />
        </mxCell>
        <mxCell id="H-HWdOOOYINvLzMVceXF-4" value="php" style="ellipse;whiteSpace=wrap;html=1;" parent="1" vertex="1">
          <mxGeometry x="125" y="205" width="30" height="30" as="geometry" />
        </mxCell>
        <mxCell id="H-HWdOOOYINvLzMVceXF-6" value="mysql" style="ellipse;whiteSpace=wrap;html=1;" parent="1" vertex="1">
          <mxGeometry x="185" y="205" width="30" height="30" as="geometry" />
        </mxCell>
        <mxCell id="H-HWdOOOYINvLzMVceXF-7" value="&lt;b&gt;web developer&lt;/b&gt;" style="text;html=1;strokeColor=none;fillColor=none;align=center;verticalAlign=middle;whiteSpace=wrap;rounded=0;" parent="1" vertex="1">
          <mxGeometry x="90" y="150" width="100" height="30" as="geometry" />
        </mxCell>
        <mxCell id="H-HWdOOOYINvLzMVceXF-9" value="&lt;i&gt;colombo - srilanka&lt;/i&gt;" style="text;html=1;strokeColor=none;fillColor=none;align=center;verticalAlign=middle;whiteSpace=wrap;rounded=0;" parent="1" vertex="1">
          <mxGeometry x="90" y="170" width="100" height="30" as="geometry" />
        </mxCell>
        <mxCell id="H-HWdOOOYINvLzMVceXF-10" value="" style="rounded=1;whiteSpace=wrap;html=1;fillColor=none;" parent="1" vertex="1">
          <mxGeometry x="50" y="200" width="180" height="40" as="geometry" />
        </mxCell>
        <mxCell id="H-HWdOOOYINvLzMVceXF-11" value="profile" style="rounded=1;whiteSpace=wrap;html=1;fillColor=none;" parent="1" vertex="1">
          <mxGeometry x="50" y="250" width="180" height="30" as="geometry" />
        </mxCell>
        <mxCell id="H-HWdOOOYINvLzMVceXF-12" value="applications" style="rounded=1;whiteSpace=wrap;html=1;fillColor=none;" parent="1" vertex="1">
          <mxGeometry x="50" y="300" width="180" height="30" as="geometry" />
        </mxCell>
        <mxCell id="H-HWdOOOYINvLzMVceXF-13" value="statistics" style="rounded=1;whiteSpace=wrap;html=1;fillColor=none;" parent="1" vertex="1">
          <mxGeometry x="50" y="350" width="180" height="30" as="geometry" />
        </mxCell>
        <mxCell id="H-HWdOOOYINvLzMVceXF-14" value="" style="rounded=1;whiteSpace=wrap;html=1;fillColor=none;" parent="1" vertex="1">
          <mxGeometry x="270" y="40" width="360" height="360" as="geometry" />
        </mxCell>
        <mxCell id="H-HWdOOOYINvLzMVceXF-15" value="" style="rounded=1;whiteSpace=wrap;html=1;fillColor=none;" parent="1" vertex="1">
          <mxGeometry x="660" y="40" width="170" height="360" as="geometry" />
        </mxCell>
        <mxCell id="H-HWdOOOYINvLzMVceXF-16" value="" style="endArrow=none;html=1;rounded=0;" parent="1" source="H-HWdOOOYINvLzMVceXF-14" edge="1">
          <mxGeometry width="50" height="50" relative="1" as="geometry">
            <mxPoint x="400" y="90" as="sourcePoint" />
            <mxPoint x="450" y="40" as="targetPoint" />
            <Array as="points">
              <mxPoint x="450" y="340" />
            </Array>
          </mxGeometry>
        </mxCell>
        <mxCell id="H-HWdOOOYINvLzMVceXF-18" value="" style="endArrow=none;html=1;rounded=0;exitX=0.004;exitY=0.551;exitDx=0;exitDy=0;exitPerimeter=0;entryX=0.998;entryY=0.546;entryDx=0;entryDy=0;entryPerimeter=0;" parent="1" source="H-HWdOOOYINvLzMVceXF-14" target="H-HWdOOOYINvLzMVceXF-14" edge="1">
          <mxGeometry width="50" height="50" relative="1" as="geometry">
            <mxPoint x="580" y="240" as="sourcePoint" />
            <mxPoint x="630" y="190" as="targetPoint" />
          </mxGeometry>
        </mxCell>
        <mxCell id="H-HWdOOOYINvLzMVceXF-19" value="application sent" style="text;html=1;strokeColor=none;fillColor=none;align=center;verticalAlign=middle;whiteSpace=wrap;rounded=0;" parent="1" vertex="1">
          <mxGeometry x="320" y="80" width="90" height="30" as="geometry" />
        </mxCell>
        <mxCell id="H-HWdOOOYINvLzMVceXF-20" value="&lt;font style=&quot;font-size: 20px&quot;&gt;&lt;b&gt;123&lt;/b&gt;&lt;/font&gt;" style="text;html=1;strokeColor=none;fillColor=none;align=center;verticalAlign=middle;whiteSpace=wrap;rounded=0;" parent="1" vertex="1">
          <mxGeometry x="315" y="110" width="95" height="30" as="geometry" />
        </mxCell>
        <mxCell id="H-HWdOOOYINvLzMVceXF-21" value="&lt;font style=&quot;font-size: 12px&quot;&gt;application rejected&lt;/font&gt;" style="text;html=1;strokeColor=none;fillColor=none;align=center;verticalAlign=middle;whiteSpace=wrap;rounded=0;fontSize=20;" parent="1" vertex="1">
          <mxGeometry x="470" y="80" width="140" height="30" as="geometry" />
        </mxCell>
        <mxCell id="H-HWdOOOYINvLzMVceXF-22" value="&lt;font style=&quot;font-size: 20px&quot;&gt;&lt;b&gt;31&lt;/b&gt;&lt;/font&gt;" style="text;html=1;strokeColor=none;fillColor=none;align=center;verticalAlign=middle;whiteSpace=wrap;rounded=0;fontSize=12;" parent="1" vertex="1">
          <mxGeometry x="500" y="110" width="80" height="30" as="geometry" />
        </mxCell>
        <mxCell id="H-HWdOOOYINvLzMVceXF-23" value="&lt;font style=&quot;font-size: 12px&quot;&gt;profile viewed&lt;/font&gt;" style="text;html=1;strokeColor=none;fillColor=none;align=center;verticalAlign=middle;whiteSpace=wrap;rounded=0;fontSize=20;" parent="1" vertex="1">
          <mxGeometry x="311.5" y="250" width="95" height="30" as="geometry" />
        </mxCell>
        <mxCell id="H-HWdOOOYINvLzMVceXF-24" value="&lt;font style=&quot;font-size: 20px&quot;&gt;&lt;b&gt;456&lt;/b&gt;&lt;/font&gt;" style="text;html=1;strokeColor=none;fillColor=none;align=center;verticalAlign=middle;whiteSpace=wrap;rounded=0;fontSize=12;" parent="1" vertex="1">
          <mxGeometry x="320" y="290" width="83" height="30" as="geometry" />
        </mxCell>
        <mxCell id="H-HWdOOOYINvLzMVceXF-25" value="&lt;b&gt;&lt;font style=&quot;font-size: 14px&quot;&gt;recent activities&lt;/font&gt;&lt;/b&gt;" style="text;html=1;strokeColor=none;fillColor=none;align=center;verticalAlign=middle;whiteSpace=wrap;rounded=0;fontSize=20;" parent="1" vertex="1">
          <mxGeometry x="670" y="80" width="150" height="30" as="geometry" />
        </mxCell>
        <mxCell id="H-HWdOOOYINvLzMVceXF-26" value="&lt;ul&gt;&lt;li&gt;&lt;h5 class=&quot;mb-1&quot; style=&quot;box-sizing: border-box ; outline: none ; padding: 0px ; margin-top: 0px ; font-weight: 500 ; line-height: 1.5 ; font-family: &amp;#34;poppins&amp;#34; , sans-serif ; background-color: rgb(255 , 255 , 255) ; margin-bottom: 0.25rem&quot;&gt;&lt;font style=&quot;font-size: 12px&quot;&gt;com bank have 2 available positions for you&lt;/font&gt;&lt;/h5&gt;&lt;/li&gt;&lt;li&gt;&lt;div&gt;&lt;h5 class=&quot;mb-1&quot; style=&quot;box-sizing: border-box ; outline: none ; padding: 0px ; margin-top: 0px ; font-weight: 500 ; line-height: 1.5 ; font-family: &amp;#34;poppins&amp;#34; , sans-serif ; background-color: rgb(255 , 255 , 255) ; margin-bottom: 0.25rem&quot;&gt;&lt;font style=&quot;font-size: 12px&quot;&gt;apiit has invited you to interview meeting tomorrow&lt;/font&gt;&lt;/h5&gt;&lt;/div&gt;&lt;/li&gt;&lt;/ul&gt;" style="text;strokeColor=none;fillColor=none;html=1;whiteSpace=wrap;verticalAlign=middle;overflow=hidden;fontSize=14;" parent="1" vertex="1">
          <mxGeometry x="670" y="145" width="150" height="205" as="geometry" />
        </mxCell>
        <mxCell id="H-HWdOOOYINvLzMVceXF-27" value="" style="rounded=1;whiteSpace=wrap;html=1;fontSize=12;fillColor=none;" parent="1" vertex="1">
          <mxGeometry x="270" y="490" width="560" height="130" as="geometry" />
        </mxCell>
        <mxCell id="H-HWdOOOYINvLzMVceXF-28" value="&lt;font style=&quot;font-size: 20px&quot;&gt;&lt;b&gt;featured companies&lt;/b&gt;&lt;/font&gt;" style="text;html=1;strokeColor=none;fillColor=none;align=center;verticalAlign=middle;whiteSpace=wrap;rounded=0;fontSize=12;" parent="1" vertex="1">
          <mxGeometry x="420" y="440" width="260" height="30" as="geometry" />
        </mxCell>
        <mxCell id="H-HWdOOOYINvLzMVceXF-29" value="" style="rounded=1;whiteSpace=wrap;html=1;fontSize=20;fillColor=none;" parent="1" vertex="1">
          <mxGeometry x="420" y="500" width="120" height="110" as="geometry" />
        </mxCell>
        <mxCell id="H-HWdOOOYINvLzMVceXF-30" value="&lt;font style=&quot;font-size: 10px&quot;&gt;logo&lt;/font&gt;" style="ellipse;whiteSpace=wrap;html=1;fontSize=20;fillColor=none;" parent="1" vertex="1">
          <mxGeometry x="460" y="510" width="40" height="40" as="geometry" />
        </mxCell>
        <mxCell id="H-HWdOOOYINvLzMVceXF-31" value="short description" style="text;html=1;strokeColor=none;fillColor=none;align=center;verticalAlign=middle;whiteSpace=wrap;rounded=0;fontSize=10;" parent="1" vertex="1">
          <mxGeometry x="435" y="560" width="90" height="30" as="geometry" />
        </mxCell>
        <mxCell id="H-HWdOOOYINvLzMVceXF-32" value="" style="rounded=1;whiteSpace=wrap;html=1;fontSize=20;fillColor=none;" parent="1" vertex="1">
          <mxGeometry x="283" y="500" width="120" height="110" as="geometry" />
        </mxCell>
        <mxCell id="H-HWdOOOYINvLzMVceXF-33" value="&lt;font style=&quot;font-size: 10px&quot;&gt;logo&lt;/font&gt;" style="ellipse;whiteSpace=wrap;html=1;fontSize=20;fillColor=none;" parent="1" vertex="1">
          <mxGeometry x="323" y="510" width="40" height="40" as="geometry" />
        </mxCell>
        <mxCell id="H-HWdOOOYINvLzMVceXF-34" value="short description" style="text;html=1;strokeColor=none;fillColor=none;align=center;verticalAlign=middle;whiteSpace=wrap;rounded=0;fontSize=10;" parent="1" vertex="1">
          <mxGeometry x="298" y="560" width="90" height="30" as="geometry" />
        </mxCell>
        <mxCell id="H-HWdOOOYINvLzMVceXF-35" value="" style="rounded=1;whiteSpace=wrap;html=1;fontSize=20;fillColor=none;" parent="1" vertex="1">
          <mxGeometry x="560" y="500" width="120" height="110" as="geometry" />
        </mxCell>
        <mxCell id="H-HWdOOOYINvLzMVceXF-36" value="&lt;font style=&quot;font-size: 10px&quot;&gt;logo&lt;/font&gt;" style="ellipse;whiteSpace=wrap;html=1;fontSize=20;fillColor=none;" parent="1" vertex="1">
          <mxGeometry x="600" y="510" width="40" height="40" as="geometry" />
        </mxCell>
        <mxCell id="H-HWdOOOYINvLzMVceXF-37" value="short description" style="text;html=1;strokeColor=none;fillColor=none;align=center;verticalAlign=middle;whiteSpace=wrap;rounded=0;fontSize=10;" parent="1" vertex="1">
          <mxGeometry x="575" y="560" width="90" height="30" as="geometry" />
        </mxCell>
        <mxCell id="H-HWdOOOYINvLzMVceXF-38" value="" style="rounded=1;whiteSpace=wrap;html=1;fontSize=20;fillColor=none;" parent="1" vertex="1">
          <mxGeometry x="700" y="500" width="120" height="110" as="geometry" />
        </mxCell>
        <mxCell id="H-HWdOOOYINvLzMVceXF-39" value="&lt;font style=&quot;font-size: 10px&quot;&gt;logo&lt;/font&gt;" style="ellipse;whiteSpace=wrap;html=1;fontSize=20;fillColor=none;" parent="1" vertex="1">
          <mxGeometry x="740" y="510" width="40" height="40" as="geometry" />
        </mxCell>
        <mxCell id="H-HWdOOOYINvLzMVceXF-40" value="short description" style="text;html=1;strokeColor=none;fillColor=none;align=center;verticalAlign=middle;whiteSpace=wrap;rounded=0;fontSize=10;" parent="1" vertex="1">
          <mxGeometry x="715" y="560" width="90" height="30" as="geometry" />
        </mxCell>
        <mxCell id="H-HWdOOOYINvLzMVceXF-41" value="" style="rounded=1;whiteSpace=wrap;html=1;fontSize=10;fillColor=none;" parent="1" vertex="1">
          <mxGeometry x="50" y="490" width="190" height="130" as="geometry" />
        </mxCell>
        <mxCell id="H-HWdOOOYINvLzMVceXF-42" value="&lt;b&gt;calendar&lt;/b&gt;" style="text;html=1;strokeColor=none;fillColor=none;align=center;verticalAlign=middle;whiteSpace=wrap;rounded=0;fontSize=10;" parent="1" vertex="1">
          <mxGeometry x="110" y="510" width="60" height="30" as="geometry" />
        </mxCell>
        <mxCell id="H-HWdOOOYINvLzMVceXF-44" value="" style="rounded=1;whiteSpace=wrap;html=1;fontSize=10;fillColor=default;" parent="1" vertex="1">
          <mxGeometry x="50" y="780" width="770" height="500" as="geometry" />
        </mxCell>
        <mxCell id="H-HWdOOOYINvLzMVceXF-45" value="&lt;b&gt;job ID&lt;/b&gt;" style="rounded=1;whiteSpace=wrap;html=1;fontSize=10;fillColor=default;" parent="1" vertex="1">
          <mxGeometry x="160" y="830" width="70" height="20" as="geometry" />
        </mxCell>
        <mxCell id="H-HWdOOOYINvLzMVceXF-87" value="&lt;b&gt;date applied&lt;/b&gt;" style="rounded=1;whiteSpace=wrap;html=1;fontSize=10;fillColor=default;" parent="1" vertex="1">
          <mxGeometry x="250" y="830" width="100" height="20" as="geometry" />
        </mxCell>
        <mxCell id="H-HWdOOOYINvLzMVceXF-88" value="&lt;b&gt;position&lt;/b&gt;" style="rounded=1;whiteSpace=wrap;html=1;fontSize=10;fillColor=default;" parent="1" vertex="1">
          <mxGeometry x="373" y="830" width="70" height="20" as="geometry" />
        </mxCell>
        <mxCell id="H-HWdOOOYINvLzMVceXF-89" value="&lt;b&gt;company&lt;/b&gt;" style="rounded=1;whiteSpace=wrap;html=1;fontSize=10;fillColor=default;" parent="1" vertex="1">
          <mxGeometry x="468" y="830" width="70" height="20" as="geometry" />
        </mxCell>
        <mxCell id="H-HWdOOOYINvLzMVceXF-90" value="&lt;b&gt;type&lt;/b&gt;&lt;span style=&quot;color: rgba(0 , 0 , 0 , 0) ; font-family: monospace ; font-size: 0px&quot;&gt;%3CmxGraphModel%3E%3Croot%3E%3CmxCell%20id%3D%220%22%2F%3E%3CmxCell%20id%3D%221%22%20parent%3D%220%22%2F%3E%3CmxCell%20id%3D%222%22%20value%3D%22%26lt%3Bb%26gt%3Bjob%20ID%26lt%3B%2Fb%26gt%3B%22%20style%3D%22rounded%3D1%3BwhiteSpace%3Dwrap%3Bhtml%3D1%3BfontSize%3D10%3BfillColor%3Ddefault%3B%22%20vertex%3D%221%22%20parent%3D%221%22%3E%3CmxGeometry%20x%3D%2280%22%20y%3D%22810%22%20width%3D%2270%22%20height%3D%2220%22%20as%3D%22geometry%22%2F%3E%3C%2FmxCell%3E%3C%2Froot%3E%3C%2FmxGraphModel%3E&lt;/span&gt;" style="rounded=1;whiteSpace=wrap;html=1;fontSize=10;fillColor=default;" parent="1" vertex="1">
          <mxGeometry x="560" y="830" width="70" height="20" as="geometry" />
        </mxCell>
        <mxCell id="H-HWdOOOYINvLzMVceXF-91" value="&lt;b&gt;status&lt;/b&gt;" style="rounded=1;whiteSpace=wrap;html=1;fontSize=10;fillColor=default;" parent="1" vertex="1">
          <mxGeometry x="650" y="830" width="70" height="20" as="geometry" />
        </mxCell>
        <mxCell id="H-HWdOOOYINvLzMVceXF-92" value="logo" style="rounded=1;whiteSpace=wrap;html=1;fontSize=10;fillColor=default;" parent="1" vertex="1">
          <mxGeometry x="475.5" y="880" width="55" height="50" as="geometry" />
        </mxCell>
        <mxCell id="H-HWdOOOYINvLzMVceXF-93" value="11/04/2021&amp;nbsp; 10.20 A.M." style="text;html=1;strokeColor=none;fillColor=none;align=center;verticalAlign=middle;whiteSpace=wrap;rounded=0;fontSize=10;" parent="1" vertex="1">
          <mxGeometry x="245" y="890" width="110" height="30" as="geometry" />
        </mxCell>
        <mxCell id="H-HWdOOOYINvLzMVceXF-94" value="&lt;b&gt;#1234&lt;/b&gt;" style="text;html=1;strokeColor=none;fillColor=none;align=center;verticalAlign=middle;whiteSpace=wrap;rounded=0;fontSize=10;" parent="1" vertex="1">
          <mxGeometry x="160" y="890" width="60" height="30" as="geometry" />
        </mxCell>
        <mxCell id="H-HWdOOOYINvLzMVceXF-95" value="software engineer" style="text;html=1;strokeColor=none;fillColor=none;align=center;verticalAlign=middle;whiteSpace=wrap;rounded=0;fontSize=10;" parent="1" vertex="1">
          <mxGeometry x="370" y="890" width="90" height="30" as="geometry" />
        </mxCell>
        <mxCell id="H-HWdOOOYINvLzMVceXF-96" value="part time" style="text;html=1;strokeColor=none;fillColor=none;align=center;verticalAlign=middle;whiteSpace=wrap;rounded=0;fontSize=10;" parent="1" vertex="1">
          <mxGeometry x="565" y="890" width="60" height="30" as="geometry" />
        </mxCell>
        <mxCell id="H-HWdOOOYINvLzMVceXF-97" value="&lt;b&gt;&lt;font color=&quot;#ff3333&quot;&gt;pending&lt;/font&gt;&lt;/b&gt;" style="text;html=1;strokeColor=none;fillColor=none;align=center;verticalAlign=middle;whiteSpace=wrap;rounded=0;fontSize=10;" parent="1" vertex="1">
          <mxGeometry x="660" y="890" width="60" height="30" as="geometry" />
        </mxCell>
        <mxCell id="H-HWdOOOYINvLzMVceXF-98" value="logo" style="rounded=1;whiteSpace=wrap;html=1;fontSize=10;fillColor=default;" parent="1" vertex="1">
          <mxGeometry x="475.5" y="960" width="55" height="50" as="geometry" />
        </mxCell>
        <mxCell id="H-HWdOOOYINvLzMVceXF-99" value="11/04/2021&amp;nbsp; 10.20 A.M." style="text;html=1;strokeColor=none;fillColor=none;align=center;verticalAlign=middle;whiteSpace=wrap;rounded=0;fontSize=10;" parent="1" vertex="1">
          <mxGeometry x="245" y="970" width="110" height="30" as="geometry" />
        </mxCell>
        <mxCell id="H-HWdOOOYINvLzMVceXF-100" value="&lt;b&gt;#1235&lt;/b&gt;" style="text;html=1;strokeColor=none;fillColor=none;align=center;verticalAlign=middle;whiteSpace=wrap;rounded=0;fontSize=10;" parent="1" vertex="1">
          <mxGeometry x="160" y="970" width="60" height="30" as="geometry" />
        </mxCell>
        <mxCell id="H-HWdOOOYINvLzMVceXF-101" value="network engineer" style="text;html=1;strokeColor=none;fillColor=none;align=center;verticalAlign=middle;whiteSpace=wrap;rounded=0;fontSize=10;" parent="1" vertex="1">
          <mxGeometry x="370" y="970" width="90" height="30" as="geometry" />
        </mxCell>
        <mxCell id="H-HWdOOOYINvLzMVceXF-102" value="full time" style="text;html=1;strokeColor=none;fillColor=none;align=center;verticalAlign=middle;whiteSpace=wrap;rounded=0;fontSize=10;" parent="1" vertex="1">
          <mxGeometry x="565" y="970" width="60" height="30" as="geometry" />
        </mxCell>
        <mxCell id="H-HWdOOOYINvLzMVceXF-103" value="&lt;b&gt;&lt;font color=&quot;#33ff33&quot;&gt;on hold&lt;/font&gt;&lt;/b&gt;" style="text;html=1;strokeColor=none;fillColor=none;align=center;verticalAlign=middle;whiteSpace=wrap;rounded=0;fontSize=10;" parent="1" vertex="1">
          <mxGeometry x="660" y="970" width="60" height="30" as="geometry" />
        </mxCell>
        <mxCell id="H-HWdOOOYINvLzMVceXF-104" value="logo" style="rounded=1;whiteSpace=wrap;html=1;fontSize=10;fillColor=default;" parent="1" vertex="1">
          <mxGeometry x="475.5" y="1050" width="55" height="50" as="geometry" />
        </mxCell>
        <mxCell id="H-HWdOOOYINvLzMVceXF-105" value="11/04/2021&amp;nbsp; 10.20 A.M." style="text;html=1;strokeColor=none;fillColor=none;align=center;verticalAlign=middle;whiteSpace=wrap;rounded=0;fontSize=10;" parent="1" vertex="1">
          <mxGeometry x="245" y="1060" width="110" height="30" as="geometry" />
        </mxCell>
        <mxCell id="H-HWdOOOYINvLzMVceXF-106" value="&lt;b&gt;#1236&lt;/b&gt;" style="text;html=1;strokeColor=none;fillColor=none;align=center;verticalAlign=middle;whiteSpace=wrap;rounded=0;fontSize=10;" parent="1" vertex="1">
          <mxGeometry x="160" y="1060" width="60" height="30" as="geometry" />
        </mxCell>
        <mxCell id="H-HWdOOOYINvLzMVceXF-107" value="QA" style="text;html=1;strokeColor=none;fillColor=none;align=center;verticalAlign=middle;whiteSpace=wrap;rounded=0;fontSize=10;" parent="1" vertex="1">
          <mxGeometry x="370" y="1060" width="90" height="30" as="geometry" />
        </mxCell>
        <mxCell id="H-HWdOOOYINvLzMVceXF-108" value="part time" style="text;html=1;strokeColor=none;fillColor=none;align=center;verticalAlign=middle;whiteSpace=wrap;rounded=0;fontSize=10;" parent="1" vertex="1">
          <mxGeometry x="565" y="1060" width="60" height="30" as="geometry" />
        </mxCell>
        <mxCell id="H-HWdOOOYINvLzMVceXF-109" value="&lt;b&gt;&lt;font color=&quot;#ff3333&quot;&gt;pending&lt;/font&gt;&lt;/b&gt;" style="text;html=1;strokeColor=none;fillColor=none;align=center;verticalAlign=middle;whiteSpace=wrap;rounded=0;fontSize=10;" parent="1" vertex="1">
          <mxGeometry x="660" y="1060" width="60" height="30" as="geometry" />
        </mxCell>
        <mxCell id="H-HWdOOOYINvLzMVceXF-110" value="logo" style="rounded=1;whiteSpace=wrap;html=1;fontSize=10;fillColor=default;" parent="1" vertex="1">
          <mxGeometry x="475.5" y="1140" width="55" height="50" as="geometry" />
        </mxCell>
        <mxCell id="H-HWdOOOYINvLzMVceXF-111" value="11/04/2021&amp;nbsp; 10.20 A.M." style="text;html=1;strokeColor=none;fillColor=none;align=center;verticalAlign=middle;whiteSpace=wrap;rounded=0;fontSize=10;" parent="1" vertex="1">
          <mxGeometry x="245" y="1150" width="110" height="30" as="geometry" />
        </mxCell>
        <mxCell id="H-HWdOOOYINvLzMVceXF-112" value="&lt;b&gt;#1234&lt;/b&gt;" style="text;html=1;strokeColor=none;fillColor=none;align=center;verticalAlign=middle;whiteSpace=wrap;rounded=0;fontSize=10;" parent="1" vertex="1">
          <mxGeometry x="160" y="1150" width="60" height="30" as="geometry" />
        </mxCell>
        <mxCell id="H-HWdOOOYINvLzMVceXF-113" value="software engineer" style="text;html=1;strokeColor=none;fillColor=none;align=center;verticalAlign=middle;whiteSpace=wrap;rounded=0;fontSize=10;" parent="1" vertex="1">
          <mxGeometry x="370" y="1150" width="90" height="30" as="geometry" />
        </mxCell>
        <mxCell id="H-HWdOOOYINvLzMVceXF-114" value="part time" style="text;html=1;strokeColor=none;fillColor=none;align=center;verticalAlign=middle;whiteSpace=wrap;rounded=0;fontSize=10;" parent="1" vertex="1">
          <mxGeometry x="565" y="1150" width="60" height="30" as="geometry" />
        </mxCell>
        <mxCell id="H-HWdOOOYINvLzMVceXF-115" value="&lt;b&gt;&lt;font color=&quot;#ff3333&quot;&gt;pending&lt;/font&gt;&lt;/b&gt;" style="text;html=1;strokeColor=none;fillColor=none;align=center;verticalAlign=middle;whiteSpace=wrap;rounded=0;fontSize=10;" parent="1" vertex="1">
          <mxGeometry x="660" y="1150" width="60" height="30" as="geometry" />
        </mxCell>
        <mxCell id="H-HWdOOOYINvLzMVceXF-116" value="&lt;font color=&quot;#000000&quot;&gt;cover photo&lt;/font&gt;" style="rounded=1;whiteSpace=wrap;html=1;fontSize=10;fontColor=#33FF33;fillColor=default;" parent="1" vertex="1">
          <mxGeometry x="50" y="1440" width="770" height="170" as="geometry" />
        </mxCell>
        <mxCell id="H-HWdOOOYINvLzMVceXF-117" value="&lt;font color=&quot;#000000&quot;&gt;&lt;b&gt;profile photo&lt;/b&gt;&lt;/font&gt;" style="rounded=1;whiteSpace=wrap;html=1;fontSize=10;fontColor=#33FF33;fillColor=default;" parent="1" vertex="1">
          <mxGeometry x="560" y="1470" width="230" height="190" as="geometry" />
        </mxCell>
        <mxCell id="H-HWdOOOYINvLzMVceXF-118" value="&lt;b&gt;&lt;font style=&quot;font-size: 20px&quot;&gt;NAME&lt;/font&gt;&lt;/b&gt;" style="text;html=1;strokeColor=none;fillColor=none;align=center;verticalAlign=middle;whiteSpace=wrap;rounded=0;fontSize=10;fontColor=#000000;" parent="1" vertex="1">
          <mxGeometry x="655" y="1670" width="60" height="30" as="geometry" />
        </mxCell>
        <mxCell id="H-HWdOOOYINvLzMVceXF-119" value="&lt;font style=&quot;font-size: 10px&quot;&gt;web developer&lt;/font&gt;" style="text;html=1;strokeColor=none;fillColor=none;align=center;verticalAlign=middle;whiteSpace=wrap;rounded=0;fontSize=20;fontColor=#000000;" parent="1" vertex="1">
          <mxGeometry x="637.5" y="1690" width="105" height="30" as="geometry" />
        </mxCell>
        <mxCell id="H-HWdOOOYINvLzMVceXF-120" value="&lt;i&gt;colombo - sri lanka&lt;/i&gt;" style="text;html=1;strokeColor=none;fillColor=none;align=center;verticalAlign=middle;whiteSpace=wrap;rounded=0;fontSize=10;fontColor=#000000;" parent="1" vertex="1">
          <mxGeometry x="635" y="1710" width="110" height="30" as="geometry" />
        </mxCell>
        <mxCell id="H-HWdOOOYINvLzMVceXF-121" value="" style="rounded=1;whiteSpace=wrap;html=1;fontSize=10;fontColor=#000000;fillColor=default;" parent="1" vertex="1">
          <mxGeometry x="50" y="1640" width="190" height="280" as="geometry" />
        </mxCell>
        <mxCell id="H-HWdOOOYINvLzMVceXF-122" value="" style="ellipse;whiteSpace=wrap;html=1;fontSize=10;fillColor=#f8cecc;strokeColor=#b85450;" parent="1" vertex="1">
          <mxGeometry x="85" y="1650" width="120" height="120" as="geometry" />
        </mxCell>
        <mxCell id="H-HWdOOOYINvLzMVceXF-123" value="skills" style="ellipse;whiteSpace=wrap;html=1;fontSize=10;fillColor=#dae8fc;strokeColor=#6c8ebf;" parent="1" vertex="1">
          <mxGeometry x="101.25" y="1665" width="87.5" height="90" as="geometry" />
        </mxCell>
        <mxCell id="H-HWdOOOYINvLzMVceXF-124" value="" style="rounded=1;whiteSpace=wrap;html=1;fontSize=10;strokeColor=#6c8ebf;fillColor=#dae8fc;" parent="1" vertex="1">
          <mxGeometry x="70" y="1790" width="150" height="10" as="geometry" />
        </mxCell>
        <mxCell id="H-HWdOOOYINvLzMVceXF-125" value="java" style="text;html=1;strokeColor=none;fillColor=none;align=center;verticalAlign=middle;whiteSpace=wrap;rounded=0;fontSize=10;fontColor=#000000;" parent="1" vertex="1">
          <mxGeometry x="70" y="1810" width="50" height="10" as="geometry" />
        </mxCell>
        <mxCell id="H-HWdOOOYINvLzMVceXF-126" value="" style="rounded=1;whiteSpace=wrap;html=1;fontSize=10;strokeColor=#b85450;fillColor=#f8cecc;" parent="1" vertex="1">
          <mxGeometry x="70" y="1830" width="120" height="10" as="geometry" />
        </mxCell>
        <mxCell id="H-HWdOOOYINvLzMVceXF-127" value="mysql" style="text;html=1;strokeColor=none;fillColor=none;align=center;verticalAlign=middle;whiteSpace=wrap;rounded=0;fontSize=10;fontColor=#000000;" parent="1" vertex="1">
          <mxGeometry x="70" y="1850" width="50" height="10" as="geometry" />
        </mxCell>
        <mxCell id="H-HWdOOOYINvLzMVceXF-128" value="" style="rounded=1;whiteSpace=wrap;html=1;fontSize=10;strokeColor=#d79b00;fillColor=#ffe6cc;" parent="1" vertex="1">
          <mxGeometry x="70" y="1870" width="100" height="10" as="geometry" />
        </mxCell>
        <mxCell id="H-HWdOOOYINvLzMVceXF-129" value="photoshop" style="text;html=1;strokeColor=none;fillColor=none;align=center;verticalAlign=middle;whiteSpace=wrap;rounded=0;fontSize=10;fontColor=#000000;" parent="1" vertex="1">
          <mxGeometry x="70" y="1890" width="50" height="10" as="geometry" />
        </mxCell>
        <mxCell id="H-HWdOOOYINvLzMVceXF-130" value="" style="rounded=1;whiteSpace=wrap;html=1;fontSize=10;fontColor=#000000;strokeColor=#000000;fillColor=default;" parent="1" vertex="1">
          <mxGeometry x="270" y="1640" width="270" height="280" as="geometry" />
        </mxCell>
        <mxCell id="H-HWdOOOYINvLzMVceXF-131" value="&lt;b&gt;&lt;font style=&quot;font-size: 20px&quot;&gt;about me&lt;/font&gt;&lt;/b&gt;" style="text;html=1;strokeColor=none;fillColor=none;align=center;verticalAlign=middle;whiteSpace=wrap;rounded=0;fontSize=10;fontColor=#000000;" parent="1" vertex="1">
          <mxGeometry x="283" y="1665" width="132" height="30" as="geometry" />
        </mxCell>
        <mxCell id="H-HWdOOOYINvLzMVceXF-132" value="fhhtu6jyjjgjggj&lt;br&gt;ghghghghgh" style="text;html=1;strokeColor=none;fillColor=none;align=left;verticalAlign=middle;whiteSpace=wrap;rounded=0;fontSize=20;fontColor=#000000;" parent="1" vertex="1">
          <mxGeometry x="283" y="1690" width="230" height="130" as="geometry" />
        </mxCell>
        <mxCell id="H-HWdOOOYINvLzMVceXF-135" value="" style="rounded=1;whiteSpace=wrap;html=1;fontSize=20;fontColor=#000000;strokeColor=#000000;fillColor=default;align=left;" parent="1" vertex="1">
          <mxGeometry x="38" y="1960" width="202" height="160" as="geometry" />
        </mxCell>
        <mxCell id="H-HWdOOOYINvLzMVceXF-136" value="&lt;b&gt;contact&lt;/b&gt;" style="text;html=1;strokeColor=none;fillColor=none;align=center;verticalAlign=middle;whiteSpace=wrap;rounded=0;fontSize=20;fontColor=#000000;" parent="1" vertex="1">
          <mxGeometry x="109" y="1980" width="60" height="30" as="geometry" />
        </mxCell>
        <mxCell id="H-HWdOOOYINvLzMVceXF-137" value="&lt;font style=&quot;font-size: 10px&quot;&gt;phn no&lt;/font&gt;" style="ellipse;whiteSpace=wrap;html=1;fontSize=20;strokeColor=#b85450;fillColor=#f8cecc;align=left;" parent="1" vertex="1">
          <mxGeometry x="57.5" y="2020" width="45" height="40" as="geometry" />
        </mxCell>
        <mxCell id="H-HWdOOOYINvLzMVceXF-138" value="5576797979" style="text;html=1;strokeColor=none;fillColor=none;align=center;verticalAlign=middle;whiteSpace=wrap;rounded=0;fontSize=10;fontColor=#000000;" parent="1" vertex="1">
          <mxGeometry x="145" y="2025" width="60" height="30" as="geometry" />
        </mxCell>
        <mxCell id="H-HWdOOOYINvLzMVceXF-139" value="&lt;font style=&quot;font-size: 10px&quot;&gt;email&lt;/font&gt;" style="ellipse;whiteSpace=wrap;html=1;fontSize=20;strokeColor=#b85450;fillColor=#f8cecc;align=left;" parent="1" vertex="1">
          <mxGeometry x="56.25" y="2065" width="45" height="40" as="geometry" />
        </mxCell>
        <mxCell id="H-HWdOOOYINvLzMVceXF-140" value="4656g@example.com" style="text;html=1;strokeColor=none;fillColor=none;align=center;verticalAlign=middle;whiteSpace=wrap;rounded=0;fontSize=10;fontColor=#000000;" parent="1" vertex="1">
          <mxGeometry x="145" y="2070" width="60" height="30" as="geometry" />
        </mxCell>
        <mxCell id="H-HWdOOOYINvLzMVceXF-141" value="" style="rounded=1;whiteSpace=wrap;html=1;fontSize=10;fontColor=#000000;strokeColor=#000000;fillColor=default;align=left;" parent="1" vertex="1">
          <mxGeometry x="280" y="1960" width="260" height="160" as="geometry" />
        </mxCell>
        <mxCell id="H-HWdOOOYINvLzMVceXF-142" value="&lt;b&gt;&lt;font style=&quot;font-size: 20px&quot;&gt;social&lt;/font&gt;&lt;/b&gt;" style="text;html=1;strokeColor=none;fillColor=none;align=center;verticalAlign=middle;whiteSpace=wrap;rounded=0;fontSize=10;fontColor=#000000;" parent="1" vertex="1">
          <mxGeometry x="375" y="1970" width="60" height="30" as="geometry" />
        </mxCell>
        <mxCell id="H-HWdOOOYINvLzMVceXF-143" value="&lt;font style=&quot;font-size: 10px&quot;&gt;facebook&lt;/font&gt;" style="rounded=1;whiteSpace=wrap;html=1;fontSize=20;strokeColor=#6c8ebf;fillColor=#dae8fc;align=left;" parent="1" vertex="1">
          <mxGeometry x="300.5" y="2010" width="219.5" height="20" as="geometry" />
        </mxCell>
        <mxCell id="H-HWdOOOYINvLzMVceXF-145" value="&lt;font style=&quot;font-size: 10px&quot;&gt;linkdin&lt;/font&gt;" style="rounded=1;whiteSpace=wrap;html=1;fontSize=20;strokeColor=#d6b656;fillColor=#fff2cc;align=left;" parent="1" vertex="1">
          <mxGeometry x="300.5" y="2050" width="219.5" height="20" as="geometry" />
        </mxCell>
        <mxCell id="H-HWdOOOYINvLzMVceXF-146" value="&lt;font style=&quot;font-size: 10px&quot;&gt;website&lt;/font&gt;" style="rounded=1;whiteSpace=wrap;html=1;fontSize=20;strokeColor=#82b366;fillColor=#d5e8d4;align=left;" parent="1" vertex="1">
          <mxGeometry x="300.5" y="2085" width="219.5" height="20" as="geometry" />
        </mxCell>
        <mxCell id="qCqkurPFL0nyQApsLO0Z-1" value="" style="rounded=1;whiteSpace=wrap;html=1;" vertex="1" parent="1">
          <mxGeometry x="30" y="2250" width="200" height="360" as="geometry" />
        </mxCell>
        <mxCell id="qCqkurPFL0nyQApsLO0Z-2" value="company logo" style="ellipse;whiteSpace=wrap;html=1;" vertex="1" parent="1">
          <mxGeometry x="85" y="2270" width="90" height="90" as="geometry" />
        </mxCell>
        <mxCell id="qCqkurPFL0nyQApsLO0Z-6" value="&lt;b&gt;Virtusa&lt;/b&gt;" style="text;html=1;strokeColor=none;fillColor=none;align=center;verticalAlign=middle;whiteSpace=wrap;rounded=0;" vertex="1" parent="1">
          <mxGeometry x="80" y="2360" width="100" height="30" as="geometry" />
        </mxCell>
        <mxCell id="qCqkurPFL0nyQApsLO0Z-7" value="&lt;span style=&quot;color: rgb(32 , 33 , 36) ; font-family: &amp;#34;arial&amp;#34; , sans-serif ; text-align: left ; background-color: rgb(255 , 255 , 255)&quot;&gt;&lt;font style=&quot;font-size: 10px&quot;&gt;752 Dr Danister De Silva Mawatha&lt;/font&gt;&lt;/span&gt;" style="text;html=1;strokeColor=none;fillColor=none;align=center;verticalAlign=middle;whiteSpace=wrap;rounded=0;" vertex="1" parent="1">
          <mxGeometry x="50" y="2380" width="160" height="30" as="geometry" />
        </mxCell>
        <mxCell id="qCqkurPFL0nyQApsLO0Z-9" value="profile" style="rounded=1;whiteSpace=wrap;html=1;fillColor=none;" vertex="1" parent="1">
          <mxGeometry x="40" y="2430" width="180" height="30" as="geometry" />
        </mxCell>
        <mxCell id="qCqkurPFL0nyQApsLO0Z-10" value="applications" style="rounded=1;whiteSpace=wrap;html=1;fillColor=none;" vertex="1" parent="1">
          <mxGeometry x="40" y="2490" width="180" height="30" as="geometry" />
        </mxCell>
        <mxCell id="qCqkurPFL0nyQApsLO0Z-11" value="statistics" style="rounded=1;whiteSpace=wrap;html=1;fillColor=none;" vertex="1" parent="1">
          <mxGeometry x="40" y="2550" width="180" height="30" as="geometry" />
        </mxCell>
        <mxCell id="qCqkurPFL0nyQApsLO0Z-12" value="" style="rounded=1;whiteSpace=wrap;html=1;fillColor=none;" vertex="1" parent="1">
          <mxGeometry x="260" y="2250" width="360" height="360" as="geometry" />
        </mxCell>
        <mxCell id="qCqkurPFL0nyQApsLO0Z-13" value="" style="rounded=1;whiteSpace=wrap;html=1;fillColor=none;" vertex="1" parent="1">
          <mxGeometry x="650" y="2250" width="170" height="360" as="geometry" />
        </mxCell>
        <mxCell id="qCqkurPFL0nyQApsLO0Z-14" value="" style="endArrow=none;html=1;rounded=0;" edge="1" parent="1" source="qCqkurPFL0nyQApsLO0Z-12">
          <mxGeometry width="50" height="50" relative="1" as="geometry">
            <mxPoint x="390" y="2300" as="sourcePoint" />
            <mxPoint x="440" y="2250" as="targetPoint" />
            <Array as="points">
              <mxPoint x="440" y="2550" />
            </Array>
          </mxGeometry>
        </mxCell>
        <mxCell id="qCqkurPFL0nyQApsLO0Z-15" value="" style="endArrow=none;html=1;rounded=0;exitX=0.004;exitY=0.551;exitDx=0;exitDy=0;exitPerimeter=0;entryX=0.998;entryY=0.546;entryDx=0;entryDy=0;entryPerimeter=0;" edge="1" parent="1" source="qCqkurPFL0nyQApsLO0Z-12" target="qCqkurPFL0nyQApsLO0Z-12">
          <mxGeometry width="50" height="50" relative="1" as="geometry">
            <mxPoint x="570" y="2450" as="sourcePoint" />
            <mxPoint x="620" y="2400" as="targetPoint" />
          </mxGeometry>
        </mxCell>
        <mxCell id="qCqkurPFL0nyQApsLO0Z-16" value="application received" style="text;html=1;strokeColor=none;fillColor=none;align=center;verticalAlign=middle;whiteSpace=wrap;rounded=0;" vertex="1" parent="1">
          <mxGeometry x="310" y="2290" width="110" height="30" as="geometry" />
        </mxCell>
        <mxCell id="qCqkurPFL0nyQApsLO0Z-17" value="&lt;font style=&quot;font-size: 20px&quot;&gt;&lt;b&gt;145&lt;/b&gt;&lt;/font&gt;" style="text;html=1;strokeColor=none;fillColor=none;align=center;verticalAlign=middle;whiteSpace=wrap;rounded=0;" vertex="1" parent="1">
          <mxGeometry x="305" y="2320" width="95" height="30" as="geometry" />
        </mxCell>
        <mxCell id="qCqkurPFL0nyQApsLO0Z-18" value="&lt;font style=&quot;font-size: 12px&quot;&gt;application rejected&lt;/font&gt;" style="text;html=1;strokeColor=none;fillColor=none;align=center;verticalAlign=middle;whiteSpace=wrap;rounded=0;fontSize=20;" vertex="1" parent="1">
          <mxGeometry x="460" y="2290" width="140" height="30" as="geometry" />
        </mxCell>
        <mxCell id="qCqkurPFL0nyQApsLO0Z-19" value="&lt;font style=&quot;font-size: 20px&quot;&gt;&lt;b&gt;56&lt;/b&gt;&lt;/font&gt;" style="text;html=1;strokeColor=none;fillColor=none;align=center;verticalAlign=middle;whiteSpace=wrap;rounded=0;fontSize=12;" vertex="1" parent="1">
          <mxGeometry x="490" y="2320" width="80" height="30" as="geometry" />
        </mxCell>
        <mxCell id="qCqkurPFL0nyQApsLO0Z-20" value="&lt;font style=&quot;font-size: 12px&quot;&gt;Reviewing&lt;/font&gt;" style="text;html=1;strokeColor=none;fillColor=none;align=center;verticalAlign=middle;whiteSpace=wrap;rounded=0;fontSize=20;" vertex="1" parent="1">
          <mxGeometry x="301.5" y="2460" width="95" height="30" as="geometry" />
        </mxCell>
        <mxCell id="qCqkurPFL0nyQApsLO0Z-21" value="&lt;font style=&quot;font-size: 20px&quot;&gt;&lt;b&gt;101&lt;/b&gt;&lt;/font&gt;" style="text;html=1;strokeColor=none;fillColor=none;align=center;verticalAlign=middle;whiteSpace=wrap;rounded=0;fontSize=12;" vertex="1" parent="1">
          <mxGeometry x="310" y="2500" width="83" height="30" as="geometry" />
        </mxCell>
        <mxCell id="qCqkurPFL0nyQApsLO0Z-22" value="&lt;b&gt;&lt;font style=&quot;font-size: 14px&quot;&gt;recent activities&lt;/font&gt;&lt;/b&gt;" style="text;html=1;strokeColor=none;fillColor=none;align=center;verticalAlign=middle;whiteSpace=wrap;rounded=0;fontSize=20;" vertex="1" parent="1">
          <mxGeometry x="660" y="2290" width="150" height="30" as="geometry" />
        </mxCell>
        <mxCell id="qCqkurPFL0nyQApsLO0Z-23" value="&lt;ul&gt;&lt;li&gt;&lt;h5 class=&quot;mb-1&quot; style=&quot;box-sizing: border-box ; outline: none ; padding: 0px ; margin-top: 0px ; font-weight: 500 ; line-height: 1.5 ; font-family: &amp;#34;poppins&amp;#34; , sans-serif ; background-color: rgb(255 , 255 , 255) ; margin-bottom: 0.25rem&quot;&gt;&lt;span style=&quot;font-size: 12px&quot;&gt;New job application received for software engineer&lt;/span&gt;&lt;/h5&gt;&lt;/li&gt;&lt;li&gt;&lt;h5 class=&quot;mb-1&quot; style=&quot;box-sizing: border-box ; outline: none ; padding: 0px ; margin-top: 0px ; font-weight: 500 ; line-height: 1.5 ; font-family: &amp;#34;poppins&amp;#34; , sans-serif ; background-color: rgb(255 , 255 , 255) ; margin-bottom: 0.25rem&quot;&gt;&lt;span style=&quot;font-size: 12px&quot;&gt;finish the application ID1243 review&lt;/span&gt;&lt;/h5&gt;&lt;/li&gt;&lt;/ul&gt;" style="text;strokeColor=none;fillColor=none;html=1;whiteSpace=wrap;verticalAlign=middle;overflow=hidden;fontSize=14;" vertex="1" parent="1">
          <mxGeometry x="660" y="2355" width="150" height="205" as="geometry" />
        </mxCell>
        <mxCell id="qCqkurPFL0nyQApsLO0Z-24" value="" style="rounded=1;whiteSpace=wrap;html=1;fontSize=12;fillColor=none;" vertex="1" parent="1">
          <mxGeometry x="260" y="2700" width="560" height="130" as="geometry" />
        </mxCell>
        <mxCell id="qCqkurPFL0nyQApsLO0Z-25" value="&lt;font style=&quot;font-size: 20px&quot;&gt;&lt;b&gt;featured profiles&lt;/b&gt;&lt;/font&gt;" style="text;html=1;strokeColor=none;fillColor=none;align=center;verticalAlign=middle;whiteSpace=wrap;rounded=0;fontSize=12;" vertex="1" parent="1">
          <mxGeometry x="410" y="2650" width="260" height="30" as="geometry" />
        </mxCell>
        <mxCell id="qCqkurPFL0nyQApsLO0Z-26" value="" style="rounded=1;whiteSpace=wrap;html=1;fontSize=20;fillColor=none;" vertex="1" parent="1">
          <mxGeometry x="410" y="2710" width="120" height="110" as="geometry" />
        </mxCell>
        <mxCell id="qCqkurPFL0nyQApsLO0Z-27" value="&lt;font style=&quot;font-size: 10px&quot;&gt;photo&lt;/font&gt;" style="ellipse;whiteSpace=wrap;html=1;fontSize=20;fillColor=none;" vertex="1" parent="1">
          <mxGeometry x="450" y="2720" width="40" height="40" as="geometry" />
        </mxCell>
        <mxCell id="qCqkurPFL0nyQApsLO0Z-28" value="short description&lt;br&gt;graphic designer" style="text;html=1;strokeColor=none;fillColor=none;align=center;verticalAlign=middle;whiteSpace=wrap;rounded=0;fontSize=10;" vertex="1" parent="1">
          <mxGeometry x="425" y="2770" width="90" height="30" as="geometry" />
        </mxCell>
        <mxCell id="qCqkurPFL0nyQApsLO0Z-29" value="" style="rounded=1;whiteSpace=wrap;html=1;fontSize=20;fillColor=none;" vertex="1" parent="1">
          <mxGeometry x="273" y="2710" width="120" height="110" as="geometry" />
        </mxCell>
        <mxCell id="qCqkurPFL0nyQApsLO0Z-30" value="&lt;font style=&quot;font-size: 10px&quot;&gt;photo&lt;/font&gt;" style="ellipse;whiteSpace=wrap;html=1;fontSize=20;fillColor=none;" vertex="1" parent="1">
          <mxGeometry x="313" y="2720" width="40" height="40" as="geometry" />
        </mxCell>
        <mxCell id="qCqkurPFL0nyQApsLO0Z-31" value="short description&lt;br&gt;software engineer" style="text;html=1;strokeColor=none;fillColor=none;align=center;verticalAlign=middle;whiteSpace=wrap;rounded=0;fontSize=10;" vertex="1" parent="1">
          <mxGeometry x="288" y="2770" width="90" height="30" as="geometry" />
        </mxCell>
        <mxCell id="qCqkurPFL0nyQApsLO0Z-32" value="" style="rounded=1;whiteSpace=wrap;html=1;fontSize=20;fillColor=none;" vertex="1" parent="1">
          <mxGeometry x="550" y="2710" width="120" height="110" as="geometry" />
        </mxCell>
        <mxCell id="qCqkurPFL0nyQApsLO0Z-33" value="&lt;font style=&quot;font-size: 10px&quot;&gt;photo&lt;/font&gt;" style="ellipse;whiteSpace=wrap;html=1;fontSize=20;fillColor=none;" vertex="1" parent="1">
          <mxGeometry x="590" y="2720" width="40" height="40" as="geometry" />
        </mxCell>
        <mxCell id="qCqkurPFL0nyQApsLO0Z-34" value="short description&lt;br&gt;motion graphic engineer" style="text;html=1;strokeColor=none;fillColor=none;align=center;verticalAlign=middle;whiteSpace=wrap;rounded=0;fontSize=10;" vertex="1" parent="1">
          <mxGeometry x="565" y="2770" width="90" height="30" as="geometry" />
        </mxCell>
        <mxCell id="qCqkurPFL0nyQApsLO0Z-35" value="" style="rounded=1;whiteSpace=wrap;html=1;fontSize=20;fillColor=none;" vertex="1" parent="1">
          <mxGeometry x="690" y="2710" width="120" height="110" as="geometry" />
        </mxCell>
        <mxCell id="qCqkurPFL0nyQApsLO0Z-36" value="&lt;font style=&quot;font-size: 10px&quot;&gt;photo&lt;/font&gt;" style="ellipse;whiteSpace=wrap;html=1;fontSize=20;fillColor=none;" vertex="1" parent="1">
          <mxGeometry x="730" y="2720" width="40" height="40" as="geometry" />
        </mxCell>
        <mxCell id="qCqkurPFL0nyQApsLO0Z-37" value="short description&lt;br&gt;architect" style="text;html=1;strokeColor=none;fillColor=none;align=center;verticalAlign=middle;whiteSpace=wrap;rounded=0;fontSize=10;" vertex="1" parent="1">
          <mxGeometry x="705" y="2770" width="90" height="30" as="geometry" />
        </mxCell>
        <mxCell id="qCqkurPFL0nyQApsLO0Z-38" value="" style="rounded=1;whiteSpace=wrap;html=1;fontSize=10;fillColor=none;" vertex="1" parent="1">
          <mxGeometry x="40" y="2700" width="190" height="130" as="geometry" />
        </mxCell>
        <mxCell id="qCqkurPFL0nyQApsLO0Z-39" value="&lt;b&gt;calendar&lt;/b&gt;" style="text;html=1;strokeColor=none;fillColor=none;align=center;verticalAlign=middle;whiteSpace=wrap;rounded=0;fontSize=10;" vertex="1" parent="1">
          <mxGeometry x="100" y="2720" width="60" height="30" as="geometry" />
        </mxCell>
        <mxCell id="qCqkurPFL0nyQApsLO0Z-40" value="&lt;font style=&quot;font-size: 12px&quot;&gt;Interview&lt;/font&gt;" style="text;html=1;strokeColor=none;fillColor=none;align=center;verticalAlign=middle;whiteSpace=wrap;rounded=0;fontSize=20;" vertex="1" parent="1">
          <mxGeometry x="485" y="2460" width="95" height="30" as="geometry" />
        </mxCell>
        <mxCell id="qCqkurPFL0nyQApsLO0Z-41" value="&lt;font style=&quot;font-size: 20px&quot;&gt;&lt;b&gt;32&lt;/b&gt;&lt;/font&gt;" style="text;html=1;strokeColor=none;fillColor=none;align=center;verticalAlign=middle;whiteSpace=wrap;rounded=0;fontSize=12;" vertex="1" parent="1">
          <mxGeometry x="487" y="2500" width="83" height="30" as="geometry" />
        </mxCell>
        <mxCell id="qCqkurPFL0nyQApsLO0Z-72" value="&lt;b&gt;job ID&lt;/b&gt;" style="rounded=1;whiteSpace=wrap;html=1;fontSize=10;fillColor=default;" vertex="1" parent="1">
          <mxGeometry x="155" y="3115" width="70" height="20" as="geometry" />
        </mxCell>
        <mxCell id="qCqkurPFL0nyQApsLO0Z-73" value="&lt;b&gt;date received&lt;/b&gt;" style="rounded=1;whiteSpace=wrap;html=1;fontSize=10;fillColor=default;" vertex="1" parent="1">
          <mxGeometry x="245" y="3115" width="100" height="20" as="geometry" />
        </mxCell>
        <mxCell id="qCqkurPFL0nyQApsLO0Z-74" value="&lt;b&gt;position&lt;/b&gt;" style="rounded=1;whiteSpace=wrap;html=1;fontSize=10;fillColor=default;" vertex="1" parent="1">
          <mxGeometry x="368" y="3115" width="70" height="20" as="geometry" />
        </mxCell>
        <mxCell id="qCqkurPFL0nyQApsLO0Z-76" value="&lt;b&gt;type&lt;/b&gt;&lt;span style=&quot;color: rgba(0 , 0 , 0 , 0) ; font-family: monospace ; font-size: 0px&quot;&gt;%3CmxGraphModel%3E%3Croot%3E%3CmxCell%20id%3D%220%22%2F%3E%3CmxCell%20id%3D%221%22%20parent%3D%220%22%2F%3E%3CmxCell%20id%3D%222%22%20value%3D%22%26lt%3Bb%26gt%3Bjob%20ID%26lt%3B%2Fb%26gt%3B%22%20style%3D%22rounded%3D1%3BwhiteSpace%3Dwrap%3Bhtml%3D1%3BfontSize%3D10%3BfillColor%3Ddefault%3B%22%20vertex%3D%221%22%20parent%3D%221%22%3E%3CmxGeometry%20x%3D%2280%22%20y%3D%22810%22%20width%3D%2270%22%20height%3D%2220%22%20as%3D%22geometry%22%2F%3E%3C%2FmxCell%3E%3C%2Froot%3E%3C%2FmxGraphModel%3E&lt;/span&gt;" style="rounded=1;whiteSpace=wrap;html=1;fontSize=10;fillColor=default;" vertex="1" parent="1">
          <mxGeometry x="485.5" y="3115" width="70" height="20" as="geometry" />
        </mxCell>
        <mxCell id="qCqkurPFL0nyQApsLO0Z-77" value="&lt;b&gt;status&lt;/b&gt;" style="rounded=1;whiteSpace=wrap;html=1;fontSize=10;fillColor=default;" vertex="1" parent="1">
          <mxGeometry x="700" y="3115" width="70" height="20" as="geometry" />
        </mxCell>
        <mxCell id="qCqkurPFL0nyQApsLO0Z-79" value="11/04/2021&amp;nbsp; 10.20 A.M." style="text;html=1;strokeColor=none;fillColor=none;align=center;verticalAlign=middle;whiteSpace=wrap;rounded=0;fontSize=10;" vertex="1" parent="1">
          <mxGeometry x="240" y="3175" width="110" height="30" as="geometry" />
        </mxCell>
        <mxCell id="qCqkurPFL0nyQApsLO0Z-80" value="&lt;b&gt;#1234&lt;/b&gt;" style="text;html=1;strokeColor=none;fillColor=none;align=center;verticalAlign=middle;whiteSpace=wrap;rounded=0;fontSize=10;" vertex="1" parent="1">
          <mxGeometry x="155" y="3175" width="60" height="30" as="geometry" />
        </mxCell>
        <mxCell id="qCqkurPFL0nyQApsLO0Z-81" value="software engineer" style="text;html=1;strokeColor=none;fillColor=none;align=center;verticalAlign=middle;whiteSpace=wrap;rounded=0;fontSize=10;" vertex="1" parent="1">
          <mxGeometry x="365" y="3175" width="90" height="30" as="geometry" />
        </mxCell>
        <mxCell id="qCqkurPFL0nyQApsLO0Z-82" value="part time" style="text;html=1;strokeColor=none;fillColor=none;align=center;verticalAlign=middle;whiteSpace=wrap;rounded=0;fontSize=10;" vertex="1" parent="1">
          <mxGeometry x="488" y="3175" width="60" height="30" as="geometry" />
        </mxCell>
        <mxCell id="qCqkurPFL0nyQApsLO0Z-83" value="&lt;b&gt;&lt;font color=&quot;#ff3333&quot;&gt;rejected&lt;/font&gt;&lt;/b&gt;" style="text;html=1;strokeColor=none;fillColor=none;align=center;verticalAlign=middle;whiteSpace=wrap;rounded=0;fontSize=10;" vertex="1" parent="1">
          <mxGeometry x="705" y="3175" width="60" height="30" as="geometry" />
        </mxCell>
        <mxCell id="qCqkurPFL0nyQApsLO0Z-85" value="11/04/2021&amp;nbsp; 10.20 A.M." style="text;html=1;strokeColor=none;fillColor=none;align=center;verticalAlign=middle;whiteSpace=wrap;rounded=0;fontSize=10;" vertex="1" parent="1">
          <mxGeometry x="240" y="3255" width="110" height="30" as="geometry" />
        </mxCell>
        <mxCell id="qCqkurPFL0nyQApsLO0Z-86" value="&lt;b&gt;#1235&lt;/b&gt;" style="text;html=1;strokeColor=none;fillColor=none;align=center;verticalAlign=middle;whiteSpace=wrap;rounded=0;fontSize=10;" vertex="1" parent="1">
          <mxGeometry x="155" y="3255" width="60" height="30" as="geometry" />
        </mxCell>
        <mxCell id="qCqkurPFL0nyQApsLO0Z-87" value="network engineer" style="text;html=1;strokeColor=none;fillColor=none;align=center;verticalAlign=middle;whiteSpace=wrap;rounded=0;fontSize=10;" vertex="1" parent="1">
          <mxGeometry x="365" y="3255" width="90" height="30" as="geometry" />
        </mxCell>
        <mxCell id="qCqkurPFL0nyQApsLO0Z-88" value="full time" style="text;html=1;strokeColor=none;fillColor=none;align=center;verticalAlign=middle;whiteSpace=wrap;rounded=0;fontSize=10;" vertex="1" parent="1">
          <mxGeometry x="485.5" y="3245" width="60" height="30" as="geometry" />
        </mxCell>
        <mxCell id="qCqkurPFL0nyQApsLO0Z-89" value="&lt;b&gt;&lt;font color=&quot;#33ff33&quot;&gt;reviewing&lt;/font&gt;&lt;/b&gt;" style="text;html=1;strokeColor=none;fillColor=none;align=center;verticalAlign=middle;whiteSpace=wrap;rounded=0;fontSize=10;" vertex="1" parent="1">
          <mxGeometry x="710" y="3245" width="60" height="30" as="geometry" />
        </mxCell>
        <mxCell id="qCqkurPFL0nyQApsLO0Z-91" value="11/04/2021&amp;nbsp; 10.20 A.M." style="text;html=1;strokeColor=none;fillColor=none;align=center;verticalAlign=middle;whiteSpace=wrap;rounded=0;fontSize=10;" vertex="1" parent="1">
          <mxGeometry x="240" y="3345" width="110" height="30" as="geometry" />
        </mxCell>
        <mxCell id="qCqkurPFL0nyQApsLO0Z-92" value="&lt;b&gt;#1236&lt;/b&gt;" style="text;html=1;strokeColor=none;fillColor=none;align=center;verticalAlign=middle;whiteSpace=wrap;rounded=0;fontSize=10;" vertex="1" parent="1">
          <mxGeometry x="155" y="3345" width="60" height="30" as="geometry" />
        </mxCell>
        <mxCell id="qCqkurPFL0nyQApsLO0Z-93" value="QA" style="text;html=1;strokeColor=none;fillColor=none;align=center;verticalAlign=middle;whiteSpace=wrap;rounded=0;fontSize=10;" vertex="1" parent="1">
          <mxGeometry x="365" y="3345" width="90" height="30" as="geometry" />
        </mxCell>
        <mxCell id="qCqkurPFL0nyQApsLO0Z-94" value="part time" style="text;html=1;strokeColor=none;fillColor=none;align=center;verticalAlign=middle;whiteSpace=wrap;rounded=0;fontSize=10;" vertex="1" parent="1">
          <mxGeometry x="490.5" y="3335" width="60" height="30" as="geometry" />
        </mxCell>
        <mxCell id="qCqkurPFL0nyQApsLO0Z-95" value="&lt;b&gt;&lt;font color=&quot;#ff3333&quot;&gt;rejected&lt;/font&gt;&lt;/b&gt;" style="text;html=1;strokeColor=none;fillColor=none;align=center;verticalAlign=middle;whiteSpace=wrap;rounded=0;fontSize=10;" vertex="1" parent="1">
          <mxGeometry x="705" y="3335" width="60" height="30" as="geometry" />
        </mxCell>
        <mxCell id="qCqkurPFL0nyQApsLO0Z-97" value="11/04/2021&amp;nbsp; 10.20 A.M." style="text;html=1;strokeColor=none;fillColor=none;align=center;verticalAlign=middle;whiteSpace=wrap;rounded=0;fontSize=10;" vertex="1" parent="1">
          <mxGeometry x="240" y="3435" width="110" height="30" as="geometry" />
        </mxCell>
        <mxCell id="qCqkurPFL0nyQApsLO0Z-98" value="&lt;b&gt;#1234&lt;/b&gt;" style="text;html=1;strokeColor=none;fillColor=none;align=center;verticalAlign=middle;whiteSpace=wrap;rounded=0;fontSize=10;" vertex="1" parent="1">
          <mxGeometry x="155" y="3435" width="60" height="30" as="geometry" />
        </mxCell>
        <mxCell id="qCqkurPFL0nyQApsLO0Z-99" value="software engineer" style="text;html=1;strokeColor=none;fillColor=none;align=center;verticalAlign=middle;whiteSpace=wrap;rounded=0;fontSize=10;" vertex="1" parent="1">
          <mxGeometry x="365" y="3435" width="90" height="30" as="geometry" />
        </mxCell>
        <mxCell id="qCqkurPFL0nyQApsLO0Z-100" value="part time" style="text;html=1;strokeColor=none;fillColor=none;align=center;verticalAlign=middle;whiteSpace=wrap;rounded=0;fontSize=10;" vertex="1" parent="1">
          <mxGeometry x="488" y="3435" width="60" height="30" as="geometry" />
        </mxCell>
        <mxCell id="qCqkurPFL0nyQApsLO0Z-101" value="&lt;b&gt;&lt;font color=&quot;#ff3333&quot;&gt;rejected&lt;/font&gt;&lt;/b&gt;" style="text;html=1;strokeColor=none;fillColor=none;align=center;verticalAlign=middle;whiteSpace=wrap;rounded=0;fontSize=10;" vertex="1" parent="1">
          <mxGeometry x="705" y="3425" width="60" height="30" as="geometry" />
        </mxCell>
        <mxCell id="qCqkurPFL0nyQApsLO0Z-103" value="&lt;b&gt;check&lt;/b&gt;" style="rounded=1;whiteSpace=wrap;html=1;fontSize=10;fillColor=default;" vertex="1" parent="1">
          <mxGeometry x="595" y="3115" width="70" height="20" as="geometry" />
        </mxCell>
        <mxCell id="qCqkurPFL0nyQApsLO0Z-104" value="&lt;b&gt;&lt;font color=&quot;#ffffff&quot;&gt;view application&lt;/font&gt;&lt;/b&gt;" style="text;html=1;strokeColor=#6c8ebf;fillColor=#0066CC;align=center;verticalAlign=middle;whiteSpace=wrap;rounded=0;fontSize=10;" vertex="1" parent="1">
          <mxGeometry x="595" y="3175" width="60" height="30" as="geometry" />
        </mxCell>
        <mxCell id="qCqkurPFL0nyQApsLO0Z-105" value="&lt;b&gt;&lt;font color=&quot;#ffffff&quot;&gt;view application&lt;/font&gt;&lt;/b&gt;" style="text;html=1;strokeColor=#6c8ebf;fillColor=#0066CC;align=center;verticalAlign=middle;whiteSpace=wrap;rounded=0;fontSize=10;" vertex="1" parent="1">
          <mxGeometry x="600" y="3245" width="60" height="30" as="geometry" />
        </mxCell>
        <mxCell id="qCqkurPFL0nyQApsLO0Z-106" value="&lt;b&gt;&lt;font color=&quot;#ffffff&quot;&gt;view application&lt;/font&gt;&lt;/b&gt;" style="text;html=1;strokeColor=#6c8ebf;fillColor=#0066CC;align=center;verticalAlign=middle;whiteSpace=wrap;rounded=0;fontSize=10;" vertex="1" parent="1">
          <mxGeometry x="600" y="3335" width="60" height="30" as="geometry" />
        </mxCell>
        <mxCell id="qCqkurPFL0nyQApsLO0Z-107" value="&lt;b&gt;&lt;font color=&quot;#ffffff&quot;&gt;view application&lt;/font&gt;&lt;/b&gt;" style="text;html=1;strokeColor=#6c8ebf;fillColor=#0066CC;align=center;verticalAlign=middle;whiteSpace=wrap;rounded=0;fontSize=10;" vertex="1" parent="1">
          <mxGeometry x="605" y="3425" width="60" height="30" as="geometry" />
        </mxCell>
        <mxCell id="qCqkurPFL0nyQApsLO0Z-108" value="&lt;font color=&quot;#000000&quot;&gt;cover photo&lt;/font&gt;" style="rounded=1;whiteSpace=wrap;html=1;fontSize=10;fontColor=#33FF33;fillColor=default;" vertex="1" parent="1">
          <mxGeometry x="38" y="4140" width="770" height="170" as="geometry" />
        </mxCell>
        <mxCell id="qCqkurPFL0nyQApsLO0Z-109" value="&lt;font color=&quot;#000000&quot;&gt;&lt;b&gt;company logo&lt;/b&gt;&lt;/font&gt;" style="rounded=1;whiteSpace=wrap;html=1;fontSize=10;fontColor=#33FF33;fillColor=default;" vertex="1" parent="1">
          <mxGeometry x="548" y="4170" width="230" height="190" as="geometry" />
        </mxCell>
        <mxCell id="qCqkurPFL0nyQApsLO0Z-110" value="&lt;b&gt;&lt;font style=&quot;font-size: 20px&quot;&gt;virtusa&lt;/font&gt;&lt;/b&gt;" style="text;html=1;strokeColor=none;fillColor=none;align=center;verticalAlign=middle;whiteSpace=wrap;rounded=0;fontSize=10;fontColor=#000000;" vertex="1" parent="1">
          <mxGeometry x="643" y="4370" width="60" height="30" as="geometry" />
        </mxCell>
        <mxCell id="qCqkurPFL0nyQApsLO0Z-112" value="&lt;span style=&quot;color: rgb(32 , 33 , 36) ; font-family: &amp;#34;arial&amp;#34; , sans-serif ; text-align: left ; background-color: rgb(255 , 255 , 255)&quot;&gt;752 Dr Danister De Silva Mawatha&lt;/span&gt;" style="text;html=1;strokeColor=none;fillColor=none;align=center;verticalAlign=middle;whiteSpace=wrap;rounded=0;fontSize=10;fontColor=#000000;" vertex="1" parent="1">
          <mxGeometry x="623" y="4400" width="110" height="30" as="geometry" />
        </mxCell>
        <mxCell id="qCqkurPFL0nyQApsLO0Z-113" value="" style="rounded=1;whiteSpace=wrap;html=1;fontSize=10;fontColor=#000000;strokeColor=#000000;fillColor=default;" vertex="1" parent="1">
          <mxGeometry x="41" y="4340" width="270" height="280" as="geometry" />
        </mxCell>
        <mxCell id="qCqkurPFL0nyQApsLO0Z-114" value="&lt;b&gt;&lt;font style=&quot;font-size: 20px&quot;&gt;about company&lt;/font&gt;&lt;/b&gt;" style="text;html=1;strokeColor=none;fillColor=none;align=center;verticalAlign=middle;whiteSpace=wrap;rounded=0;fontSize=10;fontColor=#000000;" vertex="1" parent="1">
          <mxGeometry x="54" y="4365" width="169" height="30" as="geometry" />
        </mxCell>
        <mxCell id="qCqkurPFL0nyQApsLO0Z-115" value="fhhtu6jyjjgjggj&lt;br&gt;ghghghghghjkkhkhgkccrry" style="text;html=1;strokeColor=none;fillColor=none;align=left;verticalAlign=middle;whiteSpace=wrap;rounded=0;fontSize=20;fontColor=#000000;" vertex="1" parent="1">
          <mxGeometry x="54" y="4390" width="230" height="130" as="geometry" />
        </mxCell>
        <mxCell id="qCqkurPFL0nyQApsLO0Z-116" value="" style="rounded=1;whiteSpace=wrap;html=1;fontSize=20;fontColor=#000000;strokeColor=#000000;fillColor=default;align=left;" vertex="1" parent="1">
          <mxGeometry x="331" y="4460" width="202" height="160" as="geometry" />
        </mxCell>
        <mxCell id="qCqkurPFL0nyQApsLO0Z-117" value="&lt;b&gt;contact&lt;/b&gt;" style="text;html=1;strokeColor=none;fillColor=none;align=center;verticalAlign=middle;whiteSpace=wrap;rounded=0;fontSize=20;fontColor=#000000;" vertex="1" parent="1">
          <mxGeometry x="402" y="4480" width="60" height="30" as="geometry" />
        </mxCell>
        <mxCell id="qCqkurPFL0nyQApsLO0Z-118" value="&lt;font style=&quot;font-size: 10px&quot;&gt;phn no&lt;/font&gt;" style="ellipse;whiteSpace=wrap;html=1;fontSize=20;strokeColor=#b85450;fillColor=#f8cecc;align=left;" vertex="1" parent="1">
          <mxGeometry x="350.5" y="4520" width="45" height="40" as="geometry" />
        </mxCell>
        <mxCell id="qCqkurPFL0nyQApsLO0Z-119" value="5576797979" style="text;html=1;strokeColor=none;fillColor=none;align=center;verticalAlign=middle;whiteSpace=wrap;rounded=0;fontSize=10;fontColor=#000000;" vertex="1" parent="1">
          <mxGeometry x="438" y="4525" width="60" height="30" as="geometry" />
        </mxCell>
        <mxCell id="qCqkurPFL0nyQApsLO0Z-120" value="&lt;font style=&quot;font-size: 10px&quot;&gt;email&lt;/font&gt;" style="ellipse;whiteSpace=wrap;html=1;fontSize=20;strokeColor=#b85450;fillColor=#f8cecc;align=left;" vertex="1" parent="1">
          <mxGeometry x="349.25" y="4565" width="45" height="40" as="geometry" />
        </mxCell>
        <mxCell id="qCqkurPFL0nyQApsLO0Z-121" value="4656g@example.com" style="text;html=1;strokeColor=none;fillColor=none;align=center;verticalAlign=middle;whiteSpace=wrap;rounded=0;fontSize=10;fontColor=#000000;" vertex="1" parent="1">
          <mxGeometry x="438" y="4570" width="60" height="30" as="geometry" />
        </mxCell>
        <mxCell id="qCqkurPFL0nyQApsLO0Z-122" value="" style="rounded=1;whiteSpace=wrap;html=1;fontSize=10;fontColor=#000000;strokeColor=#000000;fillColor=default;align=left;" vertex="1" parent="1">
          <mxGeometry x="573" y="4460" width="260" height="160" as="geometry" />
        </mxCell>
        <mxCell id="qCqkurPFL0nyQApsLO0Z-123" value="&lt;b&gt;&lt;font style=&quot;font-size: 20px&quot;&gt;social&lt;/font&gt;&lt;/b&gt;" style="text;html=1;strokeColor=none;fillColor=none;align=center;verticalAlign=middle;whiteSpace=wrap;rounded=0;fontSize=10;fontColor=#000000;" vertex="1" parent="1">
          <mxGeometry x="668" y="4470" width="60" height="30" as="geometry" />
        </mxCell>
        <mxCell id="qCqkurPFL0nyQApsLO0Z-124" value="&lt;font style=&quot;font-size: 10px&quot;&gt;facebook&lt;/font&gt;" style="rounded=1;whiteSpace=wrap;html=1;fontSize=20;strokeColor=#6c8ebf;fillColor=#dae8fc;align=left;" vertex="1" parent="1">
          <mxGeometry x="593.5" y="4510" width="219.5" height="20" as="geometry" />
        </mxCell>
        <mxCell id="qCqkurPFL0nyQApsLO0Z-125" value="&lt;font style=&quot;font-size: 10px&quot;&gt;linkdin&lt;/font&gt;" style="rounded=1;whiteSpace=wrap;html=1;fontSize=20;strokeColor=#d6b656;fillColor=#fff2cc;align=left;" vertex="1" parent="1">
          <mxGeometry x="593.5" y="4550" width="219.5" height="20" as="geometry" />
        </mxCell>
        <mxCell id="qCqkurPFL0nyQApsLO0Z-126" value="&lt;font style=&quot;font-size: 10px&quot;&gt;website&lt;/font&gt;" style="rounded=1;whiteSpace=wrap;html=1;fontSize=20;strokeColor=#82b366;fillColor=#d5e8d4;align=left;" vertex="1" parent="1">
          <mxGeometry x="593.5" y="4585" width="219.5" height="20" as="geometry" />
        </mxCell>
        <mxCell id="qCqkurPFL0nyQApsLO0Z-128" value="" style="rounded=1;whiteSpace=wrap;html=1;fontSize=10;" vertex="1" parent="1">
          <mxGeometry x="50" y="3570" width="760" height="530" as="geometry" />
        </mxCell>
        <mxCell id="qCqkurPFL0nyQApsLO0Z-131" value="" style="shape=image;verticalLabelPosition=bottom;labelBackgroundColor=#ffffff;verticalAlign=top;aspect=fixed;imageAspect=0;image=data:image/png,iVBORw0KGgoAAAANSUhEUgAAAXAAAAIICAYAAAB3gLUOAAAAAXNSR0IArs4c6QAAIABJREFUeF7snQd8XMW1/496tSWruHcbN1xwwRjb2HRC7yUJISSkJ7wUCLyEwEveS0ghj/wDSUgjhITy6N2AbXqxjW2MC+69yZZs9V7/n++5GvlqtSvtau9KK3nm89FH0u7cuTNnzvzmzGkTc+sDm5saGpvEFksBSwFLAUuBnkOBuNgYibnlTxbAe86U2Z5GNwWaRGJiRKw81PXTFCPHHd0tgHc9mwX9xuOQH4Omja1oKWApIGIB3HKBpYClgKVAD6WABfAeOnG225YClgKWAhbALQ9YClgKWAp4QIHuUHlaAPdg4rq9ie7gnG4ftO2ApYClgAVwywOWApYClgI9lAIWwHvoxNlut6aAPYRYjjgeKWAB/HicdTtmSwFLgV5BAQvgvWIa7SAsBSwFjkcKWAA/Hme9ZcyEC6J8sMVSwFKgJ1LAAnhPnDXb515HAavD73VT2iUDsgDeJWS2L7EUsBSwFPCeAhbAvaepbdFSwFLAUqBLKHBcALgmhnNlhyNZnC2WApYClgI9nQK9CsCbmjN5JsTHSHJirCQlxEhifIwkxMVIbKwzVdRpaBSpb2iS2vomqa5tlOraJv2fYsG9p7O07b+lwPFDgR4P4I2NTZKUGCsDMhNkUFaCZPWJlz6pcZKabAA89hiANzWpIN7QIFLnAvCK6gYpqWiQIyX1kldUJ4Wl9VLfKBJrJfXjZyXYkVoK9EAK9EgAR4qOjxMZ3j9JpoxM1d8Atlva1pz6Pkn1m3w/aHai4zKi+oZGlcjr6psUzHfkVcune6olv7jeSuU9kLFtl3sqBaxraygz16MAHPk5PjZGZk/oI/MmpUtW33hpbGw9XH8gTY3GxkaJiUGVEqu/+d9d1/c5o0rZV1Arb60tk20HqyXG+kyHwlu2rqWApUCEKdAjAByddnafeJkyKlVOmdhH0pJiJdAdngBxQ0OD1NbW6m+Amt9lZWXy2GOPyf79+6Vv374ydOhQGTdunIwaNUr69eunnwHubUuTAvehojpZsblCduTVSEllQxvpPsLzZJu3FLAUsBRoQ4GoBnA0Hui1J49KlWmj01S/bYqvxMz/gHRBQYEUFRVJSUmJVFRUSHV1tYJ5TU2NlJaW6neHDh2SwsJCqa+vlz59+siECRNk5syZMn36dMnJyWlFJPd7ULXsP1Ir63dVyaZ91VJWiVRvucpSwFLAUqB7KBCVAI4WLCk+Rk4en67ADYjH+lgUfdUfmzdvlh07dihAA9YUVCW+hecqKyslPz9f9u3bp6BPSUlJUYn84osvViBHcqe0Ua2ISE19k+zNr5WVWytk64EaK413D+/at1oKHPcUiDoAR+run5kg58/OlFEDkiQxwZ9a4xiwAtLLly8XAByJOtgCQCOZ5+Xlyfbt2/Vv2kIi/9znPifnnnuuql4C6dR5T3l1g3yyo0re/7RcXRFtsRSwFLAU6EoKRBeAx4iMHpgsl8/LlhwMlH68RtwqFMB19erVsmbNmgD66+BIiUT+6aefypEjRxSwk5OT5aabbpKFCxe2C+DNIrpK4S+uKJHyKh+LanCvt7UsBSwFLAU6RYGoAfD4uBiZOjpNLpidKalJcX7VF+4RIjFv3LhR1q5dK3V1dW0Gj/QcF+e0E6gghSO1U5efnTt3yoEDBxS0R48eLd/85jdlxIgR7YI4dVHU4G74wvISOVhYZ1UqnWJF+5ClgKVAqBSICgBPSYqVuSf2kYVTM9RN0C1l+xsQYLtlyxb5+OOP1UjpWwBV9OBGv52YmKhgbjxUAHy+R/I2hk7qIHnv3btX9d/x8fFy+eWXy9lnn61eKoGKW8WCBP76x6WyaW+1RnvaYilgKXA8UKD7fNe7HcBTk2LlzOkZcsqEPkJn3CWQ/hlXwHfffVcBmDrl5eUqQRsfb9oAhDFUIlHzuXERNFI3kjc/KkHHxLT6PXjwYOnfv7/+DBgwQAYOHCizZs0KaBR197msqkHeWlcu63ZWWRA/HtauHaOlQDdSoFsBnMjJM07KkHkn9hVUKP4kad/PAOpnnnlGXQJNKS4ulo8++kgB1oAx31HXgDT/G68Uf94pfA+Y84M3Cj/u+nimTJ06tY06xd8mU1HdKC+vKJEt1kOlG1nbvtpSoPdToNsAPDaGiMp0uXhOVkBf6rbRkTGyfv16+fDDD1Wi5vujR48qeKMiSUhIkMzMTPXlzsjIkNTUVP2M75C8jfSNCgVg57eJ0ExKSlJVCfVNIJB7+rOysuTCCy9sYywNdEqorGmUh5cWqm7cFkuB3k+B7lMj9H7aBh5htwH4xOEpcu3puZq/JFDxB45PPvmkSt9GRYL3COCKhDxy5EhJS0vT5gIBq1uqdkdeGr9vfqMfx0ccQ6kpbAZnnHFGu4E+rcbR1CSF5fXy7zeLpai8wQbhH8+rzI69R1GgJ92O1OUAjmfg0JxEuf6c/pKZFt+hh4d75gHlRx55RAGWgB2k8ezsbDn//PM1FB7Do9GD+1OXGMA2qhaTG4V2kcj5H8MnII5kjw7dFCTz2bNny9ixY31w2r//t9lAdh2ulWc/KBHUKrZYClgKWAp4SYEuB/C05Di5/uxcGTUwWd3t2guU8adCeeqpp9Rfe+vWrQqwl156qQwfPrwVgEMgXz13IL237wZhIjkxjB48eLAlOAg1zEknnSRTpkxpNwmWac/0nfB7cqgs/aTcuhd6ybm2LUsBSwF1/Ii55U+bmwIlh/KSRhxNLjiln5w6qW+Lx0koAI4EvXjxYtm0aZMG8CANL1iwQPAa6cjnO9hxoDZhg0AiJ0oTIDdl/PjxMnfu3JYw+/ZUNb7uha+tLpVP99TY3CnBToStZylgKdAhBboUwEcPSpYr5mdLdt+Elo6FAuBI0fh+v/POO/LJJ5+oThr3PvTTXhX6g2QPkK9bt06lbfKkoLbJzc2Vq666So2cvpK27/t9x7Vlf7W8uqpMSiujX5WSEB8rfVLjWzYbNveyivqAGSAZe7/0eImNO5b2oLC0NugTR2Y6hubQsoLV1jVKWWW9pKfGS5I73QKG7dK2gV30kXppKXEtp7OGhiapqKrXyz3aK9zulJYcL25DBheJ8H5zk5Pv86ThgYbQ0l1MvwO9j1NpdkZCqxNkSXldm/dkpsdLnIveofA/7WWkH1uDoTxbWd0g/KSnxElyYlwrmnTUTn19o5RXNegcGLpARz6r4wYVV4F+GWnH+ILvqUd9d8F7rW8avOrwT01to1RU4x7cUW96x/ddBuAE61w4O0tmjktvRblQAJwHMS4+8cQTsnv3bvnMZz6jmQS9kr5Nx5C6MZS+9957KonjB45uHL/w6667LmQJnHYBwUUrS+WTndUhMlfXWvdZBrMmZMg1pw9suYauvLJBnn73kKzbUe73BMFiueP60Qo8FP6/66HtutA7KtT9z8+Nkv79Ejuq2ur7T3dVyEOv7ZeZ4/rKlQsGSmKCs4C5kONPL+yVPYeqW/WVhX7OrGw546Qs3Sx476e7y+WZdw5LaWVgTyGSqC2Y2k8uPjW3FVjV1jXJo0sOyobdx05o7g5yS9T3rhzRZlyf7iqXfy0+GBD4Mer/z00ntHKrXbTiiCxddaQFpNg07rxhjOQ00zsUwkGl+5/dK9++fHjIp0Hyuy1dfVReWV4gV5w2QOZP7Seh7CHMyeNv5slnZufItDF99P0A7jPvHpbVW4+5BTOeQdlJ8uXzh0hWs7B3oKBGnngrTw4ccRLVKZ+JyLTRfeTaMwZKcpKzUX6wvlheXl4gbJTHQ+kyAB83NEWuWZgj6MDdJVQAJ03sAw88oOliiZTEZTAY/XYok4l7IUZMJHB+Jk2apBvGvHnz5KKLLgpJB+5+7+HievnX0iKpqo1e5kpJjJUrFgyQWeMzWrqO1PP++mJ5/oPDfjcfwPAnN4yWnL4OCLNZhQLgP75+tPTPDA3AAc4HX9mv/HTZ/AEyc3xfFZDpy+Z9FfLo0oNSUXVsAxkxIEU+f/YgyW1+D9Lcw68fkG37K9sFMgB84dR+csm8/m1Y6KUP8+WdtYV+A7bYkG67dlSbk8X6XWXyr9f9AzjC5UVzcuScWa1TGhMc9j8Pb285KQDgd31xjORmhEYzM4D7ntkjN18BgId26iE30ZJVR+XlZQXKI2xsvsF37a2z3Yeq5LE38mTK6HS58JTclgyjbAhvrYGOjtjMHJ56YqZcMre/IPhRauoa5bGlebJup5M9lEJ/LpqTK2dMz9YND9AGvN9bVxTKcu/RdbsEwLkn4brTc2XKKMfFrz0Ad7vw+AN3wPV3v/udqjEuu+wyDX/3uuCFwgaxa9cueeWVV5qZqkm+8pWvqCdKMBtQoI1p8cdlsmxT+6Dh9XhCaS83M0F+cPUovRTaXfYcrpIn3zokB48ek4DM914DeEllvcR0cAQGpB9/I0+7MCQnWa47c6AMzXV4AanupWX58v6GYgX1xPhYuf7cwTJ5VHqLFuS59w7Lu+sKmy/VC0yh9gD84JEa+ctLe6W0svVJg7m/5oxBMvfEzGY58RhQtgfg0PG/vzRWVQKteUzkH4v2y/pdzglIJfAvjGk58bjrugEVgPNVJRDsfB8S+GWtJXB66Juy2dcuBr6+YSRwHwDncvCOpN79BdXy3PuHdT6+d9WIFjXKR5tL5Pn3D0tVjUnhLHLJvFxZOC2r1Qbxwgf5Cs6mX4D2584eJCeN6at0OVJSK//31iHZfqDyuHHb7RIAH9AvQb53xRC/qyQUCdy4/91///2qxkCFguugKag7jD83n2H0xP2vPZ9wE8zj7hybAioTwvDxeuHyB/Tfd955p6pT3O0FajvQ5zDpr57KD0lyCQWAw6lLn+dP6SdXLRzYphl0kEhAa7aXtZFYvQbwW/+8pVVOHH9jAkzcetMzp2fJebNzFBwohwpr5JElHLmr5cSR6fKl84e00HxvfrX87undzhm8g9IegDPu3z6xSw4crWkFGLX1jfKbr49vc9rkVe0B+NQxfeSL5w0Wgtx8y+Y95fKXl/e3fIx+3fcCqWE5yXLThUNb6nywoUiWrDwq4tqLabmsskHSU1ufhDNSE+Tz5wxqdRL69eO7pKq29eYEUKMau/y0YxI4JzRUK2+uYUMMXNhQ2HzIE3TnF0ZLTvMJIq+wRk9TxnaBfv3aMwbphusuqFmeeueQbtAUTm0AOKcryo6DlXqqYnzHS4k4gDNpnzujv0wb01b6hsjBAjjgjHcIEZOLFi2SqqoqOe2004QkVCS0eu2112TVqlUt7dFuenq65vUmBB4gN0dGc80afuTPPfdcq8sbeA7D6Omnn64eKHyP3h39N3nCBw0apG6Lxqc8VABnbb62qlRWbKmKSh77ny+foAYqChLT4OykFsnsw0+L9fhcVeMrcXqrQrn5vk1+Uyu0RzCksu9cPlzGDT3GZ4tWFMgHG4rlpzeMkYRmQ2dFdYPc/egOqagK7jYlfwAOcBuM5ej/wgeHW6kjAJTvXumoKNhoAE1TPxCAs06+fvEwmTTCAS3ADLADpHj2cFGN/GPRAckvPhZc5ksP3otkawp9Q7L1laz90RFD8tcuHiqDspL0a/a2Ox7cJlV+7BjQ2g3g/L945RFZvOpoUDxN/Rs/M0RmnNBX6/P/H5/fK7vyqvS9owelyHVnDGpjPygqq5P7n90jReWOkXLy6HS5euFAydB4EpFVW0vk8aV5wezLQfWzJ1SKOIBnpMXJf143LCAtggVwwBS9NEDOBQ6oN0488UQFVDIT4iUCYCORm3wofIaqhYRURGsaYyeAT3u4CbIhGHA3UZioT6hL23i7oAdH104oPe1MmzZNPVPa24DaG9eRknp5YNHREI2ZkWUnFsDIQSlqeKMgVT38+kGZNyWzBRQB7v/3zB7JL2oNIl5L4J0BcPrcJyVevn/1COnXxzGmAoBI2wACBT3qs+8dlpWbS4KmvS+AM9a9h6tkxMDmNmsb5Ud/39YiOEC3r1w4VKaM7qPv5CRAwra+aU6fAgH4wKwkufG8wTKgGUA/2lQiBSW1cvbMbPWeQaoHJN/4OLCU250A/vpHR2TJ6uAAHDpMGJ4mX7toWMvGhm4cVQpl+lgMk4NUjYenEPOIURhw/9Pze1VFQpk3GdsE0dyxqr7BGLpiU3HIuv3IrqzIth5RAEf6OGNqhlwwJ6uN+48ZVrAAjkqDuywB5A0bNrTkQ8EHfMaMGZoDBUAmPSwAjhqE0HoAms9IE4vETY6UyZMnawQn0jt3aPI9/QD8x4wZo+BOoBDgba5fIz844fo8z2/juhiqBM64q2sa5ekPimXnIf/ubpGdcv+tA0zoRU8Y6rhkIu38+aV9Ch4/uHpk82Yl8sy7h1SqdRevAfx3T+1p160Q1QnA6OvCRz+mjk6XG84b0kaCZ/Gv2VYq6L4xYAZbfAEcaRHPlatOH9Ci6rj/ub2yA71rjOOq+MNrR0p2s3pgxcZiBeWRzYDvBnBj74GHzpyRrd4ZgBEbzasrjsjGPWXylQuHtag1PtleKk+/c1g4Rfgr3QXgbFpsOCu3lAaUfqnD6cGc3vBe+dmXTmhRM63YVCKPvXFQx3/G9Cw5f3au0nNffpWQV2j8MOdkBV1eW1kgKYlxcsGcXDltaj894UCT3z+zRwraOaEEO+c9qV5EARwjwzcvHiRDcpICqkqCBXBAFf9sFumhQ3mqTkEqJrUsKhKCe/if3wD87bffLocPH9Yr0gBq7ssEjClDhgxRSRrJGqmdK9Vomxt4eAavE/5nwyBEf9myZRqByWYA8PO+cCRwQODjbZXyysryNnrM7mIe/Ir/83OjFYAAu/fXF8mi5QWCzhPDGjpXypGSOvnpP7e18m/2GsBZhO05SBSU1MkTb+ZJSUVb9z/0wufNypVzT85uRcq8ozXqwrYvv23++PZo3gbAG5rk74v2q+uicePbfrBS/vDsXtWVnDIhQ13skBhxv1yy+oig2x4z2NkY/Ung+EVfedoAmd6sUgDo/vzCPjlaVqtSKjp8SmlFvTz2Zp5s2VsRVQBOZ9Q/3Ee15u4kIPzC+4dlR16VAi5r4LtXjmihS3F5nfzsXzukb0q8XHfWIJk43AHsFz/M17qXzx+g/2NMv/fJ3epN9NmzBrU8j63j3if3tHuLV3etrUi+N6IAPiQnUb503gBJTwmc8yRYAEfnbSIkAXPUIAA2yaxOOOEEVYMgcZNqFmn7Rz/6kYIwgIy+mgCgk08+WSVu2kKPjYoFNczzzz+vboJf/epX1f+b96CuQTJHsl+5cqWG0RNmD/hPnDhRNwVKZyRwntl+sEaeer9E6oMXBiPGBwDwZfP7q1sYgIVk+9TbhwSpCG3oWTNzHD/o5vH+9793SnHZsdOD1wDe0UAPFdbK317eJ4WuPrifGT04Vb59KXaKY58CnA++ciBk32d/EjjGvZMnZMg5M51Ngk3uv/7p+L1ff/YgmT0xU9/DUR+jGz71gQCczXLCsDS5/pxBuk4o2/dXyB9f2Kd/A+o3nDu4ZSCcIHDp9HfdYHdJ4B3NF98jIf97yUHZvLeixeB7+rQsuXT+MffMnz60XU9eN18xQhAoKHc/ulNv6PrWZcNUOscX/ScPbpOsvvHy1QuHSUZzvcWrjqh/uj8DcDD966l1IgbgLOr5k/vKubP6OVJdgNCoYAEcbxGkbZMWlucAbSRr1BroudFboyMnIyHgzA/qFACd51GPAPzkOMEoiRQOuBN1icqFZ43enGdQ1yDB8w4AHwAnTzjqlM4aMQ0IHi2rl5dXlMnegu5Xo3Bx9DcuHiajmnXFGC+feOtQi7Q6NDdJvn/VyBa1xo6DVXLfs7tbFovXAI76pr2CBM5xu6S8rQTOIv+supY5OmhTkF4x6OFFE0rxB+D/868dMm5Ymly9cICeRNjw0L9u3lsu158zWMFajWpbSgTXNzxgWgH4awelvtnnmfZxN0RqN6eOv7y8TzZpgJDjjfKLrxxTNeBL/Y9X8bRoO/buBHBiG6rblcAbVH21/aAjgVMI1sHoajyHCHBiXN+4ZJh6DKFu+cmD29Vd8qsXDm3x4f/LS/skPi5WbvzM4BbPIqRy7B0huraHwgpRWTdiAI6/6RXzc2TmOCfiKlwAB7gBVSRjANtkHQRwuZF+2LBhqpfmPQC5uVEewAb4cQPEKMn3qEYAdP43N9kbw6fJRIj0jfqE96B64Xt+oz8fOvSYq1Znx1Vb3ySLPy6Xj7dXdTvTEViBSgBrPmXTngpZ+jFGVsfPrm9qvFx0am6L2xeh5z/75/YWXazXAP6LR3a2G+HHqYUjtz8/5XmTM1Xi9VeQ/p58+5Dq94Mt/gD85//eoQa268485sK2cXe5rNleqkf91OQ4lcofeu2AHCiobgvgrkAepO6vXjRUhvc/Fs/wh+e51s+hPRLnlQsGyLDm76E13+886KgD3aW7ANwEeuGlFMg3k+Gg8nL7ivdNi5NvXjJcMOBS1u8sk4LiOjlzRpb+v3Z7mTz46n7JTEuQyxf0l+ljHa8V9O1lVfVy1gznBETA1k8f3h4wujXYue6J9SIG4GnJsXLt6f2FCExKZ4HOTVRUIlw8jC4aydh4lRhDozu/t3nOADq6btQhFMAbVQq/faPRTH3aNzpznjE3AKELR3p3t+9v4js6WbAQ31xbLh9uarsQu5KRUDNcdGp/4ThrpBfAp7zqmITHsZSIR/S6zlyKcGQlxJuN2msA76wXCobCb14yTDhRUIrL6yUh3uk7BRDBtW7RinwFxmBKIABnE0AHO3uCoy45XFQrB49Wa4g49OJ7NiKAvo0E7gLw4QNS5D8uH97KaEtAiruwIZiLvvkcL5pHl+a12fi7C8BDdSM0YyPK8tJ5/eWUic66RAWFqsVEyxKUs3xjsUrZ8OeFc3JUxcdGgKRuArdWby3R6NZg3CWDmfOeVCdiAD6gX6JcvSBHOH57BeBIxRgc+Q3AAsqmmNvlfYkPqOPBgloF4DcFSdvfbfZ8j2oGyR13QlOQ/NkAAHBzaUS44/poS6W8ua5C83d0V2GekCSNl0Sw/cDrgpwjgGI0ADiqjG9dOqzVOPDYwH+az81Gzeb0ALlSDnPy6TiUvD0AR9eNxA0QAWL8GHXAGx8fFULtMf7i8+xPB97U2CRfvmCoGjlDKbgU3vmPbUI+FnfpaQAO+WdPzFBfbhNBim6fDRCp/r7nyGlTpfw144Q+ctXpA3Uj43/qmWf++foBldaPxxIRAIfAY4eQeTCnJfOgFxI4ahH8v5GeAXA3kLY3eYAv16W59dYYQnnen9Su0kBlZQuAA/ZEY6IHx+jpLuGMa+uBmm7PUIjECMCYggR0xI8rFmBHFkk8JigkgHr23cOydkeZXwC/8x8dJ7NyVGsivrlQvhNkII+BXyL70EejPjFSGMdx9NIEfRBmf+okR8qjVNc1yu1/2aoSbEcQ3h6A8x0ug4Oy26Zz+PHft6lE2Sc1LiCAozv/32+ObzkxsLmw4fjzxUtJjlPJ1PQX2pMKwL0JdSeAvx5kII+b3sz9hOGp8vmzB7d4OZk5OlRUI395cZ+eoigIGCStMuoWUw913q8e2ymFATJQ9nZQjxiATxmdKpfPO5a8Khygc08CahQAGS8Q2nTfRO+uh0SOcdJI075gbfJ+40fuW2gXADdqE+ryP94nbv03z4UzrsNFdfLcsjIpKOmeezPJfHfx3P4aPu+MRdRFbv0O/9KMJjCaltWiNnl7baG8+IHj2ulOZgVN8GCpb+dkUVrVIB9tKtYF6gvg6k2AbqadgoRG5B/VJo5Ahz+gRVhAP/rse/myZmupgjRqDHzZzdGcZjl2EzzSkSqlPQDn9PGFcwarR0orHi2qkV88ukv7RlSrPwmcUxf+zqgQTHnmnUMCTWP8bCtDcpPV7c7kqGED/e+Hd7SyA3QXgDP/2w5UCMbt9gpGTjJAHimtaxnhgH5Jcs0ZA2T0oNYpoVGdYABmU6NwykFlNWVU69MKnj6E4bMpa+lJ96F5sLtEBMDp16xx6XLp3OwWf+HggK419f09g9qDHCV8Z9QmbtUI76aOkbAxclKXOu56SPME/hgAR8o2eVWoj9oFVQ2FtvBSwQ3RnXslXAAnCdKT75VKXmHwRjUP5rylCSIWf3jtqJaMb+gVsfr75tjQcYrIuKGOtGSMneSewFuFyEw3gAfTR5751+IDsr+gpg2AB/M8ktctf9wsmX0SVPo2kY8AO4FGeDwYBQMgzkkD42ZKknOCwMMBg+aabW1zu7jf3x6AI/0iESKFuzecR5YcVA8Uvg8E4EQY3kFCquZ0qXhxEGWIB5C/glsdAGZSBSC940q5ZZ8TuEbpLgAPZr6og5QMzdWVsHl/ToiLURfWU0/s1/IZ84Zg4E5cxZq8dH7bDIhI/uRhCZSXPdi+9dR6EQPwuZP6ykVzcNNzZio4AG9NxkDPoM5AP42eGp9u3AFNXaRlA94ANmBufmjd3FBvvE5QxQDeRk+OxM7/xcXF6lJI4V2Ez+PJ4luCHpdrbzLPkNjq8XdK5MDRrgdw+sCi4VhqCqHQrywrCOgVw1zi9jWsOesfnjSA1bodZd0C4Lf+abNGL553smPcomA8JNseXiru4qSd7S8zx2W0jA+3MwKC/GVYNM92BOCaOldzcztxAURR/vqxnaq6oQQCcIAYNzhzsQEeLKhFAkWJ0o/TpmbKxaf2V90vUi+RpY8sPdiSFqAnAjh8eOb05ijUZuMzAUFPvHmoVepYxkuKWU4s5hQCaJM22KjxeioIh9PviAA4u+v8yRlywexjng1BA51rNIGeQXoGuHErBGgBViRjA7y+Bkua5Bm+R+VCu+ZCYyO9oC4BvImwpC7BPCazIVe3YcD0Z/QKZ1ya4/itEtnfLQAumtOZm3R0gxXRRdNeNB1jPW1qlkripgAia3eWa1t9m/XjwTAkngRvfVIoR0vq5KqFA9qkUO2oDfTe/3r9gHzuLCdnBoX5efuTQiedqB8NDPlLTp2U0eLRAfiwTe4rAAAgAElEQVSu2loqG3eVBwwBZ18gEtKoSVCbPPV2ngKtCgHiGNiMi9v+I9Xy9ppCYXOj0DfC5Ac2X1ix93C1vLHmqMyf3E/GDk1tUSWs3FIiG+hHAHs2H48amKJ6fnMDEVGx5Oc2GQNREZmAK95N+lnUVMEYa7FtnDsrW/o139QD/f69JM9vilhOOXMmZWrirZjWWYfbnTYiU8mQyKUM7vlhXvCFJxc9hQAtIoEZn7vgD07wlPHIIesgKqfjLXzeTZOIAfhpUzLkfAC8+W3hAJ0/rgBcMWgSaYl6AykciRwJ3KhL2nPlc7cJgxvJHaBGYgfA+RxdO9J3oBLOuPAmeOTN7pLAHUu+LzN0BJwsXvdTuhHGOKHRoRQnQ1+MLuRQnzXvgXl9n23vggGGy3y17r90GL1nvB7MexmvGxTd3zOeVtGAzR4TLeoc0hxrlkL/dGyPhr79MFkOTV/afO/bl5at2r99wXdu49qx8vrLNR7M/DN2383Vt9+0w4nDt5d+6/lpL5h+9JY6EQNwojAvmJ19TK8VZiSmL8FZiID3nj17VFJGCje6a+oimeNmyA9qE/eC0zSfjY0qaaNu4TdSO8+jUjH6b/5nYyCCM5AUEw6Ad6cE3lsY2I6jh1HgODMyRnp2IgLgdPrUSX3kojnZHd4+356U3NF3eIaQvArp2YA14e5EUBrjJcmnkNCNCoW+GUCnLvpt1CYmpSwqFjxdjPqEsHnaiIQE3p068Egzlm3fUsBSIPIUiBiA44VyydzslsCGcCRVf2SgPUB227Zt6qONDhxfb+f4FduS4wTgRi1CqD2qFZ5DOseTBT06wM2PKXzG9xSAn0RZ7V3bFs641Avl3VLJK+p6I2bkWcu+wVLAUiDSFIgIgKMtmTKq2Q+82bAVDtAFAnA+RwonbzegbaRwd31AHgkdYAbAAXQDzubyB1OfPhIkRB1UJmQe5Aq19oxA4YzrUFGdPL+sVApKoiAlYaQ5zbZvKWAp4DkFIgbgYwYny5WneRuJ6R69GzhReRBijyRNoiuT6tVd32Qa5DO+9wVvPgfkUanQNmoY1Cdu6by9jcT3u47UP9Tfsr9GXltVJqVVQSbm8Hz6bYOWApYCPZkCEQFwCNI/M0GuWZjraS6UQADO52vWrFEvFPTZ5mo1Ux8JnO8crwd8aJ1UtEjkRroG4FGd4IHC3xgvudjBSOyBJjkcCXz55kp5m1woDaF5cPRkhtO+W0NWj59CO4DooEDEAJx7AK87I7fFZzgcoAtG8l29erVGTgLMSNhI0IGkZwPipl0TyIMEDnjjmUKqWRJXuW+5D6YfbnVMe6BvshF+sNG/z3J0sIfthaWApUA0UyBiAI6v5xXzs2WW5gN3pN5QAJC6waghTJsYM/ELJyc4XiaoSDBedqQC4XmAm0AeA95I7CSuiiSAk0nu9Y/LZc2O7s8HHs0MavvW8ykQyoErlLo9nzLhjyBiAA5ez53URz4zO8uTG3l8h+oL7gTeAOCoQfDpNkE4gLjJG+6PXKhIzG33SN7mFh+8ViIJ4EdK6+WlFaWy/0j3JLIKn3VsC5YClgLdTYGIATgDG5SVKDddMEDSk8O/E7MjAAe48evmujT03ebWeHTi5mYdf8TGBdHkVEESN2H2kQbwbdyJ+V6JEBLenaWp0fGAidEMVv4j9JqanE7GhBI3HcygiEZsbrv5Bd6/I5h+2DqWAj2UAhEFcBr/xkUD9TqoSKtQUIEgSSNR79u3T99nbo7Hj9sYNo3Rknrm0gZUJujP3fpuIjLxQjF3bQaa386Mi0x0K7dVymuruvdW+oriA1JfXaq0ik9Kl/Ss4X6HWXzwU0lM6ydJadkSF3/sUoxweb6q9LDU15SL2UQSUjMlOT2nAxBvkqbGeomJiWdHCbcL9nlLgR5NgYgCOOkxCKknray5468jSdr9fSg6cNQf+HAD0KhBSHSFHtwE4fA3XicmGyHeJgC3yYHi621CO+jP8UTBoOklgGsq03dLZE83X2i8e/VTMmzaxSp5Fx/cIFnDpuswayrISS2SmJolNZWFcmjLm9Ind6zExidKevYISUjqo6Db2FAncQlszkjoMVJfWyH11eUK9rFxBEfFSF11mcQnpkhtZZECc1I6GR0de8jRPauk39Bp0tjgqJFi40hI1iCNdVXSUF8tSalZEpuQrM8C9ElpOS2nhcb6WomJi5faikJJSM6Q+KQ07U91WYH+nZjCBQ5NwibBYFL6DFTgb6irlpjYOO23LZYCPZ0CEQVwiNMnJU5+9FmutPJPqlBAuj1wR4LGH9xI2PyPJA6Au/OAuw2qGC3Je+IL3gQFoUdHQkdynzNnjqcAnl9cJ39eVNjNvBMje9c+J9nDZ0lKhpNSNjYmTkrztym4NTY16MUCSNxH9q6SlL4DJTY2QapKD8nQKRfp79LDWyV39BwpObRFMgdNkqP7VktaxlCpLsuXlH5DpTR/q6RlDpWmJkdNY0C/b/8THADfu1oyB0+RpgYnEjUuMUUOblosGQMmSGxsvNTXVepmUV9XJYnJfaS8cK/ExMRJxsAJcnj7e3piSEjJEMA8OT1XSgu2SUrGIKmtKpH4xDSpqTiimwAbjPNZqtRVlQrvB+RtOU4p0IsspREHcLKWXbUgR04e5//ePy8AHABG6ia51bHMbE0aYs+lDQAyEri5Ps0ksjL5UVC1APIGzLl5Bx04t92jU581a5b6hfsroapQ2MheXF4ia3b4T9zflUsKaRQJtbL4gDTUV8mg8WfKno+fkeEnXaHS6961L8qI6ZfJoW3vSVq/oRITG68gDHDW11ZJ0f5PJC17pOTveE9GzrxOGuprpLGuRg5vf1dyRsyS+tpKlcSryvIlc/BkaWpslH1rn5cxc25QaRjAT0gkH3udCuWp/YbK/vUvy8gZV6t0Tf8Kdi2TzEEn6gZCX4sPrpfc0XNl98dPyQmnfknVP2w6RQfWav9j45OlqjRPqkoOSubASSrB02ekeE4TnCrS+w2z6peuZDT7rohRIOIATs9zMuLl+1cO1bSjviVcAAekib5EhcLf7rB3JGwA3OQ28X03dfFS4VYe6pIfZdy4cQregPzu3btl61buToyR+fPn+3VJDBXAySN9z9MFrW4hj9jsttNwQ0O91FUVq85ZJFZqq4qlpqJAivM2ybApF6n6Y+/aF2TE9Cvk0Na3VJKOiUuQ9OyRsmf1Uwq2SL9I6YBtQnK6oCtP6zdMivM2SvaIWZKY2k+BtOjAeumbO1Y3BdQcWcNn6P1tSOA5I+dIEwCuOWziZe+652XIpPNVzUFdJO1+Q6aohI16pOjAOskdfaqzEZx6ozQ11EvJ4S3ax5wRJ+uG0dhYr8/GJ5C3HENpkyQk45kUr7r+pDT/m3F3zIN9p6VAOBToEgAHuJHCp489dou86XQ4AE7Y+86dO2XmzJmyY8cOjaL0DaMnVwpSNB4m7oIuPCcnR42UasSLj1e1iUmIRVvr16/XDYDC5+PHj9d0s+6LkEMBcFwrX1lZKqu3db/vN/3O2/yGZA9H7x0jdTXoqlOlcN8nkj18JvoOKcrbKAPGnib5Oz+U9KwR0lBXpbrw3aufUIPmgLHznfrDZqiapd9gAp/qJX/HB9pGUnq2StEAL38b0B488VwF1sJ9ayQ9Z0yLCiU+KVUObXlLBk86zwHw+hopyvtU34UKpaJwn1RXFkruyDmyf/1LMvqUz0tTQ4OqaqrLj0pa1nCJT0hR1UlDbbUkpPSVuMS0ZgkcXXlf1cezsdhiKdAbKNAlAA6hxgxKlmvPyFWduLt0FsCRuDdu3KiAOmHCBNmwYYPqspHGfQtAj3RtdN0YJ8kfjloE6Rr1CQDtzjqIX/m6detUD24KAG+eI8VsqAFKXJ326JvFxy5g7WYOAlgBbvTKqDT65I5RQ2RVyWHtGbpxpNjK0jxJTM2UmvKjktJ3gBoUAX2AsKxgu6Rmcqt9k+DVgp4c1Ula1lB9FiAGXOtruL2+UVIzh0pcvHP9WHX5Ea3LZkFB311XXSLp2aNUxYHqo7KEi4frVD8Pr1SX50vW0OlSfnSn6sr5rLaqSGJiE6S69LDExieosRSJHZVJA8ZOEYlP7iOxcYlqKPXSk6abp9C+/jinQJcBOFdLfebkfnLKhNa68M4AONIx+mmMlNyWgwqEjIR4lPTvf+yWb7eUj3oFSRyQRuoG+Cn4iwPk7ohNgB7J3qhP3DxiAB/fclQtwerGub/v5RWlsn5PdcBrs3omL/qzCPl+xv+ANL7mPhG5buu2ftX6e3TXFUX7dJOhpOeMVAOl/xLjbAbqr36c5Zfpmcxjex0mBboMwOnn8P6JqkrJbb4AVpdroEsAA3yH+mLLli2aB5xn8RABRJHAAWlSwPqLvFRJrba2lTETEDeStJuOqFuWL1/eRu3iS2vULrxv1KhRbfTjvuPauLdaXl1VJhXV3Ry5EybDdMfjGD9juMhXf7c+wXVHf+w7LQWihQJdCuAM+pwZmbJgaobEx7V/W70b3JGIAV/8vLlCDZUIkjBAPXfuXJWm0YED7EjFRroORGSeRYI2+m7fevv372/JMR7MRLEJoMYx0Z++GxMXNyxaWSpb9tfa2JNgCGrrWApYCgRFgS4HcFQp15+VK2OHpKgqIZAEjhcIBkhc+/Dv5sekhDUjQ11CvhJ02Oi4V61apeoUjJOBLmEA9AFvX2OkaZP3vv/+++rVEkqhvRNPPLFl8zDj4tLdDzdWyFvrKkJpzta1FLAUsBTwoQBqwdaufF0O4ID2wH4J8oVz+kt234RWAA7o4s6HKgQjIr9NlkBfQAaIiZIcOnSogjX1ly1bpoE3SOGoN9zFeJogdaelpQYM12ajWLlyZbu38ATiK949efJkBXED4FsP1MgLy0qkqtbqZO16tBSwFPCWAl0O4Kb7Ywcny2fPzJWURAxOoh4iGBn5QfpF2m5PP47/NtK3UZcgqa9YsUJdCceOHdtKJ61+wM2eJ7gZtnfD/Icffqgqms4WTgVI4vHxcXK4qE4efatYb9yxWTs6S1H7nKWApUAgCnQbgANo009Il0vmZMqhvAPq8WFuku9oujBkYjjEL9sUABxPFIJ2fC8iBrQBVl+p3Pc9ADcA3t7G0VHfOBnw/n65g+WhxYVSWGbvu+yIZvZ7SwFLgc5RoNsAnO5iyByZUSw58QckVoIHOkLfCd5Bl00BcAmjJ+gGCX7kyJEtOcFxG/R1E/RHKtpYu3atthEOgNN2er8BsrVooOzOtx4nnWNL+5SlgKVAMBToVgCng3ExDTI07YgMSjkisTHBAZ7J1W0GiLETDxUMkBgzUa+gjwa88RDp6FYeABsdOq6IvhGbwRDRXaemIVH2VAyUo9V9pckqTkIln61vKWApEAIFuh3AHRBvlIGphTIs9XBQII7roLmkQUPC8/LU+EkBgDF+EjGJNwogDoC3dysPGwB+5bTT0R2Y7dG2pjFRdpUNlqKadAveITBh2FV7UXa5sGlhGziuKBAVAA7FY2KaJDupTEamH5TEWCe5kb9COPuCBQsUaAFlgBu/bf42qg+kaW7nITEV+nJUKOZyB982MXoC3PiXo0fvXGmS8ro02VE2VCrqvbvwoHN9sU9ZClgKHC8UiBoANwRPT6iSsX32S2p823SrgDYeHui48VrBKInREgka90DUKIA4f2OMRE9OABCgT44UX+8TI70jsbMJdFb6PlqTKTtKB0t9k40S9GbhtPV39aZd24qlQO+iQNQBOORNiquTEWmHJDOpVOJdenGk6TPPPFNVIkjO/OByiLoE8OVKNTxZBg7k8gEnBzjuiNRBCndnEaQ+kjrgjwGUvwO5Fwaa8pqGBDlcnS15ldnS0OS4Q9piKWApYCnQVRSISgBn8LHSJLkpxZKbXCTp8ZUSG+NI1qeeeqqCNTfuAOD4gQPoSNNI43zOFWhunTefEa1p3Ah5HpdBVCZI6CSuMjr0YAiPpF1amyZ5VTlSUmtvdgmGZraOpYClgPcUiFoAN0NNjquV7KQSyU0ulplTR8uokSMVrAFhJGa3VA0gI23j8+0GcFPf6MmpA4AbKRwdeDDSd2NTjJTWpUtBdaYU1faRusY462fiPU/aFi0FLAWCpEDUAzjjiJEmVatMG9tXFp6UJZmp8cJVbb4FDxRUJui73cDursf3AD1SOz/kPfG9E7N1u02agKqsLk0OVuRIaV2a1Da2DtMPkta2mqWApYClgKcU6BEAbkZsMPukMSly2pQMGZSF6uQYPVCD8IO6pCOJmu8J+lm9enVAsMePu6Suj+wr7y8ltamqxrHFUsBSwFIgWijQowDcDeRc0zYoK1EmjUiR0YOSpE9qnCTEif4kJsRJLBXIdhiA0u6sgwB1U1OMGiLrG+OkujFRimv7SGFNX6luSLBqkmjh1lb9sJ4qUTkttlNdSoEeCeBuCjU2Nkl8XKxenDygX4Jk94mXjLQ4SU2Ok+SEGElMiNGQfQZKQWLnmaKSclm3YZPU1sdIXVO84FFS1ZAklfXJ+rcvPNhYkS7lS/sySwFLgSAo0OMB3D1Go04BsAFuADwhPlYBPNZ4+SmAi1TV1ElldZ3UN8ZKY1OsXvhlMwYGwTG2iqVAT6JAL5e8ehWAd8RX9tDdEYXs95YClgI9iQLHFYD3pImxfbUUsBSwFOiIAhbAO6JQtH7fy4+G0Up22y9LgWiigAXwaJoN2xdLAUsBS4EQKGABPARiBa4avnbdCtSeTIRtxFLguKKABfDjarrtYC0FLAV6EwUsgHfVbFoRu6sobd9jKXDcUMAC+HEz1XaglgKWAr2NAhbAe9uM2vGETgF7OgqdZvaJqKCABfComAbbCUuB45kC4TsBHK/UswB+vM68HbelgKVAj6eABfAeP4V2AJYClgLHKwUsgB+vM2/HbSlgKdDjKWABvMdPoR2ApYClwPFKAQXw7/9hU1ODnyvKjlei2HFbCnhNAevo4jVFbXtQIC4mRmLeWVPAvb9hlrAbCPP9zmUN3V2aAt4B1PU982BSw+90VCBX9zNGVMxF95OhhZ+ioSvRgBeB7wwLbulxX29MdXVN2PSMBgaNjj5A+LDJGdzsdVArOujR/bSwdHAYJRroYFg2GvrSG/pgAdwTqDzWSDQwhV0krSc1GubE9sHOiT+o8YIvIiuBd6GPvhfECBfPo6EPFsAtWEQKLMJdH5Y3vefNyAK4VzMeRDuRA8/gd6HI9SEIAvhUiYa+2D5Ej/oiGubCArgF8IBIFg0MGg19sIvE+0US+vZp+9AezaJhnfSWPlgJPNzV6Xo+GpjCArgFz96kQgn+/BvaQo6GtepFHyyAhzbv7db2YkK86k409MX2wapQonUz6S28aQHcK8S0rlptKNlbFkm4LGLpYE9FkdrILICHuzqtCsXaJTrgIQvgFsAtgNtFEtJWY0EjkPoiUlrVwNNj58ICuAVwC+CeAnhJSYlkZGSE1GaolS1wWR14pIArVF70rd9beNOqUMLlhB6oQmlsbJR77vmN/OhHPxb+jlTpLYskXPpYOnSnBO4/IU9vmRML4OGuzh4I4A0NDXLLLT+Q++67P+oA3GsFR29ZqOGyaTTQwYwhGvrSW/pgATzclWEB3BoxrXovpFXUW8AzpEH7qewFHSyAhzsLPQ7Am6ShoTFqJXAPp0Ob8mKRhNsn24fuVKH4n71ompNwTp0WwMNdnT0OwEUiqUKpqWuSuvpGaWxskthYkaSEWImPQw/ZPSWaFmr3UMB5azTQ4XhSoRjNe3sp8b2YEwvgHq4qLybEq+6015dIAHh1baNsP1gte/Nr5EhJvdTWN0pacqwMzEqUUQOTZHhuosSQwLiLSzTMie2DlcD9sb0XfGEB3ENA8WJCvOqOpwDewc06SN0vLiuU7QerpLzK8WoBq7n1BCk8u2+CTB+TKqdPy1DJvCtLNMyJ7YMFcB8KsEI8ORVFHMDj4mJ1IRt3Nf5nEXvN1F631xmQiYY+BHNM9VICB6j/+OIhySusbZ7nJklKjFVpu74RfXuTgP8JcTEy98S+cu6MvtIRhickxLcif319Q6f5xT0n9Ck+Pl7q6uo6M72dfiYa+CIa+hAMb3aayCE+GA308KIPEQXw2tpa+da3vilTpkyR7373e1JdXS0/+MH35ctfvklmzZoVEslZfNu2bZXCwiI55ZRT2ixoL4gRUof8VI6GPgSzSLwCcMD71ZXF8v6GUn0tG/OZM7Jl4og0vVmupq5RFq86KvvyqyU2RhTYbzqvvwzMSghI6pSUFLn88sskOTmlWeXSJHfccYeMHj2mU9PjnpP169fLvff+r/z73/8WNoWuKtHAF6H3IRzTWvuUDb0v3s9Ub+lDRAH83XffkTvvvFNGjhypQSMjRgyXK664Qr7+9a/L+PETpG/fPjJgwEAF43379kp1dY1kZ2dLbm6uHDx4QBITk/T//Px8SUpKlAcf/Ids2bJZfv3rX0t2do7OalFRkRQXF0t9fb3ExsZKcnKyFBYWSnZ2lgwcOEjKysokLy9P6w4ePFj69OnjPTc0txgNTNGVAF5X3yT/77k8Ka+qly9fMFQS42Olf2ai5BfXSkNjk6Qlx0lyUqwUl9XLgYJqefb9fFWlXLMgO6AUnp6eJjNnzpSLLrpITjxxsg5n3ry5UlxcIn36pOsmUVVVpXMJz1Bqa+tkxIgRkpiYqHN/5EiB8sGwYSOkoqJMN302rbq6WlmxYoV88Ys3CpGo8EVcXJzyJ98fPnxY+ai2tkZGjhyl0npBQYHyWGpqqr6D7w8cOKB9yMnJ0Z+OSjTwRTT0IRje7IiWXn0fDfTwog8RA3COqbfd9kNJT09XyZtFeckll8jVV1+tCzM1NUUqKyvla1/7umzYsF6WLl2qi4EFddNNN8m9994rY8eOleuuu07uv/9+mTlzlrz44gty9OhR+d73vi/z589XPevTTz8jL7/8kowePVp2796tv0tKAPQGufnm/5DXX39Njhw5ogtvyJAh8oUvfEE3hkgULybEq355qgMP0KkdB6vlyXePqqR9zzfGt9t16tzypy0yaUSKfO70HImP92/QBMBnzJgh5557nkycOFEaGurlC1+4QX7/+98rMMNX8MXFF18i3/nOt2X69OmydetWmTNnjlx//Rfknnvukfj4OAVjnoMXHnroIQXpSZMmyaOPPipPPPGkPPjgg1JUVKib/7x585S/fv7z/5Hx48fLypUr5aqrrpK5c+fKX//6V90Y9u3bJ1//+jekpqZGXnzxRRU+yssr9HSQlNQ+P0UDX0RDHyyAt14iXsxJRAAcYN2wYYPcdtttCpgAa0lJqapTkL5vuOGLumj++Mc/yOzZp8g//vGgXH/99TJv3ny5777fyznnnCtPPfWkLuAbb/yS/OpXv5RrrrlG1qxZIxyDf/e730lcXLxK3I888ogg6d9yyy1y772/kwsvvEDGjRsnP/rRj1Taf+211xTUAfBdu3bLf/3Xf+n3kSheTIhX/eoKAF+xuUwWry5RPfevvj5O4tCTiMiRklo5cKRGJo9Kd31WJ//98HYZMzhZrl6QLX1T4/wOFQAHlBcsWChjx46Rurp6Bert27frySspKVnnFpUa0aS//OWv5KOPVshf/vIX+etf/6Y8dtppp8knn6yVzMwM5YGnnnpafvjDW+XgwTz5yU9+LM8886yq8WbMmC75+QV6qvvnPx+W3/zmV/KDH9wqf/jD/Sp1X3vtdfL+++/LrbfeIps3b9HcMQ8++Hc5erRQJk6coELH3XffreDfXokGvoiGPlgA7yEATjf//OcHVFJBWkLS5sj6ve99T37xi1/IV7/6VTnjjDNVWpo1a6Y88MAD8p1vf1sWnn66/OY3v5GFCxfKk08+KWPHniBf/OIX5Ze/vFu+9KUvy9q1n8gnn3wif/jDH1TCNgC+atVH8tOf/rfcddedcsMNN+hRl3cg8b/33nvyta99TRf+/v37VX8ezLG3M0DaUxaJVzrwNTsqZNGKIpXA50/NUr03paCkVs6akSUrt5RKUjwGTZHi8nr5ZHupjBmcJNcuzJbUpMAAzhx997vflbPOOlvbS01Nk927d8n3v/89nfM//elPkpCQKP/5n7fLH/7wR3nzzTeUlx5++F/ys5/9VG6//T9lz549Ki0nJCTI4sWvy//+772ybNkyue22W/XU9sMf/lB5BDXJzp27ZO7cU3UTuOuu/1JJHIkbAF+7dq1K2c8887Qa4t9++21V31x11dWyceNGOfnkWTJ48BAL4CEsmGhYJ72lDxGRwFFZsJBYiDfeeKMUFByR3/72twrmTz/9lB5Jc3KyVeeNRLx69Wp5+OGH9XsW3Z133qULZtGiV1XtgT78V7/6teTlHdSj9Fe+8hW5+upr1BXn8ccflVWrVunC++lPf6qSPAD+jW98XW699YfyyisvS3l5ucTEoB9PkrvuusuqUDzKhVJUXi9/fzVfyqsb5LcuFUp9Q6Ns2lMhU0Yfszds3F0uf3tlv0wcniLXn5kTUAeelpYq06ZNVVsF6jTK7bf/SPkBFQjCABsxPHLllVfoaQq1Giq1b33rW6qSGzBggOzYsUMFBuovWbJY7rnnt7J8+XK5/fbbZNGiRSpIoMc+dOiQ8umll14mf//73+QnP7lTfvGLnyuA//znv9D62GF27typgsPhw/kqnADan366Qf7v/56wKpQQwJuqvQU8Qxx2m+pe0CEiAM6iYQEMHTpU0tLSVHIBfDE2lZWVSv/+/WXHjp0KtAA0UtXmzZv0aMqCREKur6+T5ctXSGZmphqQeAYPBRZNVla2tk3BwFleXibDh49QqYt6GLC2bdum7eO2iNqFPkybdlKHiy2cSfFiQsJ5v/vZrlChIFkD4HsLauRnN46VxAB6bfq1ZluZPPVOnpw9PVPmT+6jLof+CqCNqsyAN3WGDRsm+/fvk2HDhquxEQBHCsbGgnQM36B24Rk2a+YbQ/iYMWNajC7R5DwAACAASURBVNyjRo1Sg/auXbvkpJNO0r83bdqk/DB16tQWMB8+fLjyLoIEvIgRE16iD3yHKm7v3r1y6FCeTJ48Wfr06dvhlEUDX0RDH6wKpQepUDrianSYHTFVMHUsU/indFcAOG8+eLRWHl5SoK6D6Smt/bfdPdt+oFJSk0SuW5gjCe0AfUd8Y74HqJ9++mk94bVXOuKxYN8XTr2e3Qfv3Ql7Nj3C4YReBODekcFpyTJF8MzhlQ6cNyKFb9lXJc9/WCTF5XV+w+Ubm5pk/NAUuXhOP8nqExjkQ+EJ5hspmdOWBfCOKRcN68MKW8Gv0Y5n1KkRERVKsC/3sl40MGg09CGYReIlgJv35RfXydtrS2XD7krNg2LSnmSkxcu8E/vIzBPSJCUx1sspD6qtaJgT2wfvgSuoyW+nUm+ZEwvg4XKC6/loYIp2Abw5p0kkANxI4+RCIay+prZRMtLiZEBWgobRB9J5e0h+v01Fw5zYPlgA98ecXvCFBXAPEcSLCfGqO12lA7fqi45nLBr4Ihr6EMzpsGNqelMjGujhRR88B3C8PZDwurp0RAzvTTFtR9hRH7ygCZ4WeO10VLoCwPHI4CfQu7qCHuHQoaNnvfze0iL6pPCWwAUvJ9pPW6zX+PiENuvWC57wHMD37t0jr7/+epfnfu6uI7oPW0aUFXCjJFoV98iOSlcA+KZNGzXiMXB2v65NHdsRTbrr+2jhzejoR3Q4HDi80DX82a9flqZ6yMrKasWCUQngSN8kA+rqEh3MGVmGcNKhJrTykQ5E564AcObaSuDBcboXizW4N7Wr1Aq/CQ9aiIa12pXzwbolItj3QhMv+uC5BO7B/HaqCS+I0akXux6Khj6Y7nQFgHdEr2igh+1Ds6wZDajZzDB2TrybEwvgHaFQCN9HA2NaAPdRakUBcEUDX0RDH4LhzRCWW1hVo4EeXvTBAnhYbBB9YBHMIomUG6EvKb1g0HCnp3v74JjOu7cP3kl74c5FMLzp1Ts6aqe3zIkF8I5mOoTvo4EpglkkFsBDmFQPqkYDX3jVhw6uRw2KWl71JaiXBajUW/pgATwcLvB5NhqYwgJ49J2KooEvoqEPwfCmh8ux3aaigR5e9MECuIcc48WEeNUda8SMHtVBNPBFNPTBArj3woUFcK8QM0oSagWzSKwKxcNJD6KpaADPaOhDMLwZBDk9qRIN9PCiDxbAO2CHnpbSNphF4jWAE2lGBK5vgUFDoV9HK9PtR9se87vf6cUi6ahfbb9vktjYODVemh93HV+aBOsfHIiW5vn2xmq+C6Zu6OMN7YnIzElo2vnI9KHr6RARAOemEy514DIGQr/5u6qqsuUmeTNMbhAnHSgXNgAqXDDLZQ6hEpf2uRoLZ3nfwu1A3I3IHZqlpaXap0Dtw9w7dmzXm4G4/Zx669at0wsAzDMErvAu89v9vvb6TR8ZazBh8KGxgf/aXaFCgV6ffvqpXgLM5QazZs1qRVtoz6UJAwcOkFGjRgcVgBRo7NxAz3V65mIOLin2V8gTzq3x5jKRUHnJC9pz2/0777yjFyRPmTKl1bi5gOTjjz+Wk08+WS+T4Oah7du36Z2bRAby2cknz9b7N31Bn+vdiMJ1fwdfcaUc0bDnnHOO8i38yZry5U149oMPPtBLVPr27auXn3RH6Y458SdcdMfYg8WLYPsWEQDnFhMWNXdbciMPN5qwqE4//fSWfrH4uYWHG8XPP/8CvX18/foNytjV1VWSnJyiYABjAnrkfuaGexYwjMjz5tYWbmjhOwCy9Q3hTbqQYOoFCxbo5bVTpkzVDYWwdDYNI9Xwm/c8/PA/5YwzzpChQ4fJ4cOH5Pnnn5dvfONbUlNTrQuDC5oBD27/YTHRx8bGBr2mzVfaMhIog6aPgwYN0j7zrtraWn2fGUN1dbVeNUefzEbkr16wE9t6kbTOBOOVBE6fv/SlG/V+yeeee05vgc/NzdGNkhtwoB1zv2vXTvnOd27Wm5QAH+YUWpoxA3jcsFNRUa50ZPy0wXxSn7GQnoHLq+GhSZNOVNoxh/DCwIEDZevWLXrNGUIBzwJQ3MrDfJ1wwgl6Uw/fcasOPMTcpqWlK/2hO/8PGeLc8hRO4dq+Cy64QK9246pA7mXlUu3Dhw/LyJEj9N5NeLuoqFD55/LLr9Dr3zZsWC/333+//PjHd8iECROUPggz0IIxALZcAn7WWWdJZmY/pS80uPfe/9Ur5KAbqQ14htuDWEfQGxqzJliTtHnHHT/WqwahK58XFh6V0aPH6JqgDrSEHpEsFsAd6npBh4gBOHcIstMDWoA5zDZ8+DBltnfeeVcZcdu2rQrMNTW1Mn78OJVMYDqYiQXHQsvI6KvXYrEY9+3br/cico8hgM81WixCrsA6ePCgfob0z632gBR3JfL/xo2fyplnniUbNmxQpq2srNA2R45kETipTuknm8Dzzz+n4E3b7733ri68uXPnCiBDm4ADDM+GRJ9on/fSV47NBliys7P0Hk7q+AI4bXJJb2lpmV6m++qrr8mQIYOlsrJKNzykWfrCOLkPtKSkVDeVUEpXSOAAMdeakeMBwACYuDgYmpqNCHpBK26ZX7bsQ92s33//PZ2HSy65VB566CEZNGignHjiifLSSy8p2NHWyy+/LOnpfeTmm29Wafr111/TS7LZgLnoeuHCBQp+5B0HmNjsoGdpaYlMnz5D70nNyuqn/AXPsYkDUGwUACdSK2DFs9x4f9ppC+Tzn/982IuK9n7wg+/r5oIkzbVs99zzG/2bTZxxIx1zoqAv//Ef31WQBmjPP/8z8vjjj8vvf3+f8tU111wjL7zwvPTvP0Dv5YRnAOqdO3foBkF+De4KhU8nT54iEydOlKVLlyrPLVmyVO/w5P8jRwr0Cjk2RE5M559/vvIa/aFdvmdD2LJli/7+6le/5lclFgr/tVfXC+AKty+9pQ8RAvB8qaurV6kIINyw4VNdhEhA/fpl6mLivkIWDkAHMCMJIQ0g3UJcpBckqpkzZ+iFsjz/4YfLdAGMHj1KF+O4ceN1obAYuPWeoInExAT9HEDl+N7UhG42RiVo7uTkfSwgQJQj7tKlbyh4IKUBAq+++qr+70hxfeSDDz6U2bNPVnBGkkQFM3PmLJWKqMMdn0g8a9Z8omMbNGiwSnNsQJ/5zPkqIfoCONIX/WdRIW1t27ZdJSfAZtiwobJ//wEFMupAk/r6Bv2fsQZbugLAoTn0AjAWLXqlZczc1M6t8rfeeqvOHXdUcgM896C+9dZbKn1yNyUS+i9/+UtVI4wYMVKeffZZBSRul2fTZdzf+c63VTIGwLkR/swzz5RTTpkjZ599lrz++mJ58cUX5P3335ebbrpJVXCLFy+RGTOmq9AAODIP999/n4I18wRIpaSkKrhXVFTpnamozD772c96kkWTDfwf/3hQwZlNCH5uaGiUq6++Wk93CChcooxqjj5cdtnlyncANgDO5d7QBH5EWLnvvvvkgQce0AvA/+//HpfPfvZzsnr1KpXCL774IqUndALcAWd4l3H+61//kh/+8DalDXd4cukza+6Xv7xbLrroItm4cZPWRZBiw+FSZ9YL6sZvfevbYW9kFsA7XqlebCIRAvACBc6KikpdiLNnn6LHZqQMQB1gM/rmfv36KTOuXPlRC3Clp6fJxx+vUdCaPv0k2b17j0qogCn6VI54FRUVCtRGmgEMkXiRxs877zxduFyEy1GR+h999JHk5vYXbj3n/0OHDqvkhySCxMilyEi9S5Ys0Utu0bci4Sxe/HrLJcoA+IABA7UPjAWJD/UJAFRcXCKpqSlSVVWtQICKBEmaDYf3GRUKC9xcissEIg0WFRVrP3mGcR44cFAXPuoHABypCwACFIItXQHggM5jjz2m46bQZ04qfM7mi+SLdMfGzfyfffbZ8uSTT+rJDHoAunfffbdMmDBRN+jly5fJbbfdrhv7O++8rRsDkjH0XbPmYz25oUqYPXu2/O1vf9Wb6ZlXNjrmgc2SDYPTCm1ceOFFyie0m5OTqwAPWMN7GzdulMGDB+mmyXczZ84MlrTt1kMQeeihf6jNhUK76J0RBuB1wBy+ZvMHcNk4kNpJAPfzn/9CbrnlFlUXUebNm6frgnUELQsK8mXhwtNV5QIfz5p1sraNDh0pHmkaKRt6cIpFiOJEx3vz8w/r3/DejBkzFaARNBB0oC80wP5D/6+66mpPaBGokdCAKzTjZLAdD60PwbYaWj0v+hARADfpRQErDFksRBYXagsAaeLESTpSQBDm5YeFBFMbIx/1AWdAle8AQaMXLSkp1mdI02j044AfqhGy9XGkN7mqzZ2JPGv0zUjNHPeRvlJT01r0hLTJIoehWQC8nz47C6xWFz6LAF0tx3v6BXAwXm4nNzpr6tMvo+PmvTxvMpIxbsbAmPgM6Z5nWEx8Rl36DRCiEkhKcoyf6HWDLV0B4PQFOgGS9Be6sXFCF+YAupjc8NCMz8rLK1p0/dAXcKdAV+jCCceoqqAJn0NX2uRdjIvnoA11+RzpE2me76677rOqDuPd1IOmZu7gD4QF2mOe6bOxfbS2nQRLZf/1eB88xrzRf0MTo/9PSEDlE9tiVDd2GPrEmDD4I3EbYyWfm7HQZ8bGM/SZ8XESctSNGUo7bEhs+swLz8Fj/G08UOAxxwZRpe8B4Fkv9JP+dnTPaHjU8Ub3G7E+RGa/8NvdqAVwf711pKMdqj+GebwuXhAj3D5FQx/MGLoKwNujWVfSA1CkIHW6S1f2wRuJM1wu9P98NNAhGN6MzOjbthoN9PCiDxGRwJ2FVKcSr9duc8bTw7dd44fs61PrO3WGaB3V6wwjtTchSOpI2uEUt1dLR+0cbwBuwbN9jvACLDriuWC/j4a+9JY+RATAOcZxMw/Wc1Qgzs0XnE2c45MBT0AXFQXHRgPIfIdnAYZO52ZzcyEuwREcpWv16Gn8xalv2uFIyRHQvMfNUOadPMsR0hyfzYbgDnBo3Ydj/dbeaP+cdx5zQXTe1NTknL/cYzR/4xHDUdWM07eOaduXRqYe7+KojJoimGIB3MxJZC/ZCHcugnneizrRAFhWAm89k17MSUQAHL03ngcY5ABidHPFxUWqEwTEMMYAzEjoGJtw0wOYAP5Dh/IUoDFWYSREn4j3Bc9hgME4CgjiNmU8TQB2DD1Gl+cYA4e06Fqpj3ELYxv9wSCEsY3PAf34+DjV/3FqwDMFIxCGRdrAwwV9ohPc06jeE/ST/qJbxDjFu+l3fHyi/s8mYlwdBw4cpIZVnsGrAC8INg82NvqJDpfjP7pZjEroRvEWwCOAcWM/MJ9TF8+BYIoFcAvgbj7xAiyC4btg6kRDX3pLHyIC4HiEAFoA7qmnzlE/YAIocBcEyEwEWnl5mUrg+PZSkDAx2iG54xMOQBLdhzcGoIpXCOAOqOJKxmcm+IDPcA0kyIPJwcLPOwFlDDiAJ+/KyzsogCoSLW5cAC3P4Q2CYXP9+nW60eDe9+mnG2TduvXyla/cpJ+hw8fvHADGp5ygFQJ6iLbDGwIXNzxI2JRwf6Qf+EWzGdE2gIwnCZsFfcELAiPTe++9pzRgo0NS53s2Dwx8/OA2yfsZEz7SwTCfBXAL4BbAA28nwayhYDajcOp40YeIADjWfiRcwAyXLvxWZ8yYoQAOWCLN0nnAurCwSH1eAT0+w+0MAAfoAV82AMASX+lLL71UfacJbhk/foL6YuM6xYaAJwKuf7gDEg3n9m7ZtGmzTJo0Uf1leQcS9QknjNUTAKoeXNqQ6PHyePzxx1Ryx7UNaX/z5s1y7bXX6TytWLFcgR8wpn28WPbu3ad+x9u379DNBve05cuXqysiQI/3Be1i7QecAWYMurwbOlCHYAtc8MaNO0FVRLiREVDB+AF6/NDxljlwYL8GGQUz8RbALYBbAO8ZAN46Tjq0LSEiAI6LF5IxeR8AH9QOAB8Ahr4bf2wABnAD5JGOkU6RrnkOwMMnFTXDtGknabi9UaugdqAd2kV1QcQd0W5I+bih4WOLxA3AEjCCaoKCugRALig4omCJLy0giXoCkEQq53v8dzkZEJBD/zlJEBrtbC5HtG36t26dk5cClUd9fZ1K0fgd4z525MhR/Q6VBxuWcXfDjY7nOVngRog7pfFRd04LtRpRyhhwt8PwSfARII96iNMBftHRBOBsqPTHGKzZnFAhsQEzVsbOb9RPzLFx5TRsyuecOGiD+cZV0Ki2oB/P8L+pY/zqg2XzYGgVbFvB1IPPCdKBBgTF4OpKgR5GKGFMxpZC/6AZYzUuk6Y+tCIALSGBFAtE+zap2s1dz4wPOvrz7jLuq06kcKz2xbHfYM9hTTht8hva+rPfYNehrrsY11H6aOxBxo5k2uN/41JLu/w465D0E24bkmNn4jO+My61vAOeMHSjf+Z5d1vGFkUb7v7TnuE32kDgMjfsuZ0ezDOmTb4zaTbcNDX9MHhi3IINDemfcaE268H9Hl/HCS94MyIATscchq1XadVIkqgLzCQYYgPiMDRMSgEQAFACZnjOEAWCAKj8BswMYXmeZ/r2zVBgBGT5jZETQGfSaBsgZfJNgi2+c/xuM+Tw4XxlHpM/A8ZBnYP+GWZ0JwYC7PHTdU4J9ara4J1sILyT9hkP76OPgDa0cCT/RN18+Nsk2DI+zoyLtmFYnqdNR82TpX3hVMM7g3XB7AoJ3AmI+VQ3STY0Tj8pKckarIKNgNwzhNCj+oHeBDb5JhwDuND3M9fMq/HLNr7ORGhiI8CGAX04tUDjYIsXiyTYd1GPOb700ks0Wpd5POWU2c15chyDPZGY8A0nT4J8oB8FwQX/9TlzTlVhBR4EqBEIaDM/v0Bpi4DB5yYfEM+y6ZFyAj43aw9eR5DieYJ0+Jw5gHczMjKV3vAW/ARtEUIQWhw/8mqdB+N7zv8EkvFO1ozJCYTQwXP0ydh14G/6zljhAeoSpMXJGvBkjp3x5Gv/eM7EPtBnJy7CyW4J3yCcsQadDSNJo3KhFXXolxNZnabrxeQSgh4U6OTky6lT91LaNIBqwJiNjMhcxgaN4DX6yTjBAyN0oS0Ay9AsYEtjvRL7wXiOHj2i9jrq0w40RtXKe5kTfrOR+0ZSe8GbEQHwUBjeq7qdJQbPOYbEhE5ny4MpYEbfDHBeja0z7XQFgBupiRMWtgUWEmokcpqQyAwVF7YENlhoxCImehaAMoEntMFi4XnUUYR5s0BRm6GGYnPgZMRiJQiMBRzKXIdStzN09n3GAPi3v/1ttQFxsnv11UWaZ+Wf//ynjg91ILTAZgKQsdiRtAGAM87AjnJAgRS6wVMm0RQnRvjUBJgBbDxDfYzbGNIJMOO9FGwqAA0bhkPnEj3JDBjQXzdZAJjnseM4SeNi9HlOrsZWxeeAH8Z9/ubk6kQa1+gJkpMyc8LpkQ0ANSZqQuxWbCoE1rEZsD7oO++ERqhMAXs2ZMCZzQlAZL4Af+xGpNNA0AFgoQXgCiCatcZnjJtNAB5kY8dmRNQpvMhJlr7CN6geAXkKAEu/eB7aEDXMSRvhibFjR0MAA7z54URlkurxvCNAxqlKFpsWdRGyEDbpA31h86It+J05RrhDIHRL4V7wZkQA3HSsPV/rYOqYxeE+FvlbZOY45sUCDKcNM6aO+hvsO8JppysAnPlFhcXiBmQAEMK0Ce/G5oH9AKkSyQOGfumlF+WCCy5sdWRn82Qxk6kPSZDwcMeLaZ3aJVgQzC9qNDYDI0GFQsNg63pRD8D84x//KF/+8pcVGJECARWyDSKNIv0CQAA4ib3eeutNTVdMviDoecUVVyggs4kBhHyGoZ12AQEAF4M96hQAwUSzQmfaRD2JlMiGB7gA8jwLyCAdmmRagCdgCmjhGWUyH1LPeH4ZWgN42ISYY8AVUATsAT42C+oBtNnZOfpugBEJmTkHAAFzABlAGzZsuH7H6QxJl03JqEUBeDzEnEjlEqUTNAO4kfLpI0IBdWgLidikl6Af5tTBhgBtODXQNv2Fpxi7cyqP035xqmUj42/6DS86/SzSOmyA8B+bFqCN2pPNFnpAZ+o79i3SapTq/xTeh9TNxkNf4WvjUea4VTslagHchPYyOLd/t7vTMArSAC5zbqAy+iyjs0NFQjY+Jo+d262voj3jIshua3Ro5ghmNhC33znPuPWP7o3ErQMz9cxnbmL71jPvM5OHHtvJ2eLoFN3F3ZdjfuTOzeVuH3MWG8c2Yy8IFVy6AsB5BxIXUgzABJMCWuQqgSZIHgALKhJ4Ag8a3wAsmJ9cJSwMvHmQumBypG+TUoD3sBlgK4l2AGeeHKm3odVC5TP4goWOWuBYLIFjm3HrpwEu/key9OU1w/N87o+3As27eZ/ha/dadOuV3UKXr27ZDMj9uT+J0t2e+33mne415SvImf9NG26+d699dx/c7wjUZ19M8KcDNzTy7f+xcQO6Dn74o7N7/boxgb8NP/QICRxgZrdGkqDDMCJSGgVpy0m0Q24RcpGk6s7lpF+N0Z0OfZKjK27UZ9lpnfwQjkEHHRSGQo4x7JgmtzZ6RcAEDxWSZuFrjjHR+IcDAhCSXZ/NBf3gli1b1XebYyKgSTZAdkzAFz92J1OiI03wGfoupB82FCQh+kP2NySApKTE5vwV5Puu0bQBgJiRKAA4Fi/Mg7TKGHgn7ogmXwbHUbxN6DvSGx46ndmpuwLADZi4JQo3ULgXI3UCga8xNLlPUr51Ay2ajja2ztCuozZD/T4a+gDydH9Ik3eSZ6hz4Fs/GubEiz5ERIXC8c/Ra+bJggWnKSACTHhVkGVw/vx5+hkpP9E3cVQhNzjHHo4dBP04x+6+6iXCbwAOCY42cUvkSIf0zkUCgDQbAGCO4QM93qhRI9XjhGMZnyPV4NeNFI8+jGMTAUW4//EZG4njuVKk0ZQANv1iE0Kvu2vXbj2+0Qfqk5uaIy7eMCtXrtL28dcGaPAgoe65556rWfUwyNI/jqpnn32ObljofNnNSZFKelF0gfSPjeu0005T7xM2BdQGnZnorgLw9hZSZ/od7sLsrQs1XLpEw1y4N/pwxxPu89FADy/6EFEAR/LEyEBaV1QBWHwJeMHAhV5p1arV6kONoQrp2KTMNLfr8Lm5bQdDBBGb/L9mzRqVZMeOPUEBHP0pGwSgTDtIrkjDSPIAMUCLYQNwRvqnLqBOm0jB6OzQdQHMbBCk6mQjIbc4G838+afJnj27ZefOXaoeAOgXL16s0jpujuh8OSaNHTtGXRvxokHCP3gwr9mzQnRsGOYwUqFOcDapVHnqqSf1AgpOKBhL6BMBSwA4vu0nnjg5ZLWB+3jsj9E5hdxyyw/kvvvu71TbwS4eLxg02HcFqtcdffBVMWAggweN6sCcRnyP063d/JwMjJxO4DffEwhGNeN6aJ4zKgYn/cSxO0qNJwunRX+qiXBpHOrz3TEnvXVjjwiAY0RwbqppaA6JJ1d2WvP1ULtUrZCami6Zmc5tO+TkxsUMSzz5tNEfE4rP8wA/kjCgh9oBYHQCcPYpUBOgU1ZWrnWQ2o0fOYuGdJlG2kYFQ3Qn7oYAPbpZFgD9ZHGgu0WdgZ6V/MoAKCoUJG8WUP/+ufoO/mdxnHDCOAVqJ1R+r6pgMJQA1GwAqG04YZx66qmqhmFjQFWCWoX3YKnGEAOIo47hXXl5h9Qaj84YKzmLnvY6U6wE3j3HdQCSuyuNOyk8i5qOUxwCDAID6jWMb5wsqQcYO94T+c03Po1WHuGUhoDA35xQsTOgUsSYBs/zN4FsnHYRejDacfKjfdR9ju61XnXvxkUWYyCCCjwX0dJOWlYL4N7xZkQAvCPGMM7/RmJw603Ns26DgPnMGAYAQ/TSgKfRlbqZAkORMYah7zbMaiQefwzkz5CD2gbpHCA1BtL22vA3Dt++u8cXSFL2N/aOaBqKhGEl8FCpGXx9wJFbcOA5gBlBwnhHmNumcK9zAtMc1Rp8hqcJpz1Ok3hzmCAmhBTUgKjfEEgAYP5HIEEYYVNAmGFDwN/a8CynX3gWQQXwd+4cdS4aD+VikOBHHnxNC+A9HMCDn+rga/pjCmPd93EECb7RZo+VYBmupV44sbEh9S5wZSuBe7dIQpkSNl/c5kzUKacyABxJ2UQGOkFKBP0kqXSN/QVvK26JQlhwEr4VKMiPGTNWXfb4m9OiudgE3k5MTFZ7DadYk4kTSZu6zlV+GNtzWwLg6Ac/9BFpvbtKsOspkv3rLX3oUgncpEP1dSUzE4XUAXPDfKgr3DrCQJNpwub93aRtboSBuYNpK1yGiQamMGOwAN49AM5b3ac0o7s2p00zL+ZzJ8Q7rtUzvm24T23H9NzGpa0117q/Nyc8X9c61lewEb3hrgl/z0fDOuktfYgYgCMVoJtzwm3r1YhIJBg6ZgIOcKBHKsEFEGmjf25/OZh3UF3uMDDyHUzGs4A0beGuZ1zOkFjQJyKJoBt0osNqW5z80auj6zY+uahd0CezeaB7Riqnb15OpJdthbtwLIB3H4CHos4Kd56Dfb6n8Gaw4wm3XjTQw4s+RATAMbIA4MT/k5lv+PBhCsh4oBB1BhgDunhZ4PKHBwYGRnRzfIfEQBALeSHI7oefNmCMXvvcc89TvTTGGvR7uOlh6OEzLkPG+IcrIZGAeL9gxCSqj7bwAuFI62RDbNTjJa6LXhUvJqQr+mJ14F5R2X87Rro1uTeC5QvfACDf1n29W4Jt10jikR118K2H0u/gWw2tZm/pQ9gAjrG50UfJjBRN7mxc9vDaAMDnzp2nAApIE0aLhIyFnKQ/GFYAcyzrjo5O9IZ6EgHhooeFnR+8NC655BL1zUYviH813hz4TvNjPFTQAVIfQxKLiFBcEi0B6LgC4luNBZ+AGfI5eKVeiQamsCqUtiqF0JZ2eLUB4fvuu0/DtMkcicDiBmbDI/AlenLNfEeIe3KyPPLIv+XKK69qichlozWXGLMp4NHC2iIhFvxu9NhGRUjbbpdCyU8Q1QAAIABJREFU8z/87RsZShAd6wxBxixfTrAIQE5CJydjIMUY+GknkPozFKpFwzrpLX0IG8D97e74aptMYe+8864G3Bjgxp2QZDoAOK57GG0AWlyd8Nl2rjzjZvlsDWxBWob5AHnc8aZNm6bSvcl2RjIdJGlcp5Dq+U3ubSdHxFHN4IcPN+57uPuhZ8cFED9x3kk+B4Dfiwn1oo1QFkJ7da0KpftUKIDrPff8Rk4//fSWOAJyxpg1wSkTPvz8569XoH/jjTc0h8yiRa9o8iO+4zSJVwq56E0OfQCW/PV4rJAnBlDn5HnMsNmkfM//tMFpE88UjKKsNWPENCmN4XsMo9imUFvyDHXYcPgcGxJrEb9y6rKZcBIOt0TDOuktfYgIgDuZ4wo18hJdNwxE4Ao7OME56MDZ6R0DZJz6QsM4Jryd0HkAGyl+1KjRyoi0CQOh8oD46M1haKQE4wsL0COVIKHD3KSfREWDegajKAzK97huccEw73f6lGkBPNxV6ef53rJIQiUNvHrXXXdqhC28h/AAqC5ZskS++MUvysqVH2lAGOo9+Hfp0iUamPbMM89oMi+TXpUo5Ouu+6wKNRMnTlTgZr2QjoJ0EQ7Qk0O9Qi8CYWMwd8KiXuR0ynP0B+mdtQQwkxiMDQLJHZdFTqIkmaJ91gIuizzvpFvOVEB3fNeHBH0na2eFi1Bp3dn6vYU3IwLgENXXX9pXf8cdx1WV+LXGtSSpam8y/OXCcL/DbeX3/RwJBmkC5jY5pzs78dHOmFaF0r0qFN4OKCM9IzQgJBhVBkDMSZTISIJ4EEgoCCj8ffQoaVzrVcrlGQCaEyoSMnzrXHbBpdpOvmwAmPXjeG7VqbBk1h6SOGANz1PX+JUj5JjgNSfTX0KLcET71HXyauOG6Nxba/LZGweDcNdObwHPaKCDdwDezb7PHTGFSZTklb7b3+R11IdwJzyU560KpftUKL7zxFwYASOUOQzEY0aYCYWXg+XNY/08tqD9CUfhjCPYvoTzjo6e7S198A7AO6JYhL/vLRPiFZksgEcXgHs1r51tJxrWRzCnw86OL9TnooEeXvTBAnioM99OfS8mxKvuWADvHgBHKsY+w4nPGP46wxeExGPjQXViVCDYiVBzGKO7uR/TH8+g9qAuKhKTV5x65hozX+mdPpoAn1Ak+2D51dejhfeZyFR/Jxb6HyjYyLlQwoko9S3mHoGO+uWeE9/TEW1AC2hn2osETYLji3aSyqDkqq6uCTtNcHAd6Yik4X1v+9CafhbAuwfA0RnfffcvNE0yxvKRI0epMR9PKbyecB00962au1NN+Lu5Lg3gJfCN1Mtz556qOU/wNkGPTRvou8moSX2MjIA8wOzcjZmhunH07QaAjMoFUHK8tTJUX24uEscLDK8ugt3Mva5sDjxnPMP4n7/NjTb85t2MhQ3CAB66d75zLvdtUm8znAxI1GWuHOMZxoD7Ivp2Pjd6edrEyYFLXBgXtGEzw1jLeMjHT6I5c9m1uSCaPDHGBmAAng3A/O1c6RavmwL1eCf2Cef2HHLy5+pv3kUd6jOXxnmC95sNx9gXmA+8dDAgQwOe5Rl+zAXpxsbgvtzGy5OIBfDw9o1WT0fDJhIMc9hAHg8n3acpFv9VV12pEcdk0iQIjVuLLr74Ys2RwiIn9mDJksXqIkt0MNkKySv/xBNPatZCJ6vgLv3885//nLz00sua1RLQWbp0qbrh4l1CjAS5UgA1XGenTJmsG4ZjKC3TSGPAkqA3AAhA5jIU6lIA1REjhmsmTdxq6R/tAuTm0hIAHa8XgAj+pm/GqMpmYu6hxLgK6HJRM0ZZNhBAHGCkPePpZTzGaIt6GGwNSPKZCebDCMwNTfym4OZoNiKyNJqIbJMiF08cDLYAL3QHnGmXzQpvHjxw6DcGZMe3vl43JOpBV9wtGQ/9xQ2a/gLQzJdzcbFzgQzecyTII2MpcSiMk7HzLJ5BeMAxDsZl7oKlTd4DLY3hmjF5gRcWwD1cy15MiFfdsRJ490jgBsDvuOMOWbt2naZIBhDIA79mzceyYsUKOf/88+W1117TmAYkM4D6O9/5ttx8883qNojETtQyc0hdct5feOFFWveZZ57WqGLAZNmyZXLyybNVMgSYAA0Ajbz5eJEAGEjAABeSLmoHR7qsVADcs2evBhoZydGAJumMDagBcgAtJwLegyshYIZ3DJkWHQAniC5Do6fZnHjeeL9Qj9TQAL+THjpXVUyAMXEZXIQM6FLPeLngcpyfX6B3CZD7n82HsTlSvehzxJMYd0ukebI0ms3EcVsuVhUUz9FfNlSTstek8DX1oCUunc7FM0N0vqCdA+BluqkQkIi0zw//k7ufDZJNEMmeMeECiuumuZPTuVXM2ZSQ7tmE3IFQXuCFBXCvENOjHdWr7lgA7x4AB5jwuSYQzeTxYS4AC/ysP/6Ym9YzdbGbhY9LIYAJUCIxItUBFAAQ4AqYGJ0v4ACQA6ikqgBgiK1w7lAt1e8AaQAatQjHfaRn2qFt+uLmDUANYAFcjauhuQgYwAbAjfqG51HTAJy056gHqjSADnBlDHxHH1HVOKlwcUlsUEClb/wNsPEdYzSqE95Dv0wQEeNFWqUvxh2S9wGUfG500vxtdNYmsyObGeoZNgJoxHsc18gGrcsGRl+Rpk26A+MuySaEusvo7BkvfaVt6ANtzdwwTv42dKN/1GOs0AN68ZlRbfmzO4S73i2Ah0tB1/Ne7KhedccCePcAuL/5c88FCxuw8CIkPRReiQRvmjZDMfCZDSSUZ0IZp7tuewbNSNDDV33Z0Ri96ENEAJxdiM6x+3hdOF5iNGDncxd2QQjGO518yzEhp8x0jBKJnc6NEsqERHohWwCPTgD3ej0E214ovBlsm52tFw196S19iAiAcxSEQBz9ANJjgQdMeUyLa04gRb47UMF3lyeNLImuJkwYr4YWbVH1afsUfLmOzdHpOVdHmXJsN2zS+liife8HxNiDUcfps+Om5ORrjtUjGX0x4zGBQe7+mdzOzmdOIMSxZ4jQc/rLe4kO5UjJUS4SxQJ4zwJwwzu+vHDMZS62macCc4vhNXcNozfmM3OHZqAW3M/zt3l3Z08L6LSN7t39TiOF87szbSMgmrwu7nbpL+szUJtuwbKj9eHPTdHtCtkeDd040d7a9mITiQiAo5+jcySS4jdXTAFo3B7PfYHkX8DwkZSUrMYFDAcwGnkj0J2Rp4T7I7mhhDsiyctAJkKAmZzg1JkyZaq2TWZDwBA9Hbo4mNTcjzl69Gi1DqMHJDGWuZeTdniWLInkqTAFKzz1nTsw+6uBwrgU9euXKVOnTtM8FryLfC3oNTG0UN58801lVgwq9AO9F/d7Tp48SXWfhYVFOk6s8IwTZsLzgP/DuTGoDYM0B9B1xKD2UuNIbJuOMIHREN2tyTaIygRds3HbQ6dqhBt6AY+RpIqcQAbc4Fl02oAGfGY8NUjVjGAAj/OZuV4NgQUjHIZR2gOAMMaZXPq0C//Bo7TN/zxvBAj6Sx8xNmI05N179+5t+R9whO9NYjmeg9f/P3vnASVVkfXxIuclRwVEQXKSKCJRQTKYEDCg35pzdg0Y1rwqq4u4rroGjBiQbA6gAiKSo+SkIpIkx+/8bnGHN2339Ovp6p7H7HvnwMx016u6lf5160bStNEWfeJ9+qVJmH/4YbqpU6duhiWHRldkjKZNmyo4gD7AWor8Kso+ZbRoC0xAxq0yZmTLaiXCfoQhglYYRsaBsaFOlT8zDzBJequmTax2rLybpDGlDluX5M/IaMR8YElCGRSg1AGNGvSLdHjIzhlD2lErFvqORZGd+z2yr8m4hLyfz8qUKW2KFbOmkPocFQBOJ1kIDACdxqSHQD6zZs029evXk8HCLGf79h0SNRBA/Oabb0UBc9ZZZ8q7ACDAjZnSihXLJRcmZj8MxoQJE8zAgQMkVC25Adu2bSvKCxYA9qJMFMF5TjvtNKlz4cJFYluLqdHYsWNNz549M5Q6ZLSHA9fM8vZA2G2IqGg1+wdk7NevXyfATxsAPSZYxCpv1aq1mGJRT5cuXYS+d955WzT9xCwfPfpDmdQePXpIzHLMwax5lXswCQE8ZzhwgG3SpK9lfcAoAC6EMe7Zs5esZUz+UNgBJLqZATzAlrVGxE32AGseMMXiAnDFygNzvMqVKwmIsX4AdtYOt8558+YLSBClEEDlRorJIOVYC6x3e6AcEOsTaChXrqz59dcNAuQAP0GtoJty0I6lBesbcCpRAjPEvAK2Gu1w0aKFYjrHvoJ2AEwTpQDEy5Ytk3cJ34wpIgCtwegwrdT4LigmGzSoL/sbpgt6GSvwAEaJetlXBAcjEBf0MXbWlhvlbCkBUhWdUi+HGePHAQADyENESGinD4w5FiPkKQVkacNa8RSQw3T/fpsgxkZBXSOATJ9IBoMlDvXahOw7RWmJ+aTOCeBPfZRBoQou0SZMG0ysHlKBBnBORz2ROIkZAAYes6ZGjRpKZ4nAhjgEAAfgAT6ys/OTwTvllLbmt982mJ9+WiqAjeMVi+/YY4+R+N6Y/xCK87TTTpfErXC5p556qhwScC6ahYe2WETYfvIZ7WMlMH78eNOpUyc5bZk4FgkLiAlhQ/EZGeZxqGjatKlZsGC+gDGHBQuXCeFggS5scmmDDQjnTixzxoBTv3r142ShfP/9NAFwkk0grqGvugldQ7gTAM/aCSwuyS4WaNxG4hRINw0Ag5rXsQ6sFcVOOcAJ6cqa4R8maGotwvrj1goHbkG6sliyAEwaepbogYAKQAD4AmTWkiK/ACOAxf6iXgB8w6+/mjyHRXWMAeCkJoTcDDVqoTqswJ3DTPET4AHUWaM21riRWP2AOBYz9EktTXAoAoAtJ4/Y5aDsZ2uN84swOXDlcPTgAQAKPYCnOscwThwm3Mihk73L97wD00T/OMhq1aole5x9SR+pC3zA0oRyKoZiHCxHXEEOFPYYD9FNGWN7U94vwA2gQiPvwGAyRhr8jkOMz5gDe1O2sdOZL6+DE/RCG+aT9Ik69DDg9sC4Ug8PYxB4AGdyeSCaDnCSMmiYFOnppEb8VvRhTyeAm8HmBATw+Ewz2FsvqPzCGXCK60kO0MJlc/oysdhz2qhtpE7bLGEzWVS0ozJvuAomDMDmisXvTAjlOXFZvNZ0ardwHbTJwmZB0S4Lm1C19M+ezHmF61KnCvrKQmFB2zHYKzTq1QtTJTYBddpy7h8nAJ4kWekGz2jkppsGNidzqx54zDvrQ03mWKfQxHrjUVkrn/O7rmN1AlHzOq1T43WzRtXdHPDUWN4qPqFuru7ob9g3yqSwhinDO9ShIhwritkl4K17jvqtsj2vOP/wHv80jDN1qJmccuXKHVMv72oYAA4M7Sv9R8wAGPIZZaCFvqr8mj2n9u2Ww94uAM9+Ut0U+KC/q9iGummXclqXOv0wRmouSHuaeNor69f543v15FS9F31SE0L1PlUxFnjAPj/ytzV1tGaLu2TOeccbHsDF2kyJDFwJ05PGZsg+slgjlZT8TRm4CiaK2MRcf/bt2yvycBuPmGwhNlNIpIJB5ebeBaJt0K5Oijoy6EZX+1Fd9Kp8OHz5Fo6dd2n/iBLUKjOhDUDWRQKXz8EBtwFXrkpO6ta46Hpl1s2qCytJnIz6egjgh2cxFfKpBCcsOxs181pMsMEoxbNDQ/KtRq8hEVrUFBDul4PQ1ZMIDa7ajKzHBQ0pAfDsdthqkK2FSKKPi8FItM3I8spNBIGWEMCPbgBPdi2mAixc0RT0/eGqn/HqcTEOKQVwLxesndHPuM7AieoVEfGFTdeEp9iRrtu8fXDR9ueRejL/zefUx3VFr6deTjeSI/czeN53vBHKvNy4XuGQk6msTbl+703E254GUcvcHxU4W9PDZJ8QwHMOwBFdqNejriE1QeOnXqMzrwk773q1h3rWsooRNWgT+0ZlwLpGvA4rWod6KyonrzdC77rycvnetXqE67Vmszz6GYYBMFl62/XepqFNrVq0buWcvX+zvL3RBvlO3/XuLdsmt3MbfVAZJBWFatsqXtK+8b3XwkZFGXpbpj3+qTmi3oSP0HjEhFLFJ3ynY+gVqSSzT13s85QAOOIFDWaD/A35F9pYlZ9hBsVgotRBQYECY+7ceaIJJxIZsnJk14CiyskYbBSZPMjYMRlCvKIp1KiPhY3GH9MlfudQQDan0dFY1HyOfBG5HopMFWtQPxsGJQT0o7TRzUQdtId1ippgIb9GCcIhQcAi6G/durVMMgoUxDqqXOFdK+e32VBY1OrGq5HomEwVFSGj9zokZcchKgTwnAFwNvfEiRMlKJSa+rFej2TUySu6DxRlNrsOMnMrK4bxwMoKc1VACUUmSkOUhKxL1i/WGeiHWO+AnrqS8zv/sDxZtsyaE/K3yso1bohGBmRPsg7ZizaWCBH07N7SvJrqxm6VpSj6rZu8KvWgWcFTFYfqLg8jpjJqa/2C3BuRqAViK28no5AVi2KxAs38zp7iEMSAgPeQh6ObslELd4poE90CBgGURw+GAQHlaBO6UApjPKDu84QtYCwQw7CfKEMYAuTqtu9WNMv7iEEZc6WV74g6SN/Zw8yFWrLkSgCn8ygpCae5fv3Pssg0WTFaWCxR0DwzuGhv0TgzWCxsJn7LFoLvFDD7D+w3B/bb+AUsrgYNGkg5ymtYSxaMxm5gMAFLvqMsC7lChfJiGYJ2HsBFk86iwVKF5MbKrUPL5MmTJJM4iwmaWWDWosDGZOYQwrad+A8AMAuN92xEuUViRogVAe1zAK1bt17ew2qGRUa/69WzuQ3ZuGjUOcBoy8aQtpp0lKFsMMaMclYDnhhXHgJ4zgA465PclwBGzZq15CBfsuQnMUPFlI715k3wTXnAaPPmLWKdNHfuHNOsWXNhMphD1jegDvMACLOvKIe+SBXrrDHWFMBkI+dtFKsXDgnACQsVmALl/mFseEg2rh7MliPdJ2aFgOGSJYtFwQ5Yo9NRBSBgTD84oABMTGqxvdYbsHK1aifNgcKhQ+Q+ABAmjH3EwcFP1jsBrTAMaNSoUYYBAYwY46AGAzBb6Jiog32BHTggj0kfe6t27doyBjYGzCZRKKpVCfsUizfMIhkftVbRZNDsL6xZiIECLmHGyT4GSwB8DlqAngMPALd7+tik84MmuqejHRYp4cBZOBAHsGGBQmQxDOAZXMJdAriff/6ZACi24J999nlGuEsNkGMX+jGySNSbrEqVyjKQLEDqxW4UoGvRornZtu0PmUi4Zxt9rP7h6GJV5MTGXAirE+hgMbFA4G5U7AFQYidao8ZxZsqUqUI7Jz6nNFw+7zChTDILAKsTvgd82aiYMQLgWNLAOWDmyGbD5LBjxw5m+vQfZAF27tzpMJ375SdWLYQV5VBik/Cw2egX/WSx8JO/OYT8PiGA5wyAs45QaKtZGgczoAY4sTZY15jeAdRwtdhnA+DsEW5yHPJwgKwL1gTvst6w8YYbZd0CmKw7wNVykwSL2iqgwl4BhDB3BeBYo5ix8bCmoQEwY03RPlws5ahHbb7h8GFcOES4NUMLDm7qVUkbgD/rGXDWKIJ666UtTCGhm/b1psrvHF4AMIcMIAs3Szkbza+59Ik6aYsx43eYOpKT0x60Ml4YOsDFUxeGD/XrNxDgBh8oo+JTa0CBBUgRqZsx0ByktMs8aT85EG2I3epCsybmgEaN/Y01jpUGHCM3EjXH9LsvI0VY2XnP+44TAD+Ii7mnVk4vYvbCBRMWk4XFQsGWEw9KFiFl4GJPOqmpOO5wJWGhlCpVUgzf8cDEYccC+N7DDguVDhvaE07SOgVpJDYWmg3qboPn4zHJCY4pIMyrDRO55vCiLiw2m+3anSoTw0Fh5XC7zfvvfyC24bQJaMOVY/MNJ489uI2XDGd9SDYANrUsfA4UAJwFxyamLx9//JH0gashtvBMPA4+bAYWGDcDPE45yOCSONigA8cMEtwS45gH5wyVofqd8BDAcwbAadUrx+Vvlbmq7Fav63yn86rWTuospvJYNXvzyqv5TDldrUvb0PYj14vl9K0sWb/zypSVFq9MW3+nbjWp0/Wn64s1yx7ipuDtu8qLtZy3XW//vf3yypi1P5HWXyru8PbBO45eGvRd9htAz01CzRCVLq/+wEuzV87N52paSf06ltF0fH73p66LRMqnjQO3GTWsrTNAhhcZDwsIgEO8gCgCEOdKVKtWTQFC65FmOWMNxcg7OtjKAXAS2+wmhcXum+D3gLQ13LenLaendQrgfZv5g4UGF43oglMZTogTF45EJ49rGNyDxkDmegfnoBk8aNdyEpXlemcXbp4MW3L6SRlOdeqlf3DaHGK0oYHi7YFhFVJwAXAxuig51eGU8PCEY+GkT/QJATznADxyrlxclROd/yDSEAn+yfYpkfcjwTa3zIkTDjxyMFA0KKglMsjJlPUzIZQBmLlycTAg+vBqq5Np39WJmiwNfjYJfQ9jobga6fj1+Fmb8WtJrkQQaPCzNpPrpf+3gzAeLmhICYD7H0ZbMtmrSCR4ZlVf5JUsUVqzKp/shLgYBz+bJARwl7Mev65k10X8FuKXCAINftZm/J64KRGE8XBBQ0oBXG2k1W0ecUEk0YAJ5oQocFBAqFWITlN0UDsSpENsPCXWq/XU4u8vv/zSdOjQQcQl6r6uMjhEJuo6H61u72fxvo+2lLR/+q7mByTGivewQsuPmSEiJkRCKJpQHBHoS8cgmQkORSh2dpIZQzdQEdIQOY7hnLhbmykBcLTDmOUQAhbLCQ1aA0BhkoNSEDMoK68uLIGgyP0HwCMXR4GILTeKPVU+YAnCAwBTD/Xa7N0bxOqDpKXIwvHiJGhN7959REvNAUHoWkz60O5zWCDj5sBA3q0hNjGfwmwQ+TiKRWTfWJYgp4YW5N3IpjkUaIOAWChb0WwTmxyakPuj0MTkCVNEbM1RqGIXTthc6LURy0qJnTkacerEV4LQuVistGvX7nDsmEKiMPXGTkgEUEIAd7dJEhn3rA71ZOtJ5v0ggGbIgWeeQRdzkhIAh5sErDCPI+IfQAQQEgoTmTMMM4pOHpv1epnE5sYWFsUjSk7Ae+XKVRLuFXBECchBMH369IzM2DNm/GAuvPAisW5ZtGixKA15/913R5qLL75EwB1LDt5v0+YUsW1VLnjjRkwN64qtOPav1E/ccpLKYndLuNsmTRqLQpR2AFLKAM56MNAnzKlIvDp79ixz2WWXSyAuwB5rG8wpUXiizLUJWn8U5wIsa2zi16ISI/j442uY5ctXSJ8ph8kYzh1YxXjjlSeygUMADwHcu15cgEUi6y+rskGgJbfQkBIAh7PFxA5u9Msvv5KwqYA2nC+iBbhsbDmxtYSTxt4VEx9sWQF5TAMx38P0EAcIgA2rD8Bu6tQpYrsNiMLhd+/eXYAScGzYsKFwzm+++aY5//zz5RbAQYJCFU4bpwM4XwAbMyxscNXGGmP+7777TmJ1097XX38tMX6xhoFrxlsUc0PaxbIF6xJsUwHwTz/9ROo988wzhfMGwBGZ0D/NgI29Ow4QmCMB/MQlhxNHXIIylTb5B2evTkI4DvCdugAnsoFCAA8BPATw2DsmBHDP2EQOBqAIUAF+eD9h3gdoAdAAN2AJiFMG0Yh1LiBF2oHDhvoHBdA5CODe+QlnjewaBxq4YLhTHHRwX0eMgR02hwPu9YgsEEXwOdwvD23yOf8ARLhgzPQoz3dwyp988rGId2y4zYLiVAFN6u1JfzBPxAGBdxCnYA+uThennHKK9IsEEhoAHhEOBw4HFeaEjA10YrNuk0LYDNrqTYcTBSIfPsNmlUMPMVOiIB4CeAjgIYCHAO6L6YsEC68iDwBTyw84SusAk1+AXGOiqGsrjWnQdHUcUAN6NayHe7YKQkuahpiN5gABHUqLN1KgKD4PovS0AYT4DqBHFIIS0dJly/C9Og/oe/qZ93t1COCnOkx421YnDq+DRWRwHa1Xx0z7HOkY4mdSQgAPATwE8BDA/WBFrtH0A3rZAcsgKWf80BKaEfpa1s4K5ZbruqsBCcfDHXOREhm4q4lOpJ5wUWQerXRw4OgDEEWhiCasAToF5P7oCxBNQQOWOTZDUZEMAnkPUZaN5PgX38G6aIsHZbbfJ93rAhptdpniEoAKHQi5JvEY5oFBQGeDiE3DmPIZkQeJs8GDZZKK4CK5aMaZ8Az68C6iOURt3Og0bpBGsGSsbU5N6+oehCfdcxKtz7mFhhDAHa7oICyKdHLgANGrr75qbrzxRnPfffeagQMHiUkoSaY1UBE5S4ntQnAvdAWIkBYsWGA++miixJpB0dy9ew9R+mIyymEACAL4GiOaIEVFixYTCyRAD10D7xFyQUVjBB3jAEE5ze+aqo720JdQNh0PoSLeeutN07dvPwnY1qNHT/Piiy+YBx74uxxmAOmzzw4zAwYMkKiY6EfoA/qXuXPnShlyvBJHiDHQMLAcCkT2e+qpp8wVV1wpokMbba+A+dvf7jB33nmnlEcMyLi1aNFCFPjoYxirrl27Rs1ok2Ta02wNaRD2SW6hIQTwbC3B6C8FYVGkE8ARxfTvf64ZNmyYufnmmyU0MNwhNvY2TGleARGU0NjYo1/o3Pk0CXAGsF900UWS6BmTSqLJaQxmQMta8WwURTJcJEpfOFMOARJhE64VwMcKaPbs2cLxn3DC8fLe5MmTRdGNgvzbb78xTZo0NX369EmbqK9nzx7m1ltvlcON0K/ofeCoUVhjVTR+/Dihm/g/Z5zRVUxOUW5jzcThRjC1xYuXyG3mlltuMU899aQo2QnO9sIL/zHt23eQyHvXXHONWEKdeWZf89JL/xVHuJEj3xHQPuuss8Wcljg6mL8y1okqwh1ujUxVBWGf5BYaQgB3uEqDsCjSCeBc36+55moREwBMI0a8Zu666y7zz3/+07Rq1UrAG1FJ//7nSUTGq6++yrxUvg1EAAAgAElEQVT99jtiromZ6HXXXS9WSo8//phEZISrJGrjP/7xDzNkyBBzySWXmLfeekucoAgOBmD37t3b/Oc/L5iRI0eaUaM+kIOgZ89eEuWxfft28hNuFbECPgQ4bt14400Z4gqH0x21Km4IgwYNlKQMHDocVs8884y56qqrJFwqHDhc8tChQ8V568svv5Bx4OFWQv+JBz916lS5ifz1r5fK57fccqvcLm655Wbzr38NMw8//JB8hqluv359zcsvvyxmthMmTJByCxcuMK1bnyz9XrZsqRk06PwQwD0zFoS96oKGEMAd7mgXE+KKnHTIwKH1q6++FA7x6af/ZR588O/msssuMx988IFwvIQRAEARpxAmGAC+6aabJe464EsQfkQuADDXfGLF//jjDBHFXHrppeaGG64306ZNM6eddprY/FNfzZonmHfffdecf/4Fwmlj7kkseBygvvrqK3P66acJx47cF+4UEBw0aJCrYfVVz3vvvSfOX507dzYvvfSSef75/5ghQ+4xZ5zRTcQeOLdxoGEuSp/xPeD57LPPJE444YMRT8GxI2p54IEHxMeB6Jnjxo0T8H/ssUeFA8fTd/DgwWJOq1l/OOyIYjlr1izxn0C0goNayIEfmb4g7FUXNIQA7mtL+ivkYkL8tRS/VLoAnIwzM2fOEqcnHJgIQwBITZo0WYLeA6KIRhCHdOjQUUAE+3y8XVHaYe9PAH1kx1z9EbOggMOpCREIHCuxbQg7wN/0i/q/++5bEZfgHAVgITLB9h/uG+DCuxX5MPSpAjH+qLkpwaGB9y99o1+IlnD8wlsXfwf6j4iJzwBeBVbGCdBGDEVYBZS1HEyEnbBJSupJfXxGcpIaNWqIaGXWrJly2+F3OHLCRpAMAec2xgvvXwA9KE8Q9kluoSEEcIerOgiLIp0ilKyGTm3mtYyfSIuxysQKKkbdWHigDATgo7UVhDlRGiL74WdMXC3PIIyDn7Xpqr/x6gnCeLigIQTweDOdwPcuJiSB5rIsmi4OPCsi0jEe8UAwHTTEm7OQhswjFI6HHQ8X43AUA3hmAygXgxFvI8b7Pgg0+OFyQkeeeDPp9vsgrIsg0OBnbbod+di1BWE8XNBwFAN4Yqd6OuxdXUyIqwX8v8KBxxuvIMxJSENiezXenLr4PrfMyf8MgLuY9Hh1BGFR+OFynHLgWZyMbscje0ewWxrirYDo34c0hAAebWW4WBchgGdvT0Z9y8WEuCIn5MDdyRmTnZMgrIsg0OCHuSBGHUd1qp8gjIcLGjIAPHv8TbhJvAvNxYS4WrjpAnCNv4ETjo3IeCRSpDd6Y7wgYdCrbvEauVF/8l08ZWWsccuJOYkWITPRebWhkfNKZEv93RvJ0g8YHo1rM9Fxym75nFgXkbS6oCHkwLO7AqK852JCXJGTDgAHWL75ZrL5y19KHo7ieMiQ6YhYJWRDwmHnjDPOkIQduH7jCq5BlrSf2C/jrEPMc2Kmk3QDt3gcV3ASatGipQRqwsOQWOm4heNq7/dJ95zg+fi3v/1NYroQf4R+4BnpBWHKEHRKg1lBI6Cvn1GexCBffPGFufrqqyXQ1cSJE8XBhzR9q1atFk9X7MjJekX5eIdGuschq/kJAi25hYYQwP0igY9yQVgUfjgzVzJwAAdAxpEGsMGxpGnTJmbJkp/E2QYQIiEH4EzeTxxYyJhkY7rnzYizzvvkHyUOCCnySIOHMw4BqHCC4QHYydCEvXcieULTPSccLhdfPNj069dP+gO90E2fcGoiDv769evNKae0Fbd5vCtx0tmyZbM59dR2EgALD1WCfxEEi6BUeFvOmTNbXOOJlz98+HBz1113izPPhg2/iofnqFGjJGhYq1atD+d8zRy8K93jEAJ4fMBwMSchgMcfZ98lXEyI78biFEwHBw4JuHwT/Q+Pyd9+2yjeggAL3DScddu2bSUeCjlQ69atJ2IWIu4BwgSn4jAB0AA+4ob07t1LwrCSpYnv4brxUKxa9Vjh5BErAG5+n3TPCf245JKLzemndxGAJuuSzShVWlzdydjEocQY0Ee49PHjJ5gLLrhAwgjQR7w1AWNCEhCaYMyYMXL4AdQk/P7www/N1VdfYyZOnCC2xC1btpKbUIUKFeXGgzesRmP0c6D7HUtX5aLNSbpk30EaDxdrMwRwV6vSkWG+K3LSAeDEGyEYFeICZN8AL7lQ4SrhzOFAyUWK+zfgBTdKXA6lDbECcUuIJogLuH2sLLxs2XICWrjPA3Zw6bxHW4nEtnaxSRKZE2gnDgoxTjiYuH1AA67z3ErI6YrICc6a5N/EDSeBNa7uHHT0mf5xeDFuBQsWkByxfEcZUvzhKo+bPrFlmAPESsSc4VAkWiPv0673Sfc4hBx4/FXjYk5CAI8/zr5LuJgQ340FgAOHm0aMogpIAJm/NXkD4AKw799/QKgF1FXu6+WEiF/Cuxr7mu8AIGS7lFegB6AiZejxxitIcwKtyK3pA/9ihQjwHnB+6Y+n5PVbT7zxdPF9EGjJLTSEAO5iRSrvqIk6HdaZ3arSwYHHoy23bJJ4/Yz3fTgOmUcoHI/Dd00HeBECeLzdl8D3QViYXs42FumulJjxhiYI45GTNDDO3Ej0dhFvvCK/VyWx93NNnq2f6a0nUrFLv9WMU6MdQg//Im8xlOW2xMMtyGvy6b0N+KFf240sq4m+490U4rWhyciVRrXA0fe8fczKdFX7xU8Uw1g++Xli9c/Pu5FlXKzNEMCzM/Ix3nExIa7ICTlwd1xOducE2T0iE8AR+TXyfkCFELcABkCKbJyHULD8DYDyDsDET5JlAFpa9uef10vyDELW8hnfYcGCYheTTEROvEsaOVxi+KxMmTIi1kK5jAVQ1arVhA7apn7KY83CQ1II9BWW7j1m+/YdpmTJkmI9Y+3yjbTJPzIvkVWINvnH98RsR34PbbRJ+xxENiVcURG38R1jwvd6AKmOgCQYmiqO8fOWhZ4//rA5WHkYTxtKuIwcTNAA3SiNyXik+hY+U9NNRHO8pynpoIs2sRRiHJgHaKF/lOEfZXgPmhl3Ox4HpH7KZ/dxgRcpBXAmh0D9KLdQUukE+u2wOnb4Ka9yWHuiotNO/5NT7UbraQjgOQfgWOaw3gEONjiAgZIR4EGxiZKR34l5DmBTlnjp5P0kAQPvAyIkqmDPoKSkLurYunWLqVLlGFEWkygDJTHKUHJoYnoJILNvSGFHmF1MFLGjp80ZM2aIxRD25Fj2AFgAnZdrJU472YTmz58vYM930AVIAvLUWaRIYdnT27ZtlVRxKGGPOaaKWL6geKXPAB5t8jf9I0OScve0i3KaPsL9/v77JgFYynMY2f7ll7HiALBK60NS79at2+Qw5EDZt2+/jBUHCXoW1jz0otzVMWb8OFTwS8ASiHdQHG/evEXi0GMVpIANzfzO+BGLnQODcedQYw45mDhUmDsODvrFuGT3cYEXKQNwJp88fRMmjJdTFg7h+uuvk3RRfh4GjMwj559/vpikxXuYOHIAYr1ABpeceFxMiCu6QwDPOQCHUwNsAFbAgJjlcHQkagDIAGRAaMqU78RqhIQTS5YsFvAg+QIcK+uZ9wG2E088UUAIZogkGAAIwAn4VK+O89PPksABDtuaXFYVAAPkAMuSJUsJt4hjFeuiTp06AqyAJHuLzwBLQJLMR1jIYBlUooTNbQoIwnVygKiVC9Yy0IfNOjbu9AcAJ/kE9dF+6dJlzIIF8+WQwCeAw4UsRIAoNHC4qCUNyTm4XZCEg3IAJG2SDo4bB0DKWOIQhmkmXLGm7AMr6Ac/aRuaoRPLHcYO0KV9cqYyjuQJpV0OEehlLHGQwjqIfjEuZcuWMVu2bJW/mS/GlZsJdXI4YtNPHlN8HyItfvzuYRd4kRIAB7CxVX3uueHm/vvvl5OOvIAsiBtuuFGuIvPnz5NBxtyK6x6LgRMaTz6cP1jQt99+uySHxemBBcZG4HTG+4xn+fJlsiFq164jE/Dggw/KqXj55VdkXLP8DqaLci4mxAUd1BECeM4BuHcOAQC4OcCHbDtsfB7+tlY61qEJoFXgBjB5AHHABDBjb/A9YMFncNKUQ8TBT75XDlS9PgE9vlNZMPXo+4AcbUIbD2DIA9DDrQJWlFERAd/zHW1b2foh2XPK7Wqf+FvFKbQFzXwGKFuO+5DQAPcO4OsBATACpJbjLSbjAmhyECBG4W+tm++hXUUbVmS0J+M92gBceY9DQOXWzAUYhBhEraf4mz5BM+Oj46X6A/qlhwm/q/iIz6BN5y87+9YFXqQEwFl4Dz30kFy5nnvu34evNVtlwDklb7rpJjmVOQ27desuV7w77/ybpJfipOzVq7c4fpD/j9yKcCUkweXk/frrryXZLQv4o48+kmS4q1evEvdtyrPgrrjiSqkr3Y+LCXFFcwjgwQDweIepq/mOV8/Rsjbj9cPv95HKzcj3gjAeLmhIIYA/KJ55uP0ymEuX/iTXERw/Jk2aZF555RXz7rvvSW5D3I6feuop88orr5rXXx8hVx5iQJDQ9YknnhB5248//iiOIIB0kyZNBLQ7depkevToab7/fpqc8K+++ppcKS+99LIckYO7mBC/CzReuRDAQwD3rpGjZW3GW9euvg/CeLigISUAziCTdfzll/9rrr32elOxYgXz1ltviZwKoT9Zu//97+dFzAKw4yL8zDNPm7fffse88MILIicDwPv372/uuusuAW+uT3369BVRTPPmzUSGh+gEkH/llZcl0esnn3wiQH7NNdcmFPAoNy0K7UsI4DkP4LHmIB536F2PscwGufKraZ6fbPN+wCLSRE/pUHrVJNKKcLZniF+8a07pjWfCp+KeeHFtKKdBvrxOYHyu0RkjncP87Gc/4+GnnmTKuKAhZQCOuARuevTo0bLQkGtfddVVIi4ZMmSIaOBRGlx99VUiT3v66afNq6++KmCM/OqGG24w//d//yeAD+cNiKNxR/bUoUMHU6dOXTN8+LMiMyNexs033yIKU+JHXHrppaZ37z7JjG223nUxIdlqOMpLKQPwBOIOB2E8cpIG9gDrFbEeDAgyXv5GeYfyDwsKLCMwjaMs65xyan2FDHfatKkS5AoZdOHCRczu3TvFEgNGhcz17AmUcTyUoQ3q4uHGSznAFrkzP5H58miY2i1bt5iKFSrKd7SLDJjvkM8zduy/pUuXyh5D4Udf0DMRXKxMmbIiDwdAqR/LFWTqyIaRPVMn7QPSat0B6PI5bbDPwQPVESDztnJ9+x4/VVbP34hfkc3zudZBzBisdaiD76EDGXm8JyfXhR8mKx79+n3KAJwGNFa0KirUiJ/PWWwsUI0jTXmvkT+/88+e/vlEWcPi0bCZdpEfEABnUXII4LaNhpvvsuIA/A5OouWCsCj8LI7QkSfRmU2svCrkEAXCPSIy7NGjhyjiWcPYKf/66y9irqcWKjAkRGTEHpl1BGABkjt37jLFixeTeCjUR7Awbp8AHxEK0QGhyAe0TzyxlihJCZLF/jr++BoSGRLQgw4sPxBhUjcgB2Cii+J9VTLyOQYFWKQQ04YDgfYwHODA0LC/ak2CDTXmjFh7aAAya3mzTqw3OJAwccQCBmDnYEDhijUJFicAPX0BI9jL0IJFCgcdVjRYsqxcuVIAH0sbxpZyaiOP2SG6MSxwCOLF+FFfPK48CHvVBQ0pBfDEln1ypV0MRnIUuMkynSwNIYBnHsGcWBcqXuAnQEJQr5NOOsmsWbNGABDww/YZ8IThgBFRkzaNIwPoYgQAd8k7cMKANOCEOSHmsij8MWPjYMCSC3NEQBLOFu4eQEN/BDODwQBcPzTQBnVa08ZKhwHbjhs0Y4YIAMNply5dyixbtlzAGJAE0HlHzf80NDBmhCtXrhBQhhumHfoAU1WxYiU5BNSag3bVIoUDA7PII1ZoG8Ukkf5g2w3Ac+DxcAugb9RDn2gHehkTxqp8+QrSJw5JvWnE2k85sS4iaXFBQwjgrhAzV0YjTC7Ip4sFmuz05CQNKqbgag9oAnrcKAFP/gFEAI26twPQcKiAE8AG18w/DfIFZwvwAVwcDJQHrCgDcFEPAM7f3FQRodAO5VSMwt8qM9cbMG1SBhqVPjh4pYPvoR3xhr7DuPKZltGEFNBHG9BCnfRD5fWEwoVDVgDWW7KaBfK59sPajG+SNtVjU00M6Ysm9bDjuM0UKlRYxkJl5noQhgDuYwfl5Cbxw3H66IKTIkEYBz/jEYpQnEy370p0XfAzJ0R7EKoKT99Ep7BgVvtEv4uM4+KanCDsVRc0hBy4w5XhYkJckZMyJWYCBAZhPEIamDDylB5MYOZSWzScEzu+LsbhKABwf2YPLgYj2WUbBBpCDjzzLObknCBOQPyg3o+RHLiawanCHsrVDE/L8hOxBqIL/V29Ib1lEHkgivB+piChXH/kd14QUQ9DFU14y6oxAeUjlYNqeODti4poqANZNuINLafBqzRAl/fzWDJi9UjVufRGNszujSYn14WfPeoXi5wDOHIsFBjkQEzXk0Oxq6J0L7VBtAgkhAIpnoIm3ul+tIpQsiORz4mNSpuAGDJo5MAo8LCs4EE2C7AzByqvVRmwBkwClPheZd8kNcbngUBWKCyxDuE76kYeDhhivWGVhnkliw+WIQA/bSBPpk5kyNRLeejgd4AfRSH7FtkydO7YsV0CVPGuJuFYuHCh+HOQp9TKtPdLGWinPuq2h8ABUbBCB/UhJ4cum5wjr8RlmT59uryHslIBnL85mCivURZpg9gv1MO6p7/Ui2wcGqiXNlGsJvrkxLqIdUAlSru3vHMAJ44CUc/S/6QWPP30J9UHCZsWk6wj6cdiUxWKUNxdU/3MvbeMmhEC1IDSlClTBLQxxVO7ZixRsBrhJ4BH6Ii1a9eZ9u3bi701hzRAipng4sWLxYoFkF2xfJmpflwNCWTFHGM7rlHyAD/WCGDJw++aexSrFJR8BIyiboCU9wFxABDFJwcNDnG0z8GAZQcgS+hbmLICBfJLgmWrlC0sljSFChWUGwbWNNQvB8XOHaZM6TLyO1EWMYGEXhSSjAG5Uqkfyxo+p30OFA6axYsXSXvQgwUM3tzQS90AuIK6Ri+kz02bNk1Yt5AhaxeDyZx5XBwizgEcolwQluiQ5kSbqThR4/Xbe93OqmwI4DkH4ACchjGFC7dhUG0gJRtHu6QAKRYZlLNmdbvNokWLJUwEIA9YwRkDxnDJOMIB8nC9cKNw4gA6jjwAOG0CxhwetKeWKuo9SRvYfXMzhnOlbUwLqR8Pab5XUz7WDqZ9mOzxOTQCtBrMCvAEfLFLp39wxdBQqlRJs2nTZomvTcxx3qV96qEd6uQ9zBE5WPidg4Vy9IPPoJG+29CyWzJEQtDAuKioSK1ekO3jUERdiYhTcgteOAfweACUqu9zy4S4Gp8QwHMOwHUOvcyMilWsMpFofmSByZsx3YAPXC422F55siogbTIFyxx5f9cDXeebW2As8aW+fwToqM863Fmxm6VN5d+WN7WyUO968srU+c4rx+YQAYTVO/TwLEg7Siv9O9LGkRWv9dg+QseRdvW7TOKDPJZWHj/hBLzv5ha8CAHcFWI60iq7IicE8JwHcC+QR59Xfwp6F2siCIAVfzxc9NRfHUEYDxc0eAA8Oyqio2GT+JtQF6VcTIgLOiI5psg6j1YlZnbGJihzktN0KMeb03TEW5vZmePsvJNbxiHkwLMz+zHeCcKi8MPlhADuatKzZnqQEduci7tFzowYgN9ZJ5rFhc+Q66rCUdcQnyMWQE6N5QcJEJAzR2Z/Qb5MSjFipiBv1pRqCpQq7kAGjcIPWXHkOvW2GfleKtZ07Dr/t24kLsY2BHBXezkUofxpJF0s0GSnJydo0Aw7KBl5NE8jIErwJZSImIRCG8pNlI4o7UhnBtBr4hOUhhwCfDZ37hyxOEF+zLso9choRZoz4pSg4CTuCWaAKAYxvcNaCRpsYCjrZg8N2KZrGFcUhcQS0cw/HCblypUVSxDN6AOdHA4kVnFhs5ETcxK5jnILDSGAJ4sQnveDsChCDjzzhObEnGD2V6tWLbFhxiYbLpiAVnyGpQeADWdNZEEi7fEAmny2atVqCf6EzXTduvXMggXzJO0gdRLMifcJZlWjxvGHEw1vkJSFBHzCEoXgVhrPhPDKvKtBsDT0Mjbjaj+NRUjjxo3FMoTDhHc7deosOTE5DAj7DGgTDZQsVy7G00UdyW7b3EJDCODJroQQwGOOYG7ZJIkuEWsxYYQTRvQBN6w5JuHO4azhgrE4wW+C8sTcrlr1WPFa5DvAVgMyYdEB6MJRA/KY0yEqQRyCCAXgJqBThQoVxVQPaxY4ad6jbcCa8nDtK1asEJDmO+q3iZGriw04ZbFgadr0JIl0qAGusAjhMMIMEhoSMdeLNnb/q+siFbeAlAI4iwO5HVc3la1hv6oeWOq9hc1quCgShYmsy4dWKHZ8chIsvOZ23uS/kbckrymgKhu9s+tVQHr3iVd2zefqDq9u6t661HTP6+ZOG9Fc2b3vRZOPJ7tSE5uT1MjFE6Mh2R5Hf98FDSkDcE7zRx99VK5hf/3rX4Vr4B85LkmTxoIilyWJGEiRpoHskbVxxcSdFq4CjqVo0WIZISjV7ZjPoy3m1Ay1v1pdTIi/luKXCj6Ap2ZjpoLLiT/aWZc4SBTCZCtJ8v2jZW0m2U3frwdhPFzQkBIAB1jJQvLpp5+IW+6zzz4rGeSR93333Xdm2LBnzfPPPy8eW82aNTezZs2S4PM2kLx19W3T5mTJmYlMjywjZDBB4dKuXXvJXEJ+TK6lkdyM7xlMQUEXE+KKrOADuKueZv8mkh4KcvYWEKT9ESRagrBXXdCQEgDHowvuG9OouXPnmpNPbi0eXT179jR33HGHOffc/qI1tzkut5sRI0ZIsuL3339P5Hd4cl177bXmmWf+ZVq0aG7q1atvxo4dY4oVKy6fEzuBukMOPDYEhQCe8yKUELBSJzpI9vB1AZ5BoCElAI6ce8SI10yDBg1FGTN9+vcSlIdYCWPHjjU33HCjGTNmtABx5cpVzMSJEwTAP//8C7Nz5w4BezTua9euyYjohkaenHwlS/5FzJ7atm0rnLn7TXJ0OzT5GY/QDjzZrZfY+7kFLBLrdfaYC1dtxKsnt8xJSgAcW1eC2lSrVl3CSxKK0iZLXSuOCGi5Z86cKdp2ZOQAfrNmzcTRAI4dDXm1alXNlClTTYkSxSVp6aJFC0WG3qRJU4mShk0qsnI/gBVvMl19H4RF4Wc8QgB3NeP+6gnCuggCDX7Wpr8RTb5UEMbDBQ0pAXAdXq+GO1Kz7dXQewPVRP5OXdG04pFT6GIwkl0WQaDBzyYJATzZmU7s/SCsiyDQ4GdtJjay2S8dhPFwQUPKABwu+ffff5f4wXiMeR8sULBTxXzQ74NNLZx5tE7zmWTtyJcvI7Yvn8HhY9WC/Wui0cr80uUt52JCstNutHdCGbgdlSDMSUhD5hUajoe7tZkSAMf9FwcDrEpmz55l6tdvIEpHgBvTQBwJ1q/HgaCaACuxHgj8XrhwEXEu4DOAF1NCHuTikydPNp06dZLv8ubNL6KZvXv3mC1btprChQuZ1avXSMxkPt+27Q8JPo8jQv78BUyxYkXFDBFHh1Q+QViYfrickANP5Sr4c91BWBdBoMHP2kxmZhLRXgVhPFzQkBIAh/NdvnyZxFPAA0yD2W/Y8JvIwvH2mjt33uFsH3kzcgYC7gS7L168mNm//4DEgODBzRdgX7ZsqbgQ4wiEpxhmiTVrnmCoF+DmkECxSVwH7NBxTwbgORw4TPBY4zBJ1eNiQlzRFnLg7ricZOckCOsiCDSkGsATmacgjIcLGlIC4IhHsPFGYTlnzpyMDCKAcO3atQWcp06dKr/z4CaMZQnuurxHdhLSJKlb8dKlFsABbPIBUpYgPqScIhsHli48gDQZSeDSAW1iSmzevEnSPXFwUK5FixaJzHNCZV1MSEINZlE4BPAQwL3L42hZm67Wf7x6gjAeLmhICYAj/rDpmvaJ2ASuWLN0aIQ2LEqQjdtOHBJ7cJvPb5+IPgBvZN7UhcgF557t2/+QHHk8KDs18Ss/8czU5KyaXBXQB7zhxpGDU464D6l6XEyIK9pCAA8BPATw2LspCHvVBQ0pAXCGDbC0majziXkgfwPYADKP1xUeMEbswk+AntgpyL8BdH3UaoV6FLD5jjYox2caU0LDZSKqyZPHytM1vjLtpupxMSGuaAsBPATw1AB4IpLm6Ks5CPskt9CQMgB3BUS+6iF3Xo7llj5CYRAWhVJz1AB48niQ5RIJwpyENGSeonA83DEXuQPAQ3OxP4FYTgH4wUPG7Nt/0Bw4aEy+vMYUyJ8nRwM5hWDhDix8MVM+Cv1PzImPWG0uxiEEcB8Lzm8RFxPit6145dIN4AcOHjLrf99nVm/YbTb9sd/s3X/IFC6Q15Qvmd8cV6mQKV/SmoSm+wnCnIQ0hBx4phE4DO4u1kUI4A4RxcWEuCInnQBOW1/N3mbmrNhpNv2xz+w/cKQXBQvkEfBuWbuYaVG7uDl4MH4PI/UUGsta38TKiDb9jHe8MqobQYeSqiceDalq11tvEGjwI95Lx1jQRhDGwwUNIYA7XDEuJsQVOekCcBTFo7/bZGYs3WEOHABUjSH+dfGi+c32nftNvrw2EnbB/HnNaU1Lmjb1i0uZWA8K6aeeejLDiYty/fr1y3DCwsb/tddeMx07dhRz0nhPtHEArK2yvIRZuXKVmTTpa3PVVVeLxVQqniCsiyDQEAK4+5tICOAOd+zRsklcemIuXbfbvPjRryZ/vjwmb548pnLZQqZby3KmdrWiZuqCrebLmZvNlu37BNSLFMprLu1WUcQqsR6cuBo1aiR5GjEj5bnkkv+TxL1YHBUqVNCcc8455s477zINGjTIsC5SiyfKY4rKgwUS3Dz9VXDmb8D7+uuvM+eff4H4DlvpiMYAACAASURBVBC3/rbbbpf6lRPXpL/6N3MLt66fJ7JsgrAugkBDCOAhgMfcN0FYoEGgwc8mcQXgcNJPj1pvNm8/YI6rVMQ0r13SND6hhAC1PoD3D4u2mdnL/jDrft9tGtUoas5pVzYmFw6A42x18cWXmDZt2gjwEiJhypQp5oMP3pcww4QkfvDBB8WbF9v/c88919x++23m8suvkPDDhCrGmeyEE04wAwYMlGQiM2f+aHbt2i3hGHDyeuONN0zDho1My5YtJfnI448/bkgCPGPGDGmzZ89ekkzk+ef/LaEe8AJu1aq1ufDCCxO+fgdhXQSBBj9rM5GDMZmyQRgPFzSkjANXjoVBVkIj815GK2M5p8QTULkYjGQWhLefydbj4v10iFB+37bfvPTRr2JxcnG3Y8wJVYpGJR1aZi39w7z+6XpTo1Ihc16HcqZwwSMg730JAIf7btKkiYRM2Lt3n3n88cfMeeedJ5+feuqpAt733HOPGTdunARLu+WWW0zXrl3MQw89bF599RV5j8zqH3/8kbnsssvNu+++KyKZWbNmSliGJ598ytxzz92mb9++Eivn6af/KWXuvfdeM2jQ+ZL1ffjw4eaFF140N954gxk4cJDE9nn99RFm6tRpwqkn8oRr0z3nmcj4RyubW+YkJQCOO/t7771nTjjheNOhQ0dZ+CRuOO200+QKyuDhFr98+XLZkGwuglXhgVmwYAHhdIoWLSL5Mv2e2rllQpJdmH7GyxUHvnD1LjPqu9/N7j2HzPFVipi2DUqbutWLmYIFjoDz9l0HzOyl28zv2/aZz2b8bqpWKGjOalvWVCgV3SoFAIcrvuKKK02HDu1lDcAJ8ztgPGDAANOvX19z6623Hgbwcubmm28x3bt3M/ff/4C57757Tf/+55mBAwcKgJNU5Omnnza1atWUbE+k9HvjjTfNdddday644EJZc//4x+Pm7bffNk89NVTytfIZbVDugQceMDfddJMEVKPNadO+DwE8yUUa7lU7gC7GISUAToKGhx9+WOKaDB061PTv319yWHbs2MGMHj3a1KxZU5I0jBw5UrL0nHnmmRJNkJCxRBhs3bq1GTXqQ9OwYUNTp04dCYbVqFFjkWfGelwMRpLr0smEJEtDOgF8ydrd5v1vfjc7dh8w1SoUNl1alDMrft5l2jcuLUrMdb/tNjOX/mEaHFdc5OAvjl9ralQqLABevlR0OTgAjmz7xBNPlIxNPADtmDFjhDMmmNlnn31qHn74ETNjxg8i8kA+/tVXX0mu1S+++EJypvI+7wDCl1xysYhSvv32G7NgwQIzcuS75sorr5AyiGT++9//Sv5VOHli8BBn5+effzGPPPKIGTLkHnPTTTcLgN98881m+vQfQgBPcpGGe/UoAHCusgSy4uo7ZsxY07hxI/Pzzz+LbNNy5JUNYWdPOqmZee+9d03Llq0k1gnRCEnBNmjQIDNhwgSRgx57bFUB8xDA/e+cdIhQ/th5wPx7/K9m6479pkblIua6M6ubbTv2m4+nbzRFi+QzBfLlNe0alTZ58xqzePUO89yYNabhcUXNgI7lROkZ7eE29tJLL2ZSFrZpc4opU6aM5EwtWbKUcMjc5hC1jRz5jhzyv/66wXTr1k3e++STj2WtqfXK559/LsBdr15dUWAiJmFtkqIP7h759kUXDTarVq2UNUfcHBSchICYPHmSadGipYRj+OKLz83gwRcnbK0SAlYoQkmVGCdlHPibb75pKlSoIBvsggsukA1FOFeUSF9//bWEmUXhVL9+ffPFF1/K5iLoFIGvFiyYL5wWIWLhxsuWLScbLaukDOEm8b9JXIlQUFW8OHGDWfHLblOxdEEz6PQqpkrZQgbLwV17DpqihfOZvfsPmmXrdorM+5/vrzZt65cwPVqWMh7p2J/Wttp5e79gfr3zz9/841BH6QiYq6UJ5TTYmepZ+CxaOf1e3s1jTN48VvyjdXkzRGkd/o9Rd5xWom1Glg/C/vBzO0y2n37fD8J4uKAhJQBOxMG5c+fI9RSwPvXUdiIeyZ8/n9jd5s2bRxRSM2fOMrt27RQQR1mFcogQtGS1RwyTL19+MfMiOFXIgftdmvFBwxWA09Ka3/aYlyZuMAcOHTLHlCts6h9X3FQoVdAUyJ/X7NpzwKzftEcsUJrWLGHmLf/DnN+5nClTIrYZYWK9jF/axSaJ30rWJdJPw5/9uNNPQ+wxCQItuYWGlAA4U6ecTeRPtddVzgZOBy7KO6CWe9ovCSH0iWeZklsmJFmw8MPluARw2pu/aqd5f/Ims2ffQRGNFCmUT+Kg7DtwSDhx5vgvxfKbgR3KiRIzK0ceV/33Mw6u24pVX7g2/d8OM926sEhL0STlljlJGYCnaNxjVptbJsTVuKVDBn4EJI1Z9/teM2bKJrP2tz0mT14bwEqkEnmMqVO1sOnTpowpUSR1oXxD8AzaLSBRDtxH9CdXm8ORBUiy5LjArJQBOGIPy0XnNQULFjL79u0VkzD+RtGEtQnnq8by1njefAeXbjlzyhYQEQqd1fjgvAtHTtIHlEsq27T12rJw9fyjXdopVKhQtuzLE5kkFxOSSHtZlU0ngEMH2w978NW/7RGZ+M49B03JovlNzSqFTEVMBlPFSsUZsCDMSUhD9jhwV3shWj25ZU5SAuB4wWHKhQwbSxMUkL/88osAMOZYOF+g4UfWjQnYihUrJOMOKdXIogMIIwsnq321alVFAQrwA9jUYRNE7De1ap1oZs+ebSpWrCDvYj2wbdtWU7RoMamDxBBbtmwWgC9duox45qXyCcKi8CM6cC1CiRxTSaxhDsmBnUXYk1RORUbdQZiTkIYQwFN1iKQEwMlxCfeMqSAebAsWLBSbW9yecdjBWadDhw7ml19+Fbdmnjp16pqVK1eYTZs2y98lS/7FrFmz1hxzTBWxWCEuBna9pUuXNm3bniq5LzkUeGrVqmXIm7lkyU+mc+fOAv543JEzE5DncMDOF3vz3B51Lp0ArpH8QvFF8MUXQThE/KzNtJzqOSBCiYyoST9dzIlzAGdT42VZuHAhAd2dO3eZWbNmSQJjHCSwKsHBB3BWcQpu04sXLxKlZYEC+QVkSUg8f/584cjhnAFxYloUKVLYtG/fwWDpsmTJYtOkSVOx6SWy3Nq168QRA04c214y0mPtgvhk9OgPTb9+ZybshJHIgnIxIYm0l9MiFOb1+++niQVR9Cen+W9Xo5lcPelU2samNJwL79ika07AhHLlykn0TH5mpiH5OXEO4BCIyAPZdLVq1cyyZcsksJByymSHX7p0qYhGcL5ATk0ZQBpuG+cKgB/bb8rhXIFNOMAPF33MMceIbfjq1asF3AlShOs1IpI5c2ab448/3hQtUtTMnjNHbgHUhShl4sSPTJ8+fZycekHmOP1wOa5EKBq9L9bBFYQDLQg0kPAvCE+6QCteX4MxJ2444Hh95XuYWhzUosWC8vN+VmVSAuA0CEeNOITwn1WrVhNZNW7SgO6JJ9YWb8vixYubmjVrmSlTvhPxCkrIKlWOEZtxlI/IvHG7R56O3BtvTezGiUJHXYhOvvzyS1O+fAWRjWN3Tllkr1WqVBbgXrZsuRwgbU9tm+GkIQOSAqV3UBZmvOuZKwCPt/iCMB4hDXaWgjAOfpiLeGvK1fdBGA8XNKQMwDVDvCXyiBcdf1trFGuWoJYpmJtRVDulduL8beuyZXm8GVngsvU9LWvrtcH51XsvVcH6XV+J0rFAQwB3Ncr+6nGxUf21FLtUEGgIATzz/LiYk5QBeLILLtH3XQxGom1Glg8CDX42yVEH4Elkrg/CnASJhhRcPBPeNkEaj4SJd/iCi3EIATxgE+KKnKwWx1EH4AkNSmaIcrFJEmo+SuGQBvecZzgndgRCAE92JXjeD8JGzZUceBJzFIQ5CWkIATzaEnaxLkIATwIcQhFK1oPnYoEmOz0hDXYEgzAOfpiLZOfb7/tBGA8XNIQA7nfGfZRzMSE+mvFV5H9XhBJye6ni9nwtPB+FgrBPcgsNIYD7WHB+iwRhUfjhcnK3DDwE8BDA4+/YIOxVFzSkBMDJmEL+werVq0tMkrVr15i6deul9BrnYjDiT3vwRQbpBnAcsTQQmTepgtIR7bN440zc+P37D8QrlvG9JnVQM1LeP3DAhrGNti4Srd83IYcL4s/AQ/uxaOB7deyIRqPXVNZv+5Ems96/tY3s1JtV+5H1MRfeZBouDhPXNENTbsGLlAD4unXrJC3WlVdeZTZu/E1yDj755JPi2o6bO5NMREE2PtEGSaWG5yWefYA/zj46wFmlUfMujtwyIX43a7xy6RCh0Mb9999nHnnkUTN//jwzZ85ciTejbS9cuFAClfXo0UM+U4DVn5F94HPmntyUl112mawHPGuzelhrI0a8Zq6++mrJ5jR16lTzyisvm+bNm0uaNDzgvIcacXJuu+0289BDD2XExfFm3fF6y8WiMyt6AOw77/ybeIqddNJJ0nfWvLcu/X3x4sXml19+ltAQXhrZFxMnTjQtW7aQkBLR3vWWh2YYpZdfftk0bNjAkIKOz8iKReiJvn37ZczJu++OFE9mnOsiD3vvgRJ5uET7Dm9r0tU1atTIVKlSReZr2LBh0qezzz7HNGvWLKONyPoi++Q90PQl1g5ZuZhjHPxw6vPzXry9EQJ4xAhFggXZdP75z6Hi/k4sFEAcL0ryEq5fv87cdtvt5oEH7pf8lwS2wsuSIFSbN28xs2fPMs2bt5CNx/ukYPPzhACeeZTSAeCA1dlnnyUxar799lszadIkAS029m+/bRQAIv4Nc9miRQszduxY+Tl37lxTvfpxQjARJ0m1RwwcIkr27t3LDB/+nBzyrBvCKJBhnqTFxLUhMNkPP0w369atl7AKK1Ysl1AM119/g9RHFvlTTz1VMkJ1797D7NixQyJeEt6BdUaMHpIVDx8+3MyePUeAr2/fvua7774127fvkBAPeBC3b99est6TZzORB/Dt2bOHZLCfNGmy5OWk3T17dounMECGdzA5Pvfs2WO+/vorOWxY8wRk27p1m6lR4zgzduw40717d6EbYCSWEEmdCQ7XqlVrOegI/kZdxNig3uHDnzVDhtwr/WVu+vXrK8nAoWX58uXyPkmfOTAAw02bfhevaGIJ6WEJWMJcwVgRgG7hwgVyGJGblr35xx/bJYPWmjWrJRjdokULTa9evU3dunXNHXfcLsHjyJ7F4c07q1evEgc82oN2+oPXNfOidG/cuFHGh9yjtE8y6z/+2CZjULRoEcEOuHBoJA3jscceYwoXLiK3fDyzO3WyAeyiP9Et33MLXqSEAwfAn3vuOdO5cydZkCSZJcgUG/C9994zXbt2lYXUqlUrWcQsxh9//FFc3lnkcOoAAxxVxYoVfe2f3DIhvjrro1A6AJw24Lg//vgIgCMu69Gjp3nhhRfMuef2lw1JPBt+f/HFFzNynxJmuHbtOmb58mWGYGaAMBv5wQcflJg1F154oQQs4/NLL73MPProI+b5558XkL/hhuslU/x///uSqV+/gXDS559/vmxy1hccIGtp4MBBkkn+oosukuz1FSqUNyef3EYyzV911dUC/lOmTDFPP/2MueyyS+VwAWg+/vgTuQXArd599z0JXbehpXv3bmbw4MFm+fIVknx5/Phxplq16hJ87YQTaprjjqtu4L7ZE6Qc3LFjp+natYvcUrt06SLgiwiJclOnTpN99NNPSyVyJzGDzjrrbAHADz8cJWLKV199VUCaMb///gcEGDl8PvjgfWGCAPxvvvnG9O7d27z11pvCMQP4APftt99hnn32WWGkSB5OiAvGm8OgY8dOApr79+8zp512urnvvnulPcZ84sQJUu7jjz82AwacZ+rVqy979oknnjLlypU1GzZsEBpKlSppiH9EKI0iRYoK+L799tvm8ssvN99//70A8Ykn1hIGADwgkimHDmuGccHTulix4mbz5k0C/mDHBx98IFhCtNMRI0aYYcOe/VOgqHhb5KjDixjObCkBcDYiV8A+fXoLGI8bN1YWDacy3BYLkE2PXJzFUaBAQeEmiF3CBHKCww2VL19eNref56ibED+dSqJMOgAcELjggvMlyiPADRdEDJw777zL3HXX3aZTp45yqyKSJPN93XXXC8cJ+ABQcIpwY8S0AQgA87vvvlvEJ1dccYVZtGiRiCAef/xx4eb4nBvddddday6//ArzzjvvCAhSBxsb4Bs27F8SwGz8+PECzNz0SK4NFwdXftJJzeQwuOmmmwScuBU8+OBDAuC0AXgQRA1RDNw8AdkSeQDwM87oaq688koBJThTAq9RDzcP/oZJgWGBEyZyJ/sF0cfQoUOFY0d+D6eJ+Ojbb78xp59+utC0cePv5uKLLxYQ5Z1Ro0bJjeG1114zzzzzjHnooYfNE088IQfZRRddKIBNyGXGGm71nHPOFsBDpDJjxg8Sr58bBu8TW6hSpcpyyACIgwdfJOPBmJJsvGfPXjKWDRo0kPkCRC+99FK5fXFQ0q+nnnpSDtjq1auZXbt2y80Dbpq6iV9EfKJTTjnF3HfffWbo0H+aF174j0QK5RYwefIk+Y4xKlWqtHxevnw5GTvqgHtHtzB48MXm9ttvM02bniS3NuaZ2xQi2ESe3IIXKQFwJh2g5vrDYkSuTVArrl9cp5lQNqIqexh4Fj6nLacuJzabC2UTAa38PMGdkJxxXk4HgDMvAPe8efNlrhs2bCRhfAFBAKpSpYoioqhcuYqIKLp06SpcFCABR8o6IQgZMd4Rr8FxEycekG/QoKFwqXBzAwYMMFOmTJWbGg/AzsYGCGk3T568IoPlsWKFZaZkyVLCCIwcOVJEBxwecOF2be7MUKojCmjWrLnI8FmfderUkXYff/wxM2bM2IS4b9pn3AldjKgHIAK4v/lmsoh7iNkDU0L9RN4kCBvgyP5grFatWi1iDWLjA1hwz4wLtwnEFgR544ZA3fSDMdC6eAfuuXXrk2XM4ewRA1EP3DCfcTOBJvrIzYiDj8Pt008/lXDMADgHR9u2bUVkRVswXexZ5OZE+9y27Q8ZVw4E/nFYaqx/DmYOBvY+9DCv/I0IBYAH0LlR8xk3IcJFcwOi78wXbQDgiOBI0oL8n5DFvMO4cjDR1rRpUwVXiLHEre7ZZ4cL85fIE1y8SKQXoSdmYqMVp3QQFoWSmC4Az2pIkh0P5OBwjIAMXGii9QEob7zxuohXuL77eWAk4OwRZUTGb/bzfqwyidLuty2vAjbeXPgt67rtyPp0LBhrRDuAO3OcyDNv3lxRoHLQszYSDVaXqvlIpA8uaEgJB04nOEU1RyXcNNwTCwhuwuazLCSDrlYCdAZ5OA/f8bABqQMuDS6FFGxwW9RF/fyDW1fOh3a0DspwYnujEsKF8I5+p7Rw9Y+X9d7PxLiYED/t+CmTGwCcfiZrQpYdM0bvuvEz1vHKBGFdBIGGaMxFdudXs0FlZaYZ70CLN2+p/t7FnKQMwJHtkRaNqxpiEK595LEERDUJMeBboUJFAU+UWlwR+Z3rExpuwJ1TmusRmnHAF6sFYohz1aMe6uME53fapDyLgis1BwHad96nfZRWyNsx6yKcLQcE1zuuesjZkn1cTEiyNETbJJF1ho48rkbZXz1BWBdBoMHP2vQ3osmXCsJ4uKAhJQAOF4wsEpBFjkZWeoAckEYJguJy5sxZoozhmgrAIl9DpgkgYyKGHBMFC3I2AJmyADRxwTFx+vXXX0yJEn8ROTlKEEAJ2RgAjeYbbT95M3kHcOYf7QPemDIig2/UqKGYu8Hdo5hJdkCTfT/5ZXmkhtzCgSc7JkGYk5CGzLMYjocdDxfjkBIAx+QH7pZkxj16dBfNNMotzIHgjNGso0hBq449LPKvJUuWCMeN3BMll+bLRFmBmRGG/BMmjDfdunUX8ycOCWxjJ036WrTqAD+JjKkfcyu04GT8sckk8okSCZEJKdg4NGrUqCHtoTThFoBJUrKPiwlJlgY/XE7IgbsaZX/1BGFdBIEGP2vT34gmXyoI4+GChpQAOGIODPMBVKwKAHDsOuGO0Zq3a9dO5ND8rgBOomO45X379ks2eZwpcGRArILoBSBH7AGQIwpB1IKTB+nYyFIPOAPicNiIWkaP+dD8pURJcdxAK47ZEW0hU0dxglkjHDsWCK6UVS4mJPmlGf90DwHc1Sj7qycI6yIINIQA7v4mkhIABzARfZQoUVwAmITDKBj5HUN+RCooJjFxAjwxZ8LUi+8BWDhyuOx69eqJGAZRCSZIcO0sRGxgMbfC0QdRCwcC4A0XX7p0KRGdwFVjfoTYBHqQhyPWwYwKeTr0YeoEp498XJWh/rZk9FJHyyZxCeDUZU1Gi4oYSw9RxkLHnQMVl2huV9HMQlkblEGZzM0KfQb1eR/VncT2uAvOnCCS49EbZbx1obFkNHZJpp7EcOCwZrf5/tRpbSvRBLq8F0uRH6st5oR9nMgTbyxi0e8VOXjpjEWblyZEtohdvU80OqIZ/Koxhgsjh8hxijcWfsY1mwCeeVVFIwTuGxtYNiT/UBQiVuF3G+xmv2xUbE9VE7116xZx20Umjs0soM6GBeAZSO9iwWYYe16AWieXiQK8MRmzdZB/0wYU4mDgHTaXpWW7gA3tIWpRG2M/gxarjIsJSab9eAtUv3cF4MwjdsLMDwcsNxzGl7HGDZ5QCVZhnNds2bJZ5pIblPdhPRDzggMWu190G8wzPgFsOg5WDljstK1+o5S04/fJiTlhDcKcoHdhLBgDxkfXJPuANYcNuPpMWOV9RblJshY5/HhXFf7MmVpywdSwlqmf9xhX9ocehJTTmEJ8rvvLrncj5RV8aYfvoQWbbt6jLSy+OGwpxxwxx9yS9QCmXW7MiB6VTurmd/5RD7TTFv1lDGiLfV2iRDG5lfM9bUMjc8w7jBsHH3PMe6wLtUKjz4wb9FFG+8waoW7KwZzB2EEf9PL89ttv4mWqlmuUo0/8pB7GDTr4xzzZW/xeoXXDhl/F4Un9DKhX54bf9V36SX+YP35n/e7day3loDnaAeBibWYTwDNvn2iEKPcVlaswRhSZeIglylEFGTxdTIhfYIpXLh1KTBYljjAsbrwCceBBt/DFF5/LTQcxFesAx63p06eLGEtNNtW8D4DA0WTnTnu4o5DmHXQmderUE7EZmxuPQoARrhN3cr9PTs0JnpPcLgGPbdu2yuHEZrcgs1c2tW54Dd6mLueMG+DF7ZFAb3wPkAFqeLbyEzd0FPuMD3UzD+h6EBkCjgArAIuSv1y58nKAst+YK73pMs44FK1YsVJAC2suwmDgbMUY0z6gCb3QULlyJbNhw0axEoNWHIkUuNRiDACDcSMGDm3jHIXz0hE8yCcemdycFXiZd7xOATusxvhc540xw2OX8bAxU+xhAl3QpLcXxoTDn9u+Mn0//7xexptwHhhTELcF5ylEvMpkENSLQwMdGW3RZ4tJh0RsS3uszaJFiwnAW/PnAyIZwKSZtQkjiWUc9XAQMhbMLXVZT9TiUmfkbcXF2kwZgPvdYK7KuRiMZGkJAg3ah3QAOG3t3bfHfD9tumxaFizgg5s1noNY9rBx4WqwDFLuDYDgc6yO2BSAHIpvyp1ySlsBGAI7EcMDrowNAcgD4NTpN0Kl3sySnddE36dP3EABHvqC0wl9YXz0pqcgCRDBmWNd9e2334mV1oIF8wVwABpuMYgLAWTAguBVhA/46KOJAuAAFuJAAJC2uKEAXI0bNzFTp04R8OCWC7CwJhhzPCARNRLmgvYIDgawMba0CfAjvgRkGX8AnD6pByZ10A/Anoe5VN8MaEDUyXd8Du0c3MwxN1+Ajb7gTQutasrLQcK80hc+hwYOQNpHpAq4M34cGnhjcoMGQKGX91h/tMnBwyHCofXzz9aEGQAmeBperXi3ckhAC4CNbo6+M1d6W6FtDjr6DdDTLmX5m3mivHqycvAB8rTL+oTrt7eIggLa6u/C7SoE8Cx2UhDAMwg0pBPA4f4IWIQLtJV/75PNxIJHHwHQ8DlgRWhRDZ3gDS0KgE2bNk3KwnmxgQE0NiYgwqbhc2JuNG3aRCyZ1NHLD7Dm1Jwoxwn9jAncISEFGA8OI8QVAA4AAJjAXfKouavK/PmO8WKc4DL5He5WXccZC8CFv6mDtgBA6uYzbjIo+5VbBVSoC5CjbcpwcPKe3gSgnTEHiAAnuHvCJCDiBLxU3MB3gBb1QIOKUKhbRRzQwlzSD+rjJ+X5jLGgT3ozUa4VDpuHw4BDS9eDgjn9hFYOJXxNuJUg8kB0ClDaMNX5pQ3ooD3Ak8OC/vMe/+C64aT5TNcm6w+aVK/D+NJHaNJ6mT/egTYVy2g/EPtaC7oCGdw/N46s9BV+1nGsMiEHnszoRbybU2ARrQvp4sDZlCqTZJMADnBOtM8G8m7QaHJANi0bhPKqJ2FTwHWpl51y6fSTTXM0ALh3TnJqXdAu4AiIJUODctiutkoytESjgfXCocHaiCWyjXzPNQ3e+vXQjndTdEFDCOCuVqUjw3xX5KQLwLOi18UCTXY8QhrsCAZhHPzcDpOdb7/vB2E8XNAQArjfGc+q3GH7IxcT4oKceBvWlRVKPFqDMB45QUNk0KicoME7N5HxYKAnlllcrO/iBcLKqk4/3G+09yM/yw7d3r3g7bOLOVF6vHV52/AzZvH2ULzvUwbgEO+VdfoZsHgdDrm9eNN55PuQA885zhMLkWbNThIrBsQXXO+ZD9Kb4ajGZ1z1CefAZ157eQ5XRERWAbhJLDjUTJDP1dQNGbUq3biyU0brUZEWZa1TnbXcQKH5009LTJkyZUUujNyXOjSPJSIr5Mw29tBe+QfdlCUbD7H5oR86aENNe/kd+TIiDDVPRHRDOWTNtAsNtKcmi9CrFiR8rnJmXcGI41C2opzld6twXCXKQhSFyLtpS9tAdGctQnaJDkBNGKERSx4Unow77apZkPZgDQAAIABJREFUpVqyIAenz3yPRQl+KtBkM0UVkDHx+onYJBf7RZeBHJ1yKGk1XSRzxrghT0enQR3ad9eitZQAOBNDcHdshBkwcvT1798/YxIZVAYewNaJxcmGuMQEZm/T5mRR+ISyTv+A7YfL0TKp5MC9zhB+Du3s99Dfm+mmgTU9ZsxoAR4UWVgrAChkA8L6AeDBSgMTOwK2sUdIyoCuwHoh7xALFEAFT2Wy8ujnAANWHZgNoqS09vL5JJsOjm8kqwBMADbCSZBhCMsWYqZjpUGSFEALACP+N2aFql+gburDDBGAxwxSgQcg4hDC+oPxRMeBSZ5VNuaRctBNu4AobVgw3GVq1jxB4g3xHX1Uyw6Uq9hmWyuPLYctNLCrPiBmeiiwMUdt0qSpKD+py5r07ZSsTsRL4mCgXehgvDBhRYGudud8ruCK2TIWO3zP5yhCsTzB+gk7b+aN3wFkchKULWvt0Jk/aw1jTTNRnqKopE+MnU2Nt1sOCGs/f0hyHzBHvGvNK/cfjr1eMZOM3sXaTBmA//3vf5dYJSwcFjBmQ+vWrZUB4HRESUVQf2KRMFBkMfnyy6+kg2oyRWB5v4+LwfDbVqxyQaDBj5wxlQDumsM4Gufku+++E+YDCwnWOskKAA1AT3O9Agg4OxEyAlM+BRZACjBlT6h9MiDPvsDCAmsW9o0CMeWwaAHs2W8AE0CMKSFmhgsXLhJAgQbleBlTOEO4XgALgFYPWjhRgBHLFOVeASu4S+ugkk/2JzkreR9ulb0MrQqc1A/Hyvfsf2gCSGkTIK1YoaJZuWqVtKOmd9iw0z91sMGMD7M/DkIOEwAWeuCQ8RXQDFCALUAMlw1oAuT0U5PCsCfpG5ZQKMkVZOHiAXR7i8kj1k1w+LSH2SF/M456M+An79If6FHbcACcuWBcOIzoH9ZYjL31AreOWRzmtO9VbLrAi5QCOOYzLBAmjmwoTAopkK6//nrzyiuvmJNPPlkmjKwpQ4YMMe+//77YopJfj1PvaHDYCBpghQCeGfJdbJJEDxHATM372NTqVar2xGomx8aHPv4GoAAfNjgbXcUuACcABDgCSiqCoJyGH1CTOn5SB3WqOEE9Oa04E8/kQxkmfuogpNwtdStQIxJQ0zr2qDduP3VDH5wlQKfet4gVADnqUMDVXAAK7oAlNtK0SR+oh37QBv3jPYCd9hC/8Bk/VVwCV8sBovXr99TF4aM3EMaAcQRAEVVRp3pJqqgWulWUQ/v8DWgzdxrKAdpI3UYmIm4G2JcrmDNetAutKjLm4FPOnLGgXkwccQSKdFp0sTajAniiScAiCYHwv//9ATmZ4L45GbnmccXByeP22283jz76qFwV6TBple6//37z/vsfyDWNaxwDefbZ5/jWnrsYjEQ3aiJii2TrTvT9UAaeczJwv+siuzqfWO/pnKvuKQjK1Gi0Rq5N/lZzx3jrXOXukYrDRPd/NAVkVnFVvO723j5xLuJy7xVPUrc3XWQqb+wp4cDpAMCsQX005gCd4hTEKw/3VjgCrpKcYnAh6gCgk8FJ7/dJdAL91ptIuSDQEHLgOc+B+wXwRNZWsmWPlrWZbD/9vh+E8XBBQ0oA3O8guiznYjCSpScINIQAHgwAVyckmJNk1kUsrtAm/Ubmul8YIPUSzIrbi+TQKRsroiBl6UM8ZxRvP6lPA1R5OdLIOrzjAd2IHPTWkFnkk+yOjP1+MnPiiioXNKQNwPXK4qrziXI5LAx7TUPjnDdbZMTrg4sJyRZhUV4KRSh2UHJiTpCRsta4haLLUYBFVgpgWjf4Q3IL1Wh1mh6Q2ypgZkMT7BUxJHJeZLLIYG1c/LyiIEN5SWx84nzgdq5KQNpW2Tn95x9/q3WI/YwInQXEuKBWrZoSCAuLEmutUVpoR/lIzBSsNOgD8mQ1x1MLEOrUSIbUi8wXpammLiSeio4BMmAr27dt0z+saoj3giKUceN7ZNC0Rz8ZB8bERbhn7zbJiXWRKGb5wYK0ALgN/bor4czTdCCzvMkubCaZCWbhoLGPx3VqUggWIhumXLmypnBhm2Q5miwtsk02F0oYUrFh+hQZqzpe+34mwnWZEMBzBsDhilHYA6ZEUAR8rK23VZABvOh5WL/YaGNLrNH6sOzQWC+qpGPvAKpYnmA5YZVuNjwy/wjFS+CwtWvXylpW+3AiIBK6F2sN1jzmuaoo5SDB9I06sV7BisOG/N0ibRFVkvUOuNK+rWettKemvQS0woIMcMaKBdC3IEsIhU1iXkfgKGLiUDff066NcGhjrxD2FZM8wJxYOVjbAO4cJjaH7Qo5pKCbulw+IYB7RjPaYHCCM7HYoLIo0cyz+LD5xA6WMJNYp2igG41hwATbxUJwnaIiR2exaE5NFhvmRSg6sYU944xuh8OR7pRFQ53Qw+apVKminOoaJhJ5O4tMwzsSiYzytMOChyPStjAD4qCgHsJoFi1aXNKxYfJlI5ntM6tX282BtQyLcs2atWJpw+LEjAubVupnM1SvXk1MrtL1hACeMwDOOiZ0ribJhskA9FjXKLwwXVPnDhgDAJz1xE+1SmGNwqVjJaK2xKwrTOGoA0sIQM1msNpnGjduLO/D+drY+zbsLLGxMXcjtC97CqBnv/EZ7/E5AAqQaixt9hsArs450M2jXD3lYMYAViIu2rCsGwVw1e6aPmO8gNECe5UxYc+xP7FuYT/QN3UWYhwYE3UO0lsDf9Nv6sfyJBbjlJ09FQJ4FgDOhBCAv3btOnJKw2FwVcM4H1D9+ONPTO3aJwo4cv0DlFUG9s03k8UWk7CROBSwYOB8ibfLu2PHjjP169eTMJEAMMmLWYS0sWrVajFb5KqJN1ybNm3MypWrpPzUqVNNgwYNpU02FPSdeeZZ4mGGxxdZfTD1Iccm73EAsRkIhfnpp9Bb28yZM1ecI1iIbCYb0a2IaKHZtGeccYY4a/B7r169xDGADcPCoy8swnQtnBDAcwbA9dao4hu9zenPWPOi6z/ymu/9HIYIRggg9sqNY9WpHof6vVcGrr/DbMyePVsAV5MzRNYHDSqbjgaWSqNXxOhty3tDjZR1R77jtaChzVQ96dqHWdHvgoaUiFA4OQEygshv2PCbACghQ+EcypQhdObvpnHjRubHH2cKICq3Qoe4RtlUaDZ0JZwtJzAgyYTisXnSSScJ1wwHoouU7wBmuHI4fbhiQBYwx/AfF2JAnrqon1jIuAZjvA+It2vXXg4LgL1WrRMzXJm5asIFNW/ePAPAWey8B7fOg3MF10D6wWHAhujXr59ceXE0sNxOSQHxaJMWI2tWUms3BPCcA/BUyDr1YFAwTXRxZLUeIoE+0boTLe+lJRVr3w89LsDTTztHJYBzRVLAXLt2nVytkEMTtJ2rIVwwAKxxh+G4cXYApJGZIVdDpIHcjroARa5jXC1/+OGHDFtxgtvzuXXNtwb4S5cuE/keckauePXrNxBOmQDwyNbYAFz/5syZLXGSAXnEHXDgNunyIvkcoOe6yvUSDzo+QyFDwgKulXDeuCaz+GkbkIf75+oKp2TzdHKF3SX04ZXHlTVdCycE8NwH4MkARrrWnR8ag0BLbqEhJRw4igg4b2silEe02KqBV88sBhBuHLAD0AFWysHFcpVTzyvKA+KAoA66BqRRTTyHgwayp01vQCDEHcjk4IbV+gR5HdlKbCyELaZYsaLm+ONPEDBWrT/t2rRJNigXYhAN9IPIhlycyPP4Do4eGST0aVB8DipuBdDCT/qv3mx+FnmyZUIADwE8UhyT7Jpy9X5uAc9kx8PFOKQEwLVjfjzNEHEAmnpFhDOPBXSRXk+JLNBIWhB7aMZ7TJiieU6J97HJbKkSOWlB8HaLtpBCAA8BPJH9kSwYJfK+C+BKpL1E90eydft938U4pBTA/XbERTkXg5EsHUGgQfsQAngI4EcngCcayCN7uzYIe9UFDSGAZ2/+o77lYkL8k5P1Qg8BPATwow/A0wPejEt692r0Xe2ChhDA/SNm3JIuJiRuIz4LhAAeAvjRB+A+F7eDYkHYqy5oCAHcwWLwI7Zw2IyvqkIAdwfgyfKFLjaqr0nPolAQaAjSPgnCeLigIQTwZHeG530XE+KKnBDA3QF4snMShHURBBpCAM+8klzMScoA3BuVTAn1epVF+yxyo3g7GM1TLWhXRBcTkixY+NkkYUYeV6Psr54grIsg0OBnbfob0eRLBWE8XNCQEgAHvHFJx4lGvR9xKce5hgfCf/nlZ7EVxzFGba29oI954YIFC8UjE7NC6sKRJ1Z4TReDkeyySJyGZC/nsSkOOfCQAw8agxMC+FHCgQOyDzxwvzn33P4St4EccsRCIZEq3pcElSpfvpzESalbt56AOB6YxA6xgaG2S/wTvlcnGsrx4FVJ+Etc1OvWrZsRZjJx8EwWrv/8fhBo8LNJXHLgecwhcyQhiRjOZzzpHI9YPgfppMHbd298kKxo8OMr4XelZlVXasYhe47wqaHF7yjlroM9JRy4Tan2d3PuuedKAKsff5wh2bEB5W7duplXX33V9OnT17z//numYcOGZuDAgeaOO+6QhKHECyFI1YABA8w333wr4SXxgiSxKhH98JAkZgkR0wgwpRHKwkXh/3R3BeAcup999qkE/iI+DKEITj21rcw5kRh58G7VoP+EM5g4caLp1au3IfFviRLFTcuWrQ4TfsjMnDlL5pZD3xs8iTAL1GdvatR3ICPRALFzKItXLoc/8XNYM5TjJ+uC95QOvGnJx3rOOWfLWnP9QMvQoU9KsDXCsJ52WmeJd+2NYaK0EC+I7PGtWrWWPuh44XX89ddfC2PDDTYymJRX/KjfsS/eeedtyUxPxMyXXnrR9O3bT+aFJzKIlN6EXR4gfscy3KvuDpGUAnijRg0l4NMvv/xqli79SdzNyYd5xx1/Mx07djCzZs0SN/cbb7zR3HrrreaGG24QoB4zZrS5554h5u2335KNins673bp0kU4eGKckBCZaIchgEffNukQoTAXgHe/fn3N2LFjJSk180fclyuvvEpCiU6ePMn07t1H4sQQX/qJJ54wd911t3n99dclLjvxb/B4JV4OMdoJpcC66Ny5k4jYiCfzxRdfmNNPP13i5/B7nz595PC3ia9rSpIOQBmP2ubNW0g0yWnTppq2bU8VD9t58+YJIPbta5kGboOPPvpYBrj5BR4/5Tgc+/XrY4YOfdqMHv2h6dr1DLNhw69m+fIV0j4B3r766ivTpElT6du4ceMFcGFslixZbObNm286dOgg40k/OaAINdG1a1eJ7U2sH8oSgpbYPF9++aVp1aqljNWIEa+Zm2++RYK9DRo00Dz44EMy7hxun37KQbtV5oLYPoR4JszE6tWrZAwJX5GuJwTwgAM43MSECRPMvHlzhVIyzcPtEFmwS5eusrCJ+Ee2ZgLd23gp+czkyZNNjx49hMsmUz0LGw4Ergx3ezg7uBM4FwJTtWlzsnA3yk2kawHGaicIC1NpSweA0xbz1qJFc4ksCdcH57tw4QIBz3Hjxpq2bdtKRu8LLrhAxF9PPPGPDACvUKG8GTdunOndu7cAFYkKiPoIV4/OA+6RtXLvvfeZhx9+yJx+eheJP0OMaMIDE753wYL5wiQQ5Kx9+w4SVMyC0glyyyMk8L33DpEb3YQJE0379u3MpEmTzT333J3tzExZrTMAvEuX04V+EjnAdJDI+7zzBpgPPxwldMEljxz5jtDHAbdv337h1En0feONN0mcHg6r446rLgcPN9lp076X/UMsfThrDk4OzIYNG5ihQ4eaxx//h3nmmafNQw89LOA+YMB55uGHH5F4P4RWZt8wHyef3EYONPRKHKCM/4svviQHaLqeIOyT3EJDSjhwexW0QaAsuMr/8pOB4ztvJmcFYA1rqe8fPOhJ95yxuuyVmMf7fW6ZEFebKJ0A3rJlCzNjxo/mpZdekPjuZHmpXLmKgC9iAEQJPXv2lNvT0KFPmY4dO0mM9Z49e5kRI0aYu+++23z44YeSfIMQvwDQyy//1/Tvf57UAagDQAQIK1mylIjduKURM56gZ506dTILFy4ydevWEXC/5ZZbBLxatmwpNzzA/+yzzzEffTRROHm40TvvvMuRN15mOTAA3qtXT/Pkk08Kd81tZNbsWaZRQ5T1eeXAgxEhAiZcLzHsiXx54om1zAsvvGg6duwo+iH6RpA0wiOfcsopZu7cecLJX3TRYEOyEWL5wCQxFs8995x55JFHzD/+8YR57LHHJJwyHDhlGY/vv58mQeOIvNmtW3dJ7sC42SQpW8ywYc+6Wna+6gn3asA5cF+z6LhQuCgyD2i6AJzDeNiwYebaa6+TRBaAL1wyHB0/0Xs0bNhILJCg6ccff5SbGRwgAA0IAVqIW8i5CPCTAQnRQOfOp0kceUCRQxtuEpEIsnM4U0QARLDkc2TbxHI/5phjzfjx48zVV18jQAdQUQdcOVwxXP+iRYulzVQ89PG554bLzZCQw4DvpEmTJCwxbcN0QAtPs2bNM/JAHn98DbkZcEjRL24OjBm3Ed4l5PLGjb9JghHGmDEh7vyyZUslEQlc/0cffSwHJWP01ltvZSQcIVY9oM4tlgOSGy4HGwcHYidi8qdz/6SzrSDfll2MQ8o48HibA+K1A/yMl/06Wn0ABAvQW1e8dlP5vYsJcUVfygHcYwGp5p+RbfK3fue1ylBTUFXAeW9e9F8Va2peahPlFspQ9PE5dagIx97q8koceLImcag0btxE1pSuDRSfNnGvfeL5FSQzDwCk0qZ9tDHrbR/4HbGgd91qXzVLvFeJq+UjM7bzvk3UXUDa85rY8jvfa73UoRE3vYpL/T6Z/ib6bhD2SW6hIWUAziZi0WCZwOZBZGJFJ1aUAseEUkUXMZyXPqqljxXOVTcsnE2nTh3FQsHGHsfywIpdaCu6CCbR5ea/fBAWhVKbcgD3ACFACbhEpsBSAKFoImPj9QvwP/pHLF4incgSqS8V2WkS6Xsi/U2kbBBo8LM2E+lTMmWDMB4uaEgJgMMVYCZWsGABkbfZXHsF5OqHnFO5AbTjFmgPCseEdhzOZM+evXLFJTsOWW+wTIDTJjHqjBk/iCyV7DbIB1u3biUKHpIcc23nfTLuLFny0//k1dDPJnFlRkhbyKIRnSDrRrkGl+e9WWEpwU0JywjlOgF85RAp7z18AVCcvrDUQHmn5VhTekujjP6thzk/hw8fLr4EWH4g/2ad8ZB6b926taLAU26V96lHmQWYDNbohAnjRUzh0irDxUZNBqwSPUCTbSve++F42BFyMQ4pAXA2DjJNZHj8ZPMiqwOwkVeSZoyNjSMOyk0eTLuQzyGXA8DJmoPpoXLm2IgD0GjQkYGuX/9zRsJgm+aMzDrFpV6UPWj40/24mBBXNKeDA0e0cfHFg83FF18iKfSwsEBBx9ygPONARnkGSDI3zCG3rjp16po1a1aLHFZ/R3bNrYw1g7ncSy+9JGZwHO5YatAWsmGsllSJCVBTDyZ55Ci9+eabxNoDpgBLD9acih1QstarV1fk4HDkKFqpD18CrDSgsVq1qmbMmLFiCcXnrp4grIsg0OCHuXA15vHqCcJ4uKAhZQCOrTb5KuGiGzduKpsJ5RUgzSZEy16nTm3RzGMPi4YccGdTV6pUWVzx2dQ26/sh+Qwl0Pjx42XTo8UnMTEae+yBEaPAhW/atFk4LzgoAMPFIMVbDEFamH5occWBA7hvvDFCzOAQV2EWWrVqVTEBffjhh80TTzwp9vp8/u6775rrr79BzP44yDXdXMWKlQRQ4bqxEMGG2wL4f81DDz0kNuLXXHOtKDbhkFkf7du3N2+++Ybp0aOnrKNrr71WbKXffPNN4dK5gc2c+aPUB/DzDmaK0EZW999/3yQ5SylDKr0ffpgu5q0zZswQWnr37iWJsF096VyDsWgOAg1+1uaf6M+es2fcqQvCeLigISUADkCwUbDjRWSC+IO/4a65qqLMQVmDEw7OG2y+qlWPlcTHKJr4HccHAJh8mPaanEfqwb2ed/QKzKZkE/M9sVKwn+UnXPixx1YNATzKUnYF4Mzt448/Zjp37mw+++xz06xZM3FGwank/vvvN7fffptp3bq1HKijRo0Su+XRo8eIGIy5IbQCNy0sL3DEgeOGi4erHjJkiDnrrLPMccfVMLfddqu55JJLzIoVK0TUhg31kCH3CsAPHjxYDgmcf956603ToEFD4caxfsF0EMuNrVu3iWgHc8RRoz6QG94pp7QRKw7sqj///HNz9tlnm2+//VbEPHiKJsOBWwUp+h7rXZnoRvUqfOMi0eEC8Twq/dIQrx4vPdHK+nk/Gi1+3vNTBvr86jH8jknkHPilI97cZbf9THOwe/eeaMbW8drO9H00QlSB5f3JSyrv1ArUooANBijztyrFolknqPWBLnLKeDXu/K2bJpWWBtEGyMWEJDTwWRROhwiFNrhVYaPMbQsX+Pvuu9f89a+Xiijkm28mywEMKONBiDchIMwBzk+8ErFLnjhxghzigwdfLN/BMWM+x++YAuKyD8eO81fNmjXFhLB7927ms88+M+3atc+Qu3/11Zdm48bfTdOmTeUGRh2YzyFywfEFpzAYA+qgLNw3Ih9EKNwAcTqCDhyDsuvYwvrD7rpEib/IzRD9DZ+RfxXGguTayOFxtedgQ5/DIaagwJjSf/7mc/7WPXREuZ8nI/k2n9E3TAQRW3n3lSpzuYWwvzhwocd7QHhDHfA5TBQ3GN1DOF+xH2G21JxT6YEhK1eu/OHQBXlEBMbtCvt1XX/6U/eyt58KttCOk5KKSyPf5R3KcFNH96VjpuIxL8bQR5g31g7+B/z0PswDujhufDoWWk/m+njL+rLoOPITjMIrHMbRq7RXmlVhbplOi0380yTtik/ZOdijbfeUcOAJg5CDa1IQwDMINOjYpwPAvWBBewAhN6SBAweJF2JWNOhGZsPjVo8zDmAa6x2/XE+kiVykZUystem3/nhrG6DkgOGQUNtzgI5wEGx+FKq1a58ooLhmzVoBXw4/QJtNzmHHIcKmBzwBIMAC7+P9+/eZatWqy2GDzTxxX+gf8nwOHcaOdjgYACoOMerkhmNd75eKBRiAzmECPdSJLT36gO3b/zCbN2+ROng4xNBhcJOmHd7j8AH4AGm+42bNu9yOudFAMx6kgJ/qO5hjHI/4jBsONNE/6ueWsmLFSrlt0wbfHziAnfoOYQgYH/rLGOLRzaHIDYvDAqOGnTt3yLuIZfmOw75SpYpy66Ic7zAulLeB9HbLeEITY16oUEGxoyfMA05olKH/KN45/ClTqlRJEbvRR8aAMtDPWEAvdFOW/uAcpWuYchyGGFvwHe16zaVd4EUwADzervDxvYvB8NFMlkWCQENOALi2qdyFgqbf8dAbl9/yicxTKurMqn36gscnoh8ssAgHgQUMnCN26ogIARr+we0CKAAu//QWAGgpt4dymJg/Fvhry6EA0KxcucIULFhIAFNNOLlhMAfoggAoAARw4lDhJoOLPsDNe4AftyOAf/78+aKn4F3KAlJly5YTIMUMGABq2rSJ+eGHGXIQ8A8wQq9Am7xD/xB9cXBQJwcOdHET4zPqRqwF7YAj4aQ5YNBzcRDoQVO8eDEBa/qFOIwxASgZK+oCKAFpFa0Ctohlq1atJgcNbfEdbXGDwXOXmx5jgQIbHQy3H9YFdNMPgN5asZUS8aw6mgHO3Dw4pAB6DkwOVGjh0IJO6GE8OKBoH/Eh1nccQIA2NwLa4GGsQgCPsXvSvVFDEUp8GP1fnBM4eayn8MQECLmJ8BNvSvWAhIMFQJXLA9wAcv7BsVEOwAGIrPPNIbN37z4BAOqiHN8BJoyx9bcoICCpoMP7WGYBYhwagAugzrvUybtEh0QxzO8AH2UBUoAXwIJbpx24fYCHMtwAAE3oB8AAONoFFBFd5M+fT/pOW3Cp9BWRgxWd5hGg54CiH4AfgcjgnqmfseNv2uVmAGDSPlww/eTQoxwAqk5LHEjQQdAuxoB2Kau3BcaO0NP0EWDF8IFytE1d9INDgrng9gMYc1gyXrRL/yynXkj+8R5jxAHDQ112DvYeFk1ZsQufqckq5ZVD94p1XeyPkAOPj0O+S7iYEN+NxSmYThFKLFKCMB45QYM3NKzXoxJaVDbKmHkdjry/e+WjqiPycm5ePRL1Rep6vH972482T5Htapkj79nDw4pa8glQ80TTL1la5NsMMQLlADDeBei1P3/Sb9nXMsVI8srqI4HPO46R/bLgji7Myq9VLq26Mj5TcOVd6OMfB1OkR7hXLu6VX+u4edeXdy4iZefed/3ckv3iQAjgfkfKR7mcAIvsgKcrK5R4QxKE8QhpsLMUhHFwCVzx1l6874MwHi5oCAE83kwn8L2LCUmguSyLhhx4cIArFpfmZ65jcchaZyxLq1gcfSR374cGb5loHH+0zyJvGJF1RAPzrLhqP3TGoiPyXb0Jeblkv/Xr7SPWvMSq5yBWKYejqLo8yFIC4HB46hGJjKlGjeMzvDCjXSUiLQc0/KyfQXU5GIm0F63s/yKAR7vmZgVYscZI10Cs+ryfJzJPicyJqwylyF/ZA8ia1VqCz9T6AqsQZKhc2ekXv2v/kLNqmADq4H2u+xqYS6/01I2cG5k3/yinYgrGR+XCfK5gSn0qN4cerZPvvb+ryIN2oYV3qIffqaNMmdIZDnjIr7Ve6kDWS92UxfQPmbIG8rI6gSKHZer5pc/I1VEIYr2hsnXatXqD4nJz0H5Cl9KkMnANq8DnOlZWkVvYY8KHvL2I1Emb0KNiFMaedo6Y/B0UWb2+r/4q0KCBw/gOxSb0es0wkZdbyx4bzIx2qBuZP+W0HZeYlRIAR2v9+usjRPONkw0xKAB0nDo0rCWmU1YLv0tsd1HeWM/NxTK4aO/RNmOOpVHUstq4iWzURAAgkbJBoMHP4nApQrGu8jbVGQo7PGFRKGFnq5bpb0nXAAAgAElEQVQFKMuYUywbWMTeB1pQIGEOhkUC9uHWeqCkKLBQSv1/e+8BJtdx3PvW5pwXu8g5ByKTIMAcQdKkRDFJpCXR1pWun2UrWJR9Zb0nK1iynmRT9pVlW362EqVrmZKYSTCLAUQgSIIAiUAARI672ITN+X2/Otu7s4vZnTMzPYODZZ/vW2B3pk+fOlXV/66urq4i5QKpFrgXQECH/F7JlgkDldPHFDABHBjMRCEAAGyG8Z4YKGzWsbnGxiThdhxAgw+AAjHkra3NUlJSqpEsvC8gYA49wVsTWmgKfZNegugSw0/AihQW8I02jCH6gB88E7mVlZVqlAn+bQ+00zWUkA1XABFwBbx5J2RLZS1AyoxJImSgibBH6CfKhkgRxjwno3lf5MjzTF88B2AzAE0bcIKCHLRjcoMGABe66Z97DZDyO+/I5/AX0CaMEN6Z3DfwgnQdfM4kwudEg7AxiRHMpMP/bOBy0Mu8L7KiLZulZoJEbvCC96b8HXsA/M3n8MVsHvMepPzleYA7ETz0y3ua6B4w7ryIQoHJJOQnlAiiOfpMjgl+v+uuu/QEHRVatm17WxWJY82chuNQBjMxjPrIRz4ir766Xu65557+smkOwP3C1sg+T1sAjjVDbhrAhNOVDGysKfKOABTkqGGgADgMDA7iDF2BMQgBGeKKGTSANIOBZGjEhdM3UQIMbkLP+B6g9wvMftv55+zILXmH9evX66TDQGbgY7GyoWbABJ0HtIh24PCNFxNdqAYLwEekBxEdxDCT45xoDHhARAf8IMqFcDzC3QjFg4dY4d7GoKhhBLBw8pQxxv3Q4R1wIVqkSvkHDcRhU2TcpOxl7JLSgr5Ih4FcTOw09JWUFOspWiYa8qxDI+2YWAkB5MDWhAnj9R6Kk/NupM8wMgZoAV/DG+hgwie8jwmL7wjrM7QxARCbbiYtDEGAnffmfTAWwQ3ekwnMi2YRfTanbDkgRBQOJ4S9nEkNCu5MoBgdTD7wnlw9TGSkhfBy9pzpXyEA/oRwIjf6516qRxljhMkFnnKADHqMFU4/vDe0MlbOGwDHiiImlJe+//4faPIpLGtmQMpG/du//ZvGS5JcCCWmoPH3v/99HeQIC+Fx1JmE96G7xQ7A/cNMsnzgKCYW1759+xS8UWKOzS9ZsliBiAGDBc6gI1f3pZdeqoMDWdPei0ro0lqQWEOczGT5T3k9TlAyKTz99NOqOwwMrMaZM73DGX4uv+389OW3DSsHQBVLziz1WYHw3gx6QMBMSqZPPsOqgx/GZcBEBmgDdsQpY5Ua9wKAbdwU8IbxBfhhrfPOADbPgv/0ye8m1zj0GTcD4MT3WL7cFxqhAQjzHvRr3CjQyzshTyxlvifWnLa8Lwdo8vJy9V25B3p5hmfB1vTX6IROnmX0gHfm+SZMj8mOgzO0MadYeRfohFcmi6WJRefZxk3Fc71DPi16L3ziexMu6fEQ10+P9gdf4IGhyTtM1K20EYpZUVGpOgkfTLijkSv/M2HyPRMVKywmCCML+oYGJiLjMvOzSvarawlxoSCon/3sp7oE5oQTmQF5QcCZjG8EzFM/kSLGP/7xv+uMh9V9xx13aCV6Xvgzn/m0/PCHP5SvfOWvlRmRrnMxUIfSFAQa/CiHLQucZ5EAipNqxPei7FhTGzZs1IGLxcNAJOcJS/UXX3xBbrzxpv6TbAxqBglZCxkkDFaz3H755Ze0kg/LUgYIvMXi4rg1z/DLa7/tIulXPN8ngwYmSSxKU+Q7aLoZuulqkx+A80gu1uE2Nm3SwERhJsRo9MQGDQkBcF6C5QizMeBr8pyYAwuPP/6YvjC5MR566GEtA8UM5R0uaNbZEEUM3eiJxBgbzIj0jEjfB4GGZAI4cmLpi/8T6wX5MRGzxDaHLczhECwRLKqhAIPlRhFkls8TJ06QvXv39ft6jQ+cI9W4arCWsEgD5QP3sfMZBL0IAg1+dDPSGLP1fRD4YYOGhAH4cIyGaDZmWNKwVGF5GJpgJ1YB2WBGrM8OkmL6ocWmBW4OScB/fsyufCgdXoTFQHa+oXwOPYJvDngYy8mEeiUjCiVe+Y+k83w31BoMZz2apTntQ0PVzOGd4cIGhz57aHszPiJZrCO9w3AHa4beMzTEDlq418g5mrFKX9zv15XqV4bR0hCq16H7OKYfo/vhVj4jfeeX3uHaJQXAh1vGxEt86P3RCMTmc4NGQ7IBfCReflBlwmrDhLQBmPg+cS95J/28o/FkRcRw4TMTAscqlI1/congesIvTA58Nhn52yTE8qIpvBOOPIcVCX/jM2eVAsDwu0kcZVa0GEv43jky7h0PJ5qnV+/hKDhpdukPuszxcXMMnERVixcv1ogZ2uGTZ9XE30Rb4Bumf3zPbOSx2uLdoY39MDYJWX1Bk/Flm+PuJjU0fUAH/fFcaOAz/Mrkjec+eMT7mFQCJjUAegjQm0yB8Iu9N3hnoqFMGCF9mkmBz7igC37TvwnjxI8P/bh/4REpBdh6oY2J6vEidHLU7UvtAlyFJvOgSYnA89jkDQfu3mc+lnHDDLSEAri3QdWtCfrZCTdZzmIBUBMnDMNRFHZ2QwHigwoWkay+cN/btMAdgA/mAHoK2DHIAWaiqsgrAgCxmUcUh8k8SDgb7bysfL2ayRH//gAg5GoUBZEqZ854gA4Q8AzavPPOdj1jYaoeEcJHUiU2j1nlkvDqggsW6z4UOUDYk6C6Efnbvbwo7WrlE2nCuDJVtNhr4BmAIBvNXlhcj5ap47MTJ07qUXVA1GzKQj+ragCUNoxP+mZCYl+DaBf2O4hCWbnywv7IFRNbTik8wJGoFi9z4vtKlwn/MzlaoJPJgQ1viogApPwOfUR54MLjvQiEMMnC+J19OeiBXhNfv3//+7J69RptB9/Yh8GNd+pUlU5itCMRGQDMpi17eNCG/My+HG1MpBRJtZggkaFXp7dLI2OgEdqYJGwbfAkBcAPaxgdudngRBoImzIgYWGZklNyE4yBgGFldTfpNksZ06qxG/DDhPiYfMGFUq1ZdrEz1Y3HGMmHEck8QJhE//HAAHot0/d1jwggBgtzcfAVgwuKoPgWAkKUOoGMsAMj8zlkIviOahxBJgAtQIpoBa9uAH+FwWHyAL5u7gKOJtjDx5sY9aXKE045nAWCcrdi6dauGFwKyPBNwIslTWlqGZvAjhJBwQZPEiXHI5ijWJ5vK7EtBN+9JO1YITCZ8DgDSrzHcADomDy+zIflJ0hT0seTZO8HSDj1oZHKRAJ7QDPAzIQCa/O8d4unU6lzwwIsl94CVlQTPwVo2pRv5njEJP+Et4X8AKjgDjbRFTkTEwYsFC+bLpk2blU/wk88AZNoyafAuJOpiMmFSgy6DZ8iCi8mD8yx87+V9z1I6eZehuclt4EVCABwhMXOhXISDrVixUmc5b3lHnuBGfTkAmZSRZjbjvgMH9isDiBu//fbb1JJAeGYJBTOIqyWm2Fngw4PKSMrhANwfGMfaCmMD/TYGBqAGwOCyMPmz0XVAEgDDQsdYATBMqBogBKDRB2Bs4rzNgR7+NgdijDvAK3rgJWXiPvoDNOjL9ANdXm3R1v6DRgAcbU0suHFfcC+fm0MtACtt+MwUqDb0mIIRvJOJCjEHh8zGtQmP5B35DgA1FjwgaUIDzSEueATwcXEvP/AKd4zhD4YgqwGewQQBD4w7BLwxtDLB8DwmRNoZNwfP9A4ZZeoBKiYlYvhx23hWO+Ucx+pEzMEf+iPQHKcHfMfFwrPhCzQxGdIP44935DKrseFdKLFqmkhCABzAJUYUBlI1hXhuZlSAl8+wSFBm/GcUpA0FcGY5ZlgqpngVXA7q6Tz8gjAVJjHTs9RSZvZdsc5msXufzmZ6rDTELj4H4JF4FwSZhG50mQ0+v5uRkd5v6JLcWNWJAItoaBmprdnwxoVE+tmhrgVbzxnaT+jmaji9MHHpZuJicoU2PyfBY6HZhm4mBMDxc+FfYrkHmBMGxsYHs5g51YXwiA/mYtlmDjBwFJtl5ZYtr8uaNZfoso5DHlgQvDD3U8iYULXQjQEbzIhFCEMHULx92LrfWeAeJ51eBIcP8RpbtsbGaNKLhAA4DDK5f/HfsTlhBpLZATYWCCep2Ixh9gOQyZeCn8lsWtKXCVXzfvf6Cu1zNAnElpI6AA8OcLlJZLBWO37Y082EAbhfIPLiQzULvIJyqFvEbx8OwM/mlANwe4MkGj1En/Fzez7rFI1G8IwRNgzT1W9tfL0YM/FEZkVDVxBAMyYL3EK93HB8CgI/bNBwzgE8GiUcqa0NZsRLS9w0+FFWP20iuA7cJma8kh7+flaemzZt0s054pDZBMOlWF5epptg6AibnPxNlBb5M+LWGx+vk4xn+CDDubVCmGRDJg7A/Wqdj3Y2BOLjMb6aOAv83FjgADhx4FjZBsDJokj+Hy4+J/oKa5xQNSJAiApJ9HW+6Gai+RDTKiBBRNmQiQNwi8KxIRBb5DgAPzcAzlNxk4SmBzCyMGF6Q1MHDK3DaEsHQvs5X3QzEe/uXCgRuBoE5XA0DBaSA/BzB+BDh4vTTf+66QA8Og44Czw6fo3YOggD1c8S0fnALQrdR1dB0Isg0OBHN32w00qTIPDDBg0OwK2oQ3CsPT+DxAG4RaH76MrGQPXxmFFhXMT7nn7vHy0ycQDuV+I+2gVBKYIA4OZ0axD44Wg4v4wLH8PMSpPRohcOwK2ow/k1SJwFblHoProaLWDh41V9NXH8sIcXDsB9qZy/RkFQzCBY4H5o8MfR+FsFQSaOhsFydPxwAH7WyHZK4X+QOAs8/okhmh6cbvrXzWj4Gk/b0SKT4FjgPk8YDie00SKQeJQy9F4XRmjPyolXJk43HYCH0yEbehEcAI9zlNhgRpwkJOVItF8aHYA7APc7ofvVKVvt3Fj1o5v+El07ALellQFJXerH/+xcKBaF7qMrB1jOAncWeISBkuhB4mc+TDQNZ7NgeKqcBe7HyvGBvhaaJF8vziY6CDT4MS4ssNtXF0Hghw0anAXuS9z+GtkQiL8nRW7lANwBuHOhDD9OgjBWbdDgADwyFvpuYUMgvh8Wx4rEuVBscdlfP0HQiyDQ4Cxw+64kB+D+xqCvVufLIHEA7kuc1hoFQS+CQIMvAI8zGs2v0ILADxs0OAD3K3Ef7WwIxMdjfDVxLhTnQnEuFOdCiRssfHVgoVEQwDMINPixcpwFbkHhougiCHoRBBr86GYUbI2raRD4YYMGZ4HHpQb2fVq2yHEWuLPAnQXuLHBfeGJjJvH1oBEaORr8TybOAo9X26K73+mmf92MjrOxtx4tMnEWeOw6cNadQVAKP8vURAE4Uen1zV1yorZT2jp6JD8nVcaXZkpOVqpFLkfXVRBk4mhwAB5Oa23ohQPw6PBgxNY2BGKLnGS7UJpau2XdlnrZcahFuroJJRDh35zMFLlwToFcs7RQUlKA+OReQZCJo8EBuAPwCOPeDRL/g8S2BX6qvlMeeL5aWtp6JDtzwNru6umVtvYe6e7pkQnlWfKHV5dLQU5aRAQfCvQDsg1/8pT2w8nf6YXH7iDwwc/qMKJyWGoQBH7YoCFhFjiVuaurq6Wjo0PKysqkoKBAGhoa1AorLCxUMfT09EhdXa0UFBRKS0uzUJ27t1e0TX5+flQWmw1mxKsbQaDBzyCxCeD1TV3y46eqpLW9W9YsKpHlswvFwOyRqjZ5e+8ZqWnslNozHTKlIlvuubpcckJAfijP0YGNGzdoVXf4mZmZJfPmzZPMzMyzxIOOHT58SJqbm2XevPmSkZERSLdWEPQiITT4yS8RZlAlhJYoB+9ooSEhAN7S0iKPPvqIvPPOOyKSIsXFRXLnnXfK+vWvSU5Ojtx+++06OJuaGuWBBx6QG2+8UV544QUpLi7Wzxm8t9zyIQX0kayrUJmNFoFEqYfDNk+GCwWPyH+/dFq2HWiRvKxUuWVNhRTnZ0hDU5ekpaVIZkaq7DrYJDVnOuT9Yy3MzHL10kK5fFGh9HhelrMu9OPaa6+RGTNmyNixY+X999+XWbNmyf/6X1/RCR994IdJ6PDhw/JP//SPsmDBAvnYx+7WSd97717p6elV/aEd7bkXvTKGA58N/Tu0f/MM2pt2oZ9FIyenm/5Xh9HwNZ62o0Um1gEcJX/33XfkH/7hH+RTn/qUjBs3Tn7yk5/ImjVrZMuWNyQ/P0++8IUvyPbt7yhg79q1U1auXCn333+/jBlTIb29PTrw/vRPPytbt74ldXV1smDBQpkwYcKIFvloEUg8Sul3QrNlgbNR+c+PnZD6pm7J7QPwWRPzpL0ToBXJzkiTto5u2XW4WdZtPi2dXT0yd1KOfOyKcunD0rNeNy8vT1auXCGf/OS9cuutt8oDD/xCfvnLX8q2bdtk48aN8vDDj0hhYYF8/vNfkG9965uyZcsWufba6+Qzn/mM6tmpUyfl+uuvlyuuuFJ1EL1799135ZJLLpF1656S48ePq3Ewbdo0ee65Z6WpqVkOHDggF110kdx1113a32OPPabAf889d8vs2XPk+eefk9///iWZOHGC/Mmf/F+qn9FcTjcdgIfTFxt6YR3AIfTgwYPyzW9+Q06fPi3XXHONrF17g8yZM0e+8Y2vS1FRkVpJ+/a9L5/73J/L3/7t38oXv/hF+e1vfytjxoxRSyk9PV3BncG6evXFsmvXLvn6178ukydPicnijGawxdPWhkDieX6yAfz9E23ym1dqhA1MAPzm1RXS0yNysq69340ye2Ku7D3aIpPGZEtJYYb87uUTctfl5VJWmB72VQHwpUuXyMqVF8rcuXPlmWeeVnD96Ec/Jl/72v8jn/jEJ+SVV16RI0eOyEc/+lH56U9/Kp///Oflv//7Qenu7pJ77vlD+fd//7F+9pWvfEXBFrB//fXNUllZqcbCX//1X8uXvnSf/Md//IdcdtmlUlhYJA8//LD85V/+pfzoR/8st912mwL7E088Lh//+CfkoYd+J5/97Gflhz/8Z5k+fZquBqKRdTRtbcl/aD9BoMHQFARaRgsNCQHwtrY22b17l7z11lv6w1IX62bfvn3y5ptvSnt7u3zve9+TSZMmy333fUk+97nPy29+8+AgAGf5vG7dOlm9eo1MmTJZ/2eJPNw1WgRiawAnw4VCxMmjG2qlpb2n3wKfOCZHmtu69DXY0Gxu7VZ3ydHqdqmu75Bj1S1y26VlMrbkbH819xgAX7VqVR+APyNLly5VAP/CFz4nixZdIPi+ca18+9vflu9+97vyjW98Q1d1rPYwAgB3ABygvu+++2T69Bmqb+npaVJeXq73Llu2XN54Y4t8+ct/KQsXLpSPfvROueuuj8mjjz4q3/rWt2Ty5MlqrdOGyWHmzBlSX18v2dk58v3vf0+6u3t8i8rpprPAzysLHNB+5JFH5NZbPyzl5WPUqikrK5eGhnq1yhlEbDhhTTFYwgH4hRdeqD709vYO3dT6m7/5G13OOgD3hxvJAPATtR3yi+erpbFlwIVSkJsudY2dkp6Woi6Uo9VtsmRWgew+3CyPrq+SmROy5c7LyjVGPNwFgK9YsVxdaHfffbf6uH/+85/rnso3v/ktWbt2rTQ2NkpqaposW7ZUvvvdv5Ovfe3r8q//+i+SnZ0tV199tbpEbrrpJrn33k/Kd77zXXWX/O///U8K7osWLZI333xLlixZIv/5n/8h9933Zf3sjjtulz//88/pngyum6ysLHXhMXk8/fTTuk+zd+8+mTp1qrpoogHlaNr6k270rYJAg7PA7U9kCbHAiT75P//nV+pKMdEDDIqNGzepFX3dddfK/ff/QK666kpdDuMrf/zxJzRaBUVLS0uVadOmyyOPPCylpWW6KfWZz/xPtbAcgPsbvMkA8O6eXvnHh09IXWNXvwU+rjRLGlu7JSM9VdJTU6S+uVMOnWqVDe/Wa3z4gimeD3yYPUzVF9xvV155lbpO8H1jDOAOefHFF1WnOjra1cddXl4mTz75lNx8883S2tqqLg+iVtAjgB5Xym233a7WNHst6B9ultLSUlm+fIU899xzcsMNN8jEiRPlRz/6kXzsYx+TrVu3ynvv7db+Vq9erasANtjZi2ltbVMgnzlzpj8h9LUKAngGgQYH4OcJgEMmVtKZMw3S1dUteXm5Ulxc0mc5EUZYpCGGWDkMRv4mFAzg9q4Uyc3NldOnq6Wzs0s3PrnfRAMkajkS1agM0/h8GSS2NjFhwcZdjfL4pjrJzyYKpVLDCHt6iQIRefdgk5ysbdeolLf3nRHEi/971oTsYVnNJviZM2dUNwDzrq4uIaqJ0FN+R0/QA/M37josb/ZNmpqaVF9yc3P0fnSQ77zw1F7tB/eLCVE19/I992L9wxva0Z5nQA8uPwCdVSNtor2CoBdBoMEB+HkE4NEqebztg6CgQaDBzyCxCeBEk/zo0ZNyvLZTFk7NlwtmhuxT9HKARGTzrgbZf7xFlszKlzvWlEjfQc14Re7r/iDIxNFgH7h8CX+ERkGWSTQp0RPiQomXubHcH2SBxPI+8d6TDBeKoRFXym9fqZG9x9ukua1bQdtcqSkihXnpsmhqrty8qkRom8zL6YXH7SDwwY9xkSzdCAI/bNDgANyixtgQiC1ykgng0NzR2Su7DrfI/pNtUtfUrf7uzIwUKStIl9kTc9RtkvxMKMEAriDoRRBocABufyXiANwWYp5HVo5NF8pQ9gHkWOHkQclIS5G87FSNSDlXVxCAy9FgH7ji1adAySQan8mQF3cAHq8mhNwfBKXwY+UkEsBD2RkEfjganAsl3BAfLXphHcA5SUmoVrKvUL+r+vw0liXZV+L9u8Q/jxSNk0wAJ1qD6I3hBsNoGSQ2tMjxYigXEz9WRpLbULywIePh+iBCiogm/rdt4FgHcA5RPP74Y+cAPs+tQiRSAUzfOTm5ctVVV+nBlEhXMnzgO3fulG3b3tbQvPBWTiQqk/H96NcLP1wEsJIJWiPT5P8Uq593C3IbeF5SUiIXX3yxnj8IPICr9XsONOVcPPMsmyLB7x1NQYRkALjJDDgcXR8EmfgBjyDwgeyMQblIWHeur2TLBM9EIvDCugV+rgSTbIGEtziDNEiGp8X5wJOrpU43B/Pb8cPjhw0+OAC3OJZtCMQWOcmwwCPRGgR+OBrsgUUkefv93snEnkySDOAxlvDwoRlOKfxbOYmwwMNJ1snE3kD1MQRGbBIEWRgCg0DLaKEhyQAerxoOf/9oEYgtDjkL3IFnqC4FYXw4APdvZPnFAQfgfjnlo935MkgSYYEHdU8gCDJxNNgHLh/DMfArEht64QA8Xk0Iud+GQGyRkywL3NSaDH0ev/Nj6plSXo2/iWH3e5n+uJcMgxRjSEkZnEM8tM7lcP0GQSajiYYBucR+yiKUH+gIYajIkgyS3neDHXKmPXHUGB9+5B5Jz0aLTByAR5J0FN8HQSn8LFNtWeCk//30pz+tpcYefPBBBVnSrpJD++GHHpKbb/mQvP7661qgmDqpf/Znf66l8jiIBA2m8nxqaorGKDMw4WFtba0WcCB2lpJpH/7whzUv+M0336K5vc2gp0jDF7/4F/2Fjr2BnaIpjEkRS/8dHR36vylsfC5kdC6eOVRtbdAAD9evf1Vqamo13zopn0PD4+A5YAy/jYx5LsBr2pmQU1ID8zul7iinWFNToyXyrr9+7aAi1NxPzQBSUr/xxhva5uc//4Xcc889Gl8d63vFel8UcBCxqQ0aHIBHZLP/BjYE4v9pI7dMhgXOAPzOd74ty5Yt04LC1157rezZs0e+8IUvyk9/+hOhqtL69esV0Mn/fvfd92gRhb1798jHP/5xrbQzduw4Bezs7Cwtc3bZZZfpYOa7HTvelauvvkbbUnmH2qoUXDh69Ih86Utfkl//+tcyc+Ys2bRpo9TW1sm8efOkvr5Obr31I1qImBJ+f/RHf6yFIDgxykRCAYehJ+Js8XzEVcC5ORrcT5IN3UTezz//vFRXV2mh8ccee1RmzZotlD/cvXu3HDp0UD7xiU/K9u3btWwdRVyamhrlmWeekSVLlmp+93379mpRDmqSVlRUys9+9lMtgM1kTe1b8v5v3rxZCgoK1BgoKiqU+fPna5m83/3ud1oNiXYUeuFzJhLytEd72eBHtM9MyKTa1tYed/DyaGFGEAQSLw3JtMB51nvvvSff+97/q4ONwUQ5va9+9f/Wiu5/9Vd/pdYTAP7UU0/Jt771t1rnlEIKlCr7+tf/Rv7lX/5V/uu//kuLDQPOX/3qV7X6zd///d9LVdUpHdhUY6KmZU5OthZ1oEgDA33Dhtf0e+pUYrFj4W/atEkyMtK13iq0AToUBqG49nPPPa91MrEck3mNlvFBndvDh49owY0nn3xC7rjjDq13W1dXLzNmTNcCGia1AkUzFi9eLN///vfl3nv/SNvV1JyWpUuX6Wpq+fJlct1116vMN2/eJCdOnNBCG4A6FZUoJE3N0/vvv1+BesKECQrglFb88Y9/LKtWXSw7d+5Q3RipVu5od605C9ziSA7CQE02gJN15sorr1TrGhcKA/hTn/ofcvvtt2m9yVdffVXmzp2jwA04/93f/Z2MGVOhZfW+/e3v6EB94IFfyqWXXqptvvzlLyuA//KXD2hlesrqUV4NC2/8+HFq4eN+oYzar371K7XysQBZhlMz8+mn16nlbdwnuGxof+edd2q9y7/4iy85AI9B59Htr33tazo5slLavn2brmSwlHF/MUkD4IcPH5KiomJdPTG5btiwQSoqKhSUAX7K1DHJkw4CAF+37ikF77S0dC17h6VO3VFKMv7gBz9QwGaVNWXKFHn88cc1lQTuuBtuuFFeffUVuffeeyUvb/hi5w7AfQh7KHANHLH2Nq9sHuPF7xquzyCAZxBoSDaAI+stW7bogKT0GMBZWVmpg5SBCBjjv6yuPq0uDACYJS9tWEpTXPj48WNSUlKqbhb6wcpmUMaIzbAAACAASURBVDPoca8ADJQyAyyw4kiiNWfOXL2/qKhIsrIy5eTJUzJr1iztAwvflEDDLwuNgDxV5qGJz5J5BUEvbNCAWwQX1dSp09SnffLkSS1fxwooJydH5QbfTRk8atiyB1FbW6OyYxMaeVFqkfYUPEc/sM67ujqlsnKsGgFZWdly4sRxmTt3nk7GrJhojy7wXPSHwujci2Vu5BmNl8oGP+LVIRs0JMQCP3nyhFbw7unplo6OTlmzZo1vqwcLjt3oUL8WA9goDDM8Al64cOGg5DA2mDFUIKkpKdLS0S1pKSmSlZGqtR5DL42Q6OqV7h7Ror5d/BJy8X1HFxEZIlnpKWcV8qX/1o5u3XPPzkwL239XV690dvdqzcmuKFJIJMMHHkmBEyGTSM8MncBMFIzfexLV7lzywc+EHs178y5mIzL093D+3eHahePHSH1FQ5/ftqNFJtYBHKFhGTFjsuTFWnrtNXyVq3V5zWzKZgazMNYa/isspubmFrWy2KAYP368zqzmYtOkvb1DNm7cILfffrvU19drhXCsKpNa1bZAGpq75MnNtbLjYItWllmzoEguW1QomRleKFtHZ49s2NUor2xvkPbOXpk9MVtuu6RcCxhwUZHmmTfrZPPuJgXolbML5NrlRToRcDW1dcvTW+pk275mSU1LkVVz8+XKJcWSnel9T+mxt99vlmffrJem1m4ZX5Ypd185RkoKBqekjGWJaCsKhWePdLbWtkz8Ds7Qdo4GjxtB4IPtySQWfRhtNCQEwEkp29nZoRZyVVW11NXVKmiz+cTSGD/XkSOHFdBZJgPOFRVjFJj5mTRpkvq8TEZvAJzQsIMHDyhoY4GTXzd088KmggKez75RJ6/tOCMmiRvAeuuaMlk0zatKvv9Em/z02VPSHVKhd8XsfPnIJWVqcW95r0l+t/60pFEUUgeQyG2XlsnyWfn6+++3NchL2xr6a0RmpKfIH1xUKvTBVVXfKf/+1ElpbffMbt5v1oRcuff6Cl95zj/oFvhoG6jxgJUD8LO5ZxMvYpWNDRoSAuD79++X1tYWjfklZhS/JJsf06dPVz8kwI7f6tSpKrW+L7nkErWk8Z/hZ8MCB9ibmykWINpXc3OzTgBMBPRJvCk+VdwtthW0vbNHHnmtRi1g3CDmuuXiMrloLr48ka37muXXL1X1AzRtpo/Llk+trdTvf/Fclew+0tp/L8JaMCVX/vCaCnW7PPV6nWzc1Sh9+K7trlteLJctKtL7D51ql395/MSgcmSVJZnyP2+q7LfiR1Kc0QTg8bhCbAySWAfoB2MSGex5DnWbDMc3mzLx8zzoGKpDNmmIVT9s0JAQAMeFArCyicGGxpNPPimTJ09SUN637339rrKyQg4ePCTFxUXaBoub+F+s8TFjxqgVfvr0aQV0wsfY9Nqy5Q1ZtmypNDU1a2TBzJkz+33lNphhBIEF/uTmOtm060y/bLCQP7KmXBbP8Czwfcda5T+fORViDffKBdPz5aNXlOv36989I09srhX83FxY8h9aXSqr5nq79s+9VS8vb2/o7x9L/aaLSrzvReRkXaf86+Mn1BXjTVAiU8dmyWduHOtLX5IB4GxaMjkjiylTJuuJSfYuQgcLsjUHO4bSxAYXkQy42diczszM0r/ZrDLJ748dO6abYESusPoyvtK2tlbJzc3TZ9MPOsU+CQYBbjo22woKCvv9tb6YlqBGNnUzVhLjpQE+m1OQyAjZszGJfPkxhhSrb+SN/LwIlYF9IwO2RKOY74b6yYfSSX+4VsEEc/CLNtCCwceKnmeDF+bAFjxidc8KnbZsfJ8506j4Y4xA8xz+py3PwKg0+hUvv/zIycYzrAM4hJtTVoYhDCoYTjzu+PETdFBhieMGYbCxAw1Y8x2WNW0N84kFJooFAOe+Y8eOqhXODnZoNIENZoQyva6xS379UrUcONmmVvZFc/Nl7crSfh81VvqLW+vl1XfOaAHfsaWZ8ukbxkp+Tp8Pu1fkl89Xyc5DLWpRL5yaJ3deVtbvQ29s6ZbfvHpa9hxt1fdaMiNPbllVKjlZAz70zbsbZd2Weuns6pGC3DT5k5vGSnmRv0MLyQBwwJsQMWRGmB/y5CQkA2L27Dm6n8Fg5fRkY+MZDRUzg5sBbkLMOOxBxAGHNVi1bd36lsybN18NACaExx57TEMVeR7gwaY2g7GlpVn1hCP6RCWgZxwaIbTwnXe2y2WXXZ70QzvhBq5t3fQDDkPbxEsDY43wPYISOAEJEBIFwkEbQHTKlKkqg7ff3qqyZBJm1cxYRaboOPIDuNEPJgBkiT4w/hnPVVVVkp+fJxkZjO9yaWhoUN0icoVn0B9yZ1IHNwhd3L//fZk4cZLuu9G3mcyJbGHCxzAk8mn27Nn6P88g8onno0foDDoGLfzOu+HGnThxor5jIq94ZaIrC3eQZ3gRYTWfqO3QCJJwwIlxAdC3d/XIuLJM6R1S9USVtr5DreeyovR+a3xgaS1ysrZDJ4gxxViuZ9PS0Nwtza1dOkEAjn6vZAA4g4GBxqAhbJDDHLjPCAfjOw5r8D+WOeF77777rlpNACzWMod8AAasKwYNqzImAgB5wYIFaghwHyf+GLBM4mxeX3DBBXLq1CkdzCbcEJBgAL7wwvMaN0yI26pVqxRAzvVlY6DG+w7x0sD9HLghZBBQRV7z5s2VEydO6gSNDmAFowdEiO3du1dJBiQ9Q65H70WHmQQAVkAe4OS7nTt3qVyZ8PkOi5jnIF90hokacGXSv+iiC6WtrV31gecgY8CelRxAzaSAQThmTLmkp2dIe3ubntTFUGBMYiiy2oeWCRMm6slRjAUzyaBX/MRyQCgaOcUrEwfg0XDbR1sbAvHxGF9NkgHgDDZCRQFV3FwALwObCCSTr4TVFH9zeXshGTrQzaBjcDKIAXoGJFYdg494cI7XcyiEHBiAPBYRAxWw5sIy428Ge0dHuwID1hmrAlZuCxcuchZ4n7bEq5vcj1y8CDLk3qMrLqxpfsdyLisr1wkYoAXQkRfyZfL1YvlzVUf4Dr1gBcXfADx9mNwm5nesZJ5lXDboFJM0ljX9YjwwUSN/QxPPBPhxq6B33AtY8zfBFMSi095MLPxuQpdNHhdzn9EzXwMuhkbxysQBeAxMH+kWGwKxRVIyAJxnmGRRALN5JgOPgWSWybwT7UwbBmI495dZ/mJ5M4iN9WwSX/E5A9K0o98Bn3gbf6kfnfZcoTTZ4mss/UTSi2gOoMTyfMOnWO8Nd58BU2Rk9jmQKb/zvvA+dP+DPszf/I6M1F3a1S3ZOdn9cqU/9Ib7saRpw7NMciyTx4ZnGJ8439O3eb5pE+pfp0+T7ZBnm8OG3MezTLIt88xkrNwi6YUfeTkXih8u+WxjQyA+HxWxWTIAfICI8BAUBH44GjwpBYEPRl+CQMtoocEBeEQo9N8gCErhZ5DYPMgT9BVJEGTiaBisJaOXH9GtpWzw4bwCcG+5rJ6fs3DDBjP8Q3X4lkGgIZkAjisDnzfLXDZ8+DHLWbMUNv5N83/oEtjLFOj5VdlQYmMKXzfLWnziRKoQecBFhAH+T+7HZ8nfLH2ND5ZJCf5DA35x7sXH2t3dMyjlQrwyjuX+IOiFDRoOHTqkrjH4jl/b+JtD3RvGFWFy0DBSu/vyvOOnNqF+6A4+dOhChuhAd3eXjm3a4PLge+7hOciVvtEX9j7wYaMDxjWDznDRzk+um2j4MaS8RFj8SapehMwTCQFwBjUMZSeXi5hc8vcOZRpgzKGc0tKSYZmCILmPQekN0h6N/2XDI/SKRiB+mU30CMfY01JFcrPPToDE920dPXqaMj/HiyENvYjhrmro1OmmtCD9rAM4nLKsbezU6BT9vu8YvemD++uauoSQxaLcdCnM4xn+qE+GCwW5AsIMQOTIaVpSInihfakKuNDBgCJuu7CwSDee0A0OaRFWSBszqAkJu/DCi3TwksSIzSomB2RvNqwY1IA4nxHqRSQDESn8T+QKzwL8OQwG+PMcwtoSoR/+JBEM90W874+M3nzzDU3ja8KBAXJvM7Klf8OQ30kuRnIyQBnQRT60BbRJocE+BXJEd5Al+kAIKZvYbIqzsQlA04b+0QcOASLjnTt3aipiwpDRMzNx0w+6gp6wMRnpipcfkfr3870NGqwDOEJh8BFOxglLNg6IyV206AIdWAgV64hBD9AT182gZYfYE8Dg+G6iElAKjtETHoYS0I4oBbNJAbNsMCOU6YDrpt2NcvBkm2SkpciCabmyaGpe/8lIwHXX4RbZvr9ZE1ZNKM+Uyy8oksx0b3XQ2tEj295vlsrSTAXwmjNdsnBKTj9IVzd0SlVdpwI/0YfNbV6+E4Ccq6OzV/b3xaBnZaTImZZuyclMlZkTsn2BeLIAnJhdIkA4KMEgR/bkaiadKDIiKoTJ9sCB/aoD7OybA0AMNLLZYSV7YV2pmgMH+TJY+Z97iQtHR7C+0CfuR4cAB/QDveIzwtC8gZ2n+kA0ARYcccKhuuJncNlsY1s3Y6EtXhqYGMndzelnIj8Iu0PGhHnu2bNXi2kga1ZSRA4hN2RLZBCgS2QQh7UI5zPZBWnDJIvcidGmL5PR0rPMGxWQwQoKfxw9elSBnokag4B7MeYAe1ZuJo7bT/hfvPyIRQZD77FBQ0IAnNNTWD4clb/qqiv1BCUnLhnsnKpDmAgbZSAWmLhgwJwlEbMvYWbmYiB7FtleycnJlUmTJqo1z4wbFsBHyq7kk+tYuZySJFcJ1i8rhaK8dLn1kjKZMyFHT0oeO90uP3u2SoGX9hlpIpcsLJLrVxQrID//VoOsmpcvuVme5d7Q0iVv7W2Wa5YV6VF6cqkU5aVJRXGmgs2J2k7NOjh5jOdOON3QKcdrOmT+lFyNE2/r7JG9R9tk1sRsBfJIVzIA3ESbmGUw8gAwsagYeKbElrG6+BzZ0x5wRoYMShMdQH8MYiZprDaWysaFwgDleyxvBiqrO4AA4Cf6hKU3/WO1eS4UDmR4J10Bm3N52Rio8dIfLw3IljHKBIxrinxEAKcJx/NSXzRreB9ypZ0Zo+ZAD5MtOoF8MjMzNOwQuujXc8d0aJgfzzKTNHiRn1+gckW+4AETP33wGffRvxcNlaKWv5+KS/HyI1552DI6EwbgMBbLmQHNDIo1xpKY68EH/1uXtZTi4nAAFT285Xezzt6csDJCQOgm9pPlElVB6HfFipUJO4mJW+TRDWfnQrl5VamsmsfST+StfU3y4EvVgw7XTB+bLX+8tlJPZr64tUHB3Fzc8+iGWk1oheXd0tEjE8oGDplwD6BeWZypwL7nSKvMGJ8taWkD/n5A/VR9p+ZUiXQlA8DjoSHSvba+Hy0DNV5+RMUHC0bQSPRGRUu8Lz7M/aOFBvsAnpoiBw8c1EMYWD4vv/yyzqYzZszsy53QqaWusLoWLrxANm58TZfDfG/id/mbhO4tLa3aDgBn1p82bbpablhd+DgTlY0QC/nxTTXyxp6mfvFjBX94dZks78sWyBH5B54/NWgVMG9yjnz8mgovlewb9XLjhQN+epNfhWyF9U1dUtPYJeNLM4UcK1y4bI7VdKgbhdziB0+1S2FuWr9LhVaHq9s1rcCUyshHfB2Ae6IbLQM1XhwLAh/MOwSBltFCQ1QAPtzEPJQZDQ31ukEFwLIs4pgsgMuyB38pvmxcKNzHkgvrHB8pR21LSorVRcJyaceOHX2VO8p0qUZKWS4v1/j4QTptWyC7j7RoLm496p6WIrPGZ8vaFaVSUeLlImFz8fGNtbLveKsCNkftb1hRIvOm5KhLBYBnSVdZnKFBM6fqOnWpP3dSrrpY9h9vU5cJvnNA+djpDt2knDTGy66Iz5tshlMrszQ/Cj70usZOWTw9z9eR+mQBOBMqV7jCsiPREPrdSP5p2g1NeDQSmJnK9v1VWobs+ob2FwooifSR29bNWMDcBg24KTxZ474c7Majf35C8/MPx1O/tBhZhcoMGpBtpEgT9MDQEo5ffmmIhdd+77FBQ1QAPhxhkQhBkAMC5vcB6yhUyOGYbj7DBWFKswGMQ6MxItHgl6mmHdV3jp/ukOO1HZKRniqTxmRKeeFAIinNg9LUJYer2hXAK4oztM3A/SKHT7UrSEMb+cQn4t/uS3jS3tEjbGQ2t3s+9vzsNCkvTO9PdsW71jZ2SX1Tt3T39urm6JiiDN309HMlA8BxjxkAx19tTsMB5qQAJtqAz8ypttCBiFuNyZvv2PswwGtCA5mk+R0fOdEJDFwikNgjwb1Ge/43pzRNtjwmeowEfO1sjtKPCW1jJYe/FX+6sc7pg6RbbIyZdqHHwHEFmkgZP8AxWsECMCTvCHsbrIpNzVGTjA4enT5do3sYXoIqL0uh8YObzJPoAHI1kSvcR3/oginLZrIbokONjU06YXhJprx8J+gMxiF9G11jfw0sQQ+IgoEW9Iq2PJu+TZk9o7MYVPjyz9VlA7OSAuDJYNCIzIjDp2cminCJphQE+v7h+3A0EKGiVktaylnJqugbdw0WOq6UcKmqmBxwv2Sms7njn5PJAHBym5jMckQMmEEG4DJg+IzNLYCcgUZlJtxq5rgy9Q/Z42DjiQmAgUXVJaKX+B3AZCCaOohsYJWXl2lyLDZGiS4xm1j0Y/qliDI1OBnAbH4TwQAdtGEQwxsGNvlbSJZEBM3YsZWaQZG/ARCAAPqIsOB9AIxDhw7K5ZdfEbVbxsZA9S/58C3jpQFZ4A4FoJENK+j58+cp73Bvsn+FPhPuB69xc5KBku/5jiRTZsOZeH+ijYhm8Y6xd2thYmgk0gg9IiYccGUTE2Bm45L+mUCINEJ+RKKQWtpEOyFv5ATIQyNhpsgbF66ZKIhYMgYD3xG5NJKlHi/fR7o/XpnQ9wcDwBMphZC+bQjEFqnJAnA2n5mB3n77bR28DFKAtqyMUNFmzVRn9ireeGOLDmZAnAGLew3ABOABSX5+//vfy3XXXSfvvbe771COl8yIEDQy35EBj4HMQGegsl9CxINXPLe2fxXAQKUCOpMG7jYim2iDRU/xY+jkb1KZEh43efIUueiii9RVx6QAWJkK6kRLMcFs27ZNMxxGK+do29vSgdB+4qUBGRAaDC+YCIk0I+ugl2K2QwESUF2xYoXKh3A/gJ2VpMndT61cJnx0gHa7d7+nIMuqiAkC3mPRI0/ki96Y1RByolYAkzngXFDglWJEjitXXqjpZAFk9t7YO6M/+jbWN6ssQh2pL8AKzDMOTmtNAT9RK35lEo2tGK9MHID7lYrPdjYE4vNREZslA8AZMAwgLFasGsK6GFTefoWXXMi4K4y7A7cLn3uHQLoU5I27BQDHKgNsAWcsJwY/eyfcD7ACpFw8m+dwYfHhVmNSYEIA7Ak5BWi4j7YmVzQAwcDFogNwCHfFLYNFSDvowXLE0gSEoJVJgmU+hQFIlRutnKNtH1G4MTSIlwasYA5awQcOZJkYfVZhADLyNEUdsKABb9wfXPAc/sN3c8IS2dHOHPCBt0SgIS/PuvbydHsrtBKVA/Ixrhiez4TAuREMAiYGPvPiylM09JB+PJk2qXFAaKrRISYCQ8vw+x/RHY2PVizxysQBeLQcj9DehkBskZQMAFcF6vPrDH0enxufcqR3Gq6P0PvMPsrQz/g79NlDNzyhwdwb+r/pJxyfhraPRH+k74OgFzZoGF5Og+3O0Co94cDR7IUMlZsfGo1sAGZA3hSLMDIIR2M43fHzrEhyjfd7GzQ4F0q8Ugi534ZAbJGTLAAfid4g8MPR4EkoCHwYadK0pfd++wkCP2zQkDAAhzg2G9ggwAfJ3/i6WFpREYOL39lZZnkTKSwokmBsMCPcM8zG4XA5SEK/j4WGSP1ThCclFWuWaJZIXBj43gF4cIArFr3wL2l/LYNAgwPwwbKyIZOEADhLG0orscEF8LChhC/Ui1Qo1Q2qZcuW64YCpzPJlbB27dq4NhNsMCOUvYQREru9/UCL5GalaB4UjtOHRoJwIId475b2HrlgWp6UFw3+nlhu8qEAvJyepKyauYgF52Tl9gPNGqGyaFqelOQP3M89J+s6tP+2jl4pzk+XC+fma1s/lwNwB+ChemJ7fPjRweHaBIGW4WiIZhMyHh7YWhVZB3D8TQAzu8FY2p7lXSeHDx/pO5RTrmFDbDZwhJ5q9bTBAifTWayXVaXoFdlxqEUe2VCj2QgJFpw0Jls4RUltSi4O1vzmlWo9MZkivZKenip3XV4uC6fkamhhdX2n/H9PnZLG1i4cxQrOn7x2jFSWePfvPdYqD79WI3VN3Xp/ZWmWfGRNaf9BHmLA9x1v02LH5D6paeyU7ftbZPX8gv6EWiPxKrkA7go6xCqLWPU92vusjo9oHz6kfRBoGS00JATAyUjHbi87+1xY5EQSsBuMBUsNRdwm7EQD5nw/btz4uPI22xQIsdmPbqyRN/d49HJxAOdDq8tk5Zx8/fvdg95Reo7Ym2v2xBy599oKjesGnLfsbupPXQ595FH50MWlmitl3ZY62bCDIqsD2r12ZYlcsrBQ48EPnGyTkoJ0Kc4bsNo5VESWQk5nRrqSC+DhqbEpk0jvez5ae7G+Uyz3BUEWhu4g0DJaaLAO4AiJ8CviNqdOnaYyIwEVhy9MJkEKnxKzO378OA3CP3z4sIaPkaAq1sumQADJRzaclq37mvsBFlAFwC+c6yWRJ43sr16oGpRsiuRTn7q+UkH7178/re6RUKVdOjNf7rysXAH8qdfrZMPOM4Mq1a9dUSKXLirUW0hsNa40U4/Rm4vc4g1NXTJrglckeKTLAbjHHZt6EYnnbhLxxyEnE3u6mRAAJ3QLkAaUuaZNm6pxoOT89U64pcuCBQv1b+J9+eySS9ZoutlYL5tKgUNg084z8swbdZrrm4s83bddWi7TxnpHb/FP/+K5Kqlr7OoHeZJXYUHjvz5R2yH/9NDxfoDHgv/TW8YqKHNt3dckT2yu04IQXCSu+tDqUs2VwoV/HBfKxfMLtD8s9efeqpcrFxcNsvpjAY1RW1ItjCfHpl4EQTfPZxoM7U4mAQdwyMMXTkA95qjJMkhECp+xsenlOPHKJ5m/Y1XORFhaKBkpY7e816TVeC5dWCjTxw0upkB2wFffaZDmth5ZMStfls/KFzY/9f1F5GBVu/z+bS8n9ZoFhZoeNsTjohukr+9ulPQ0vi+S2RMH+u/pEU2URYbCvOxUTap1xeIiKcwdcKmMxC9ngdsbJPHoZSJ0MxZ6ggCaDsAHS86GTBJigceiYPHeY4MZQ2nQ6QfTNySRVmgb73vvH55vkm2FtknFA9LLUr4vb8qQh3hzXIr0EiY45Du+YgXQ0dUjBTnp/ZODH145AHcAHqoniRgffvQwXJtzRUvoAu1c0WCMO2ixQYMD8Fi1MMx9NgRiixwH4A7AHYAPP5qCMFZt0OAA3BZiWppRbZHjAHwUALjFVBw2wCIZumnrGZH6CQI/bNDgADySpKP43oZAonjciE0dgI8CALelDOeRcWHxlWMeH+cTDQ7ALUrLAfhgZgaBH46G4ExkRjucTOzJJCEATjYyLpNnl4gTIlFCy27RhqP1lGYyKUI50MNhH9JP8kN6yHClupK5MRIpV0mkXCgj3c8mJUfq+/ZJz9rEHFB4ETZDXS6U6GfbAbCw6I+IkgwHWG5iTxRmJQTASZoPOFP7EhAnDy/5UBYtWqTvAaAfO3ZUa1wC7AAYJzNJEk9OYE5okiOF5FckXPczAPy0iXLc6XH4Q1XtWs5s2rhsKcxJGwSyHLPnKH1HZ49MrsjSXCihIEuOFI7Mc02tzNZq8+Yi3PDgyXYvDryvpBr1MPsBn7qbjV1yoqZDPyOskHqboSc/R3of50KxZ+VEqzdD2ydCN6OlKQg0OAvc/kRmHcAJuwOId+3aKVdeeZUmVd++fbsepacKB4n0Dx06pIna58yZLenpGfo3if6p9sGBHw73vPrqK3q8funSpecEwA+ebNODPFX1nRqvPnN8tly7vKS/Snxja7ese71W9h5r0/C+otw0uWV1mUyp8I65U2X+Z89WSW1Tl+Y6GVOcIfdcWSG52ak6Cew+3Ko5TRT0ORhU06GnLk2sOYmwSGQ1a0K2gjbhhHuOtupJTT+WuANwB+ChcOEA3D54RjuJJmJiTwiAU97o1KmTmoGQUlXPPPOMWtK4RObMmSPPPvuMlq/auvVtfaeLLrpQXnttg9x00019RWpT5Kmn1mlJJKx2P8rnp41fhlOH8rGNNXqIx1jEgOitl5TJ8pn5HgAfaZWfPXNyUIX4eZNz5BPXVijArnu9Tl5990z/I6HviguK5boVxXrwp7axUwshZ2V4R+Wx1ilyTBV7CiAfrW6X7KzUQYWUKbKMtT6+LPKJVQfgDsAdgA8/4m3ihV9cOa8AnMrQ77zzrh6jpwwS5baoaVhUVKgulNzcPJk6dYq6UR5++CGZMGGiLFu2TLMSUqz0xRdflClTpsiSJUt9VXaxKRDcGo9uqJG33x/IhQLzb15VqgmpAHVOaT74UvUgAMd6/uPrK/Wznz17Si3mgWWj5wL55DUVmsmwub1bJpYPJKVi0iD/SWVJhiawYoKgP4odmwuAZ0VAatpIlwNwB+AOwB2AR8IJ/X4oWFCXkPp4FGwg38nFF69WFwn+cIrFfvjDH5a9e/dKfn6e1iM8fPiQ+suPHz+mtez27t2jG5u4W8aMwaLt1dJJZDgc7ooawEdI/MvG4kvb6vUYPBXhsagLctPktkvKZc4kL5EUvvEHnqtSIDYQi3vjhpUl2h7w/+2rp71NShFJSxXNpbJ4ep60d/bIoVPtaoGTcRCLHmBuaulWXzqulZN1nXKmpUtmjc/RDUwAHpcK35OXPNLlANwBuANwB+CRcCIsgGNxe3lO0qSurlaLOOA+OXHiuPrCFy9eIu3tbVJbW6fgjKsFcGfTkigUgJrNzZycnP7CtRSWJTLFGoBHeLP65i7NU7LnWJtkxakmBQAAEIRJREFUpafIBdPzZPG0PHVrcLFxuW1/s+bobuvskRnjsuTieQVS2AeuAO6GnY2y+0iLtifVLPlQTEGGU3UdcqK2U8Faj9n39srEMVn9PnZAfs/RNuGAPYmwSHHLJugM8rH4kIoDcAfgDsAdgPuACn9n+gEUA84jhQaGK0Dqh4ioLXAfnQKi+KbTUlJ08xGwDb0Aab4nBwrfD62Wg/XuFYQQyctOO+v+prYe6erukZTeFMnIEMnNGohS0Umiq1da27ultzdFUlN6pYCKQD7oDrcqCr1t1GYjDMObROiFTxH0N3M0DOaY44c948LKJiZRGH6BJVrl99veKYX/QeIA3K9W2WnndNO/btrheOReRotMrAD4aGFGZLGP3CIIfDAUnlculASesQmCTKKhIVGsiIaGeMdBpPuDQMtoocEBeCRti+L7ICjFeQngUfA42qZBkMn5QkOyCvqeL/yIVteibW+DDw7Ao+X6CO1tCMQWOeeVBW7rpZ0PfFhOni+6mUBVGNR1EPhhg4aEATibkWZDEkLN33CROHDN/5FCNR5+99qai8/CXeH6NEywwYx4lScINDgL3Plbw+nx+aKb8Y5Bv/cHgR82aEgIgJ8+fVrjvAknTE9P0/qX7733nkahQPSiRQulpqZWyJnCaUvCA6lkT3tivzk+z8EfLvKosOlGhXuO17e302e6nuhsbW3VoshcNpgxVPheDhJv8tFd2mHi97RmJcmmCPoecpHPhE3ekvz0QYd+lGaN/+6QtJRUPVIf7mps6Zbm9h494BPNRrGzwD1uJkIv/IKEn8k02r5ibR8EPjh+2DcurAM4YMdR+pycbBk/frw0NJyR559/ThYvXtyXmEo0Fvytt96UK664Qnbs2CnTp0/X2pjvv79PFi5cKN3dPTrwAPTt27dpPPjcufPksccekzvvvFNjw8mvcvz4cT0UlIiBSi6SF9+u1+rzOZmpcvH8Qlk5J7//6Dshfm/uaZINOxqktaNH5k/Nk2uWFklBjhcK2NDcrac1ywoJ/UvRQzkLpubqKUsuDu7sOdYqZYUZ0t3dKwD13Mk5CvRchDDuPEzBZ9E+j9Z0aAz41MqB05sjDWYH4A7AQ/XDAbh98Ix1MrU5kSUEwPfv368JqUpKiqW6ulqam5vVsq6oqFCLlkM5u3fvktLSMu8Ay8SJ6krBCgfAjQsFoD9wYL8eCOJI/hNPPKGgT9rZM2ca5ejRI3LTTX9gHcCh8fmt9fLKO2f661zmZqXKRy4pl/l9x9hJdvXz505Je+eA1U0FeY7b4wHifk5m5pDrJEWECWHz7ka5bnmxJro6cKJdxpdnajV6rtNnOjX74NSx2RpPTlV77pk7KUcP+nCYhwlh6tis/knAAXjkIRQE4HI0jE7wjKx9I7ewoRcJAvADetKyrKxUARyXSnFxiYwbN04BmzwpHR2dCtS1tbVSUJAvFRWVgwAcS37btm3S3t6uPxMmjJfNmzfLNddcI+QSJ5fKli2vy9VXX2MdwLF+H3nt7Fwot1xcJhfNLVD//dZ9TfLrl6oHpXfVXChrK9Wifu6termRY/V9MuQe+rzjsnK1vpvbumV8eVa/W4RDQQdOkgslUzMbvnesVaZVDs6FcrqhS6obOmTeZJcLxe/gsTFI/D5ruHYfdBqGeh8/6PwIvAVOOlmOwwPYHKF/4onH1Wc9ceIkBe3Ozg7ZvXu3LF++Qi3x8eMnaK4TLHCyD9IGIa9bt06uuuoq9YED3vX1depC4W+SYJHw6tprr7UO4JygJBvh67tDshGmpchta8pkaV82QhJV/eTpkGyEvSLzp+bKx68eI909fWB9ebnmMOHCD/7Q+hq56/IxejqTXCf4tbHsuXCh1DZ2ybjSTMnMSJFjNR1qyU8a42UeZBAcONUuedmpMqYoIyKmOBeKc6H4c6FYijyPIgbRAbg93bRugUMaLg6yCpoj81jgFHjAd801adJkBekjRw6r5U3xBoTKfSbfCVY2m5TkB8cax50CcON+oS0/fAbwc9lWilN1nfLgy9Vysq5DUlNEFk7Lkz+4qFSPxHPhBnl6S528ubdRrWyKPfyPG8f25zLByiZXypWLizShFXlV5k/JkdICD3yNf5vPmDDeOdAixfnpMrMv1wkgT0KshdNy1SI/XNUh+463ybXLinUyiHQ5ALc3SCLxOtL3tnUz0vPCfR8EGmxanrHwwM+EFsU8FC8JVjArIQAe95vF0EEiFJS0srg1sjJTZfIYL0tg6NXZ3Svk6KbdtHFZg3Kh0LKmsUvTwjIB4F7Bcg6JlpQj1e36g38b3/e40oxBxRqwyvceb5XW9l7dDJ0/OdcXeEea0NxR+hgULI5bEqGb0ZITBBrOBwCPlq/xtLchEwfg8UhgyL3hBKKx69KrVni4C3Dnq+GMai+CMcU3cPsZJA7ALQrdR1c2BqqPx4zYJAg0+NHNeN/T7/1B4IcNGhyA+5W4j3Y2BOLjMb6aOBeKx6YgyMTRMFhlHT/s6aYDcF9w6K9REBTTj5XjLHB/8rTVKgh6YZ2GOJzF1mmJQVCjhYaEAXgog0KPycfAa1+3jBaB+HpZH42cBW7PyvHB7sC7L4IwPvwYF/Hy2u/9QeCHDRoSAuAQVlVVJb295DlJ1WiUkpKSQflOYLQXXVLfd2w+moPiZ4vJBjPCCZ94bU5dEu5nChCHtjNFHzLTU/pDAgcUlROZXRpKmJaWogdwQjcxiT6pb+7WI/jUvszPSRsUV45fnOezScpVmJuuIYZ+LgfgDsBD9STy+LAUTuhDOSPT4qOTOJuMFhoSAuAs0d944w2prKyQjIxMqao6JdOmTZeOjnYNBeSIPScpCQMkH8qSJYu1HReHdsh1kpmZqWGH5ETxw2w/baKVOUfd397XpFXkOWDDUfrQGOzq+k7ZsqdRCDkkvHDJjFyZPSGn//DOe0dbNSacjUov9C9FFk7J0Q1NwPv9E23S1e19z9+cyiQO3JRZqz7TqX1zMlPv7hWZVJHZH8o40vuMHgCPY63ufOD9KpKI8RHteHIW+GCO2ZBJwgB8y5YtUllJhfZUOX26Wo/Smxjv5uYWaW1t0arz69evlwULFsi4ceM1NpyEVxQ3njx5itTU1MjcuXN96YkNZoQ+qOZMpzz4ymk5fKpdT9EQQbhidr5ct6JULW2s4he21svGnWdEz+oArmMy9bg9B3Q4Bv/uwRZZPitfsjNTpKOzV3YcapGJ5ZlSXpShFegB8mljvfBE4srfOdgsM8flaKFj/t57zKtMTy4UHkEhZXKsLJ6eO2zUip9B4nzgvlTKWiPbuhkLYUGgwY9uxvJusdwTBH7YoCEpAH7w4AG1qjmYwxH4mprTCtgrV66UzZs3qZU9YcJEtc45zNPT0y0PPfSQfPazf3aW22U4Ydlghukbm4+8I09urtWal+Yi0dQfrx2rMdnkLvnl81V6LN5cuFjWrizW4/a7DrfIlIpsyek7aUkb+nptxxk9jEMirHHlmTK+1Ft5cO073ioVxV5+lLqmLnn3QLNcdkFRP1i3tHknOAH1SNfoscAjvWlfWsdhPEs29cIHJWGbOBrsW56xymK0TSIJA/CdO3fKjBkz9Eg9CalIHzt16hQ9OUkmQTINXnjhRfLCCy/o54A4SaSwzMmfQjvcKDNmzPQlK5uDBCzYfbRVc5fgwzbXhPJMufuqCs0YyOe/efm07D/V1p9mNj87Vf5gVaksmpYnh6va1bIeXzYA0NUNnWpFr5iVrxPE2JLMQd+/c6BZK9Nr/y1dsuNgq6yeX9D/fJ557HSHZjWMdBjzAwXgI2iITb3wpYhhGjkaHICH0x0bepEQAMcVwiZmWVmZWt719fXS2HhGMxRiYZMX5eTJk4IrhY3OOXPmyltvvSX5+XkK2rheAPD33tsjs2fP9jVubDAj9EFsXGKB7zjYrJuYuDGuXlosi2fk6UYjkw1H3XGjNLZ26yYkwH3DymLJTE9Vn/aLbzfIBdPydOORPnYfaZHLFhbqqqK+qUuO13ZKWUGaZGemqp8dgDcuEzY+mQS4SgvSpaunV0hmhT98xnhngftSCucD72eT7fHhl/+JAq54ns+9QeCHDRoSAuDDMdeEE0K4F43hrXu9vwfWwLG8WCz3RFIC/NBsRLa0d0tFUaZMrswSok3M1dnVqxY1RRnystJk5vgsye3LlUKbprZuOVrdIempKQroY0szpKgvHzjf437BVZKWkiI90isVRRmaD8VcPPdETadugPb2pqgvfUpF1nB1JQa9jrPAPXYkQi8i6c3Q7x0NH1ALPML+uw29SCqAR6v40bS3wYxwz2Ne0Yo7wxTkMZ+b6j1nD14RcqZgOYeGEJp2gDMTQUZ6qkajDHc/m6ganeKTKQ7AHYCHqkqixodPdfRtXMTSXyz3BIEfNmhwAB6L9Ie5x4ZAbJHjANwBuAPw4UdTEMaqDRpiAnCXoD28YtgQyFkWeL+jKTpodwDuANwBuANwX6iRCODy9eCQRo4G/35GFwcerXbF197ppn/djI/T/u8eLTKJyQI/20/r1zPrn8HRthwtAon2vYdr7yzwESzw+A53Ri2i81k3E8Gq85kfUQt/hBts8CEYAG4hDYMNZsQrnCDQYN7BAbhzoTgXinOh+MK0IACXo8H/MtW5UHyptbVGTjf966Y1pkfoaLTIJBgWuAWpjRaBWGCFduEscGeBOwvcWeC+8MSBZ3DAwrlQnLUXbtAGYYz60U1fgBNNo2Hcs0Hghw0anAUejTKcB8syP4PEuVAsCt1HVzYGqo/HjNgkCDT40c1439Pv/UHghw0aHID7lbiPdjYE4uMxvpo4F0pwVkVB0Isg0OAA3P7q0AG4Lzj01+h8GSTOAvcnT1utgqAXQaDBAbgD8GHHVBAUNAg0+BkkDsBtQbO/foKgF0GgwY9u+uNo/K2CwA8bNATPAo8xJtwGM+JViyDQ4GeQOACPV9LR3R8EvUgUDbEc9EkULdFIZbTQEDwAj0YKIW2DLJAY56QYORHZ90u+9n/8xx/Iffd9WcvYJeoKskwS9c7h+nV8sO86iFd+o0UmDsDj1YSATSJ+LHDaUFC6qKjI4tuf3dVoGSTxMsnxwQF4oiZ2B+Dxjs7zFMAtvvawXTngirwaSoYceEYQZOHXuEgGT4LADxs0OAC3qC02BGKLnCDQ4mhwAJ4oyzPecTJadNMBeLya4CxwZ4FH0KHRAha2horjh72J3QG4La10y9SzOOkGqr2BGq+aBkEWzoVify/AAXi8I8NZ4M4Cj9sCjyUYLzrFdQBuHzyjk8DZrW3IxAF4vFJwAO4APG4At6iEw3RlAyxsURkEWkYLDQ7AbWnlKHWhxGMbjpZBEq+KOD6MTus3CHpxjgA8HlgIzzY3SNwgCacZTi+C44d3PnD7Y/QcAXi8c1di/EnxUhUEsHCDxP4gGQ164XRzdOqFA/B4R6fzgYfnYIpIb48rdg1zggCeQaDBGRf2JxEH4A7ALXLAvoLGS1wQgCtINNh3XkYvofD8SC5lQZJJ9BwcuMMBeDzcG3JvEJQiMVZObOm4gsAPR4PzgY/mvREH4A7ALXLAWeCjGSxsKYqbVO1Nqg7AbWllQHydibHAY2OSG6j2BmpsEhi4KwiycLpp38BxAB7vyHCbmMNyMAig4WgIziTiANw+gP//r75etgIQKB0AAAAASUVORK5CYII=;" vertex="1" parent="1">
          <mxGeometry x="110" y="3610" width="318.46" height="450" as="geometry" />
        </mxCell>
        <mxCell id="qCqkurPFL0nyQApsLO0Z-132" value="" style="rounded=0;whiteSpace=wrap;html=1;fontSize=10;fillColor=none;strokeWidth=4;strokeColor=#0066CC;" vertex="1" parent="1">
          <mxGeometry x="110" y="3610" width="320" height="450" as="geometry" />
        </mxCell>
        <mxCell id="qCqkurPFL0nyQApsLO0Z-136" value="" style="html=1;shadow=0;dashed=0;align=center;verticalAlign=middle;shape=mxgraph.arrows2.jumpInArrow;dy=15;dx=38;arrowHead=55;fontSize=10;fontColor=#FFFFFF;strokeColor=#FF3333;strokeWidth=4;fillColor=none;rotation=-195;" vertex="1" parent="1">
          <mxGeometry x="437.52" y="3486.38" width="198" height="110" as="geometry" />
        </mxCell>
        <mxCell id="qCqkurPFL0nyQApsLO0Z-137" value="approve" style="rounded=1;whiteSpace=wrap;html=1;fontSize=10;strokeColor=#82b366;strokeWidth=1;fillColor=#d5e8d4;" vertex="1" parent="1">
          <mxGeometry x="550" y="3820" width="140" height="30" as="geometry" />
        </mxCell>
        <mxCell id="qCqkurPFL0nyQApsLO0Z-138" value="reject" style="rounded=1;whiteSpace=wrap;html=1;fontSize=10;strokeColor=#b85450;strokeWidth=1;fillColor=#f8cecc;" vertex="1" parent="1">
          <mxGeometry x="550" y="3880" width="140" height="30" as="geometry" />
        </mxCell>
        <mxCell id="qCqkurPFL0nyQApsLO0Z-140" value="back" style="rounded=0;whiteSpace=wrap;html=1;fontSize=10;strokeColor=#6c8ebf;strokeWidth=1;fillColor=#dae8fc;" vertex="1" parent="1">
          <mxGeometry x="110" y="3580" width="70" height="16.38" as="geometry" />
        </mxCell>
        <mxCell id="qCqkurPFL0nyQApsLO0Z-141" value="previous" style="rounded=0;whiteSpace=wrap;html=1;fontSize=10;strokeColor=#6c8ebf;strokeWidth=1;fillColor=#dae8fc;" vertex="1" parent="1">
          <mxGeometry x="515" y="3990" width="70" height="16.38" as="geometry" />
        </mxCell>
        <mxCell id="qCqkurPFL0nyQApsLO0Z-142" value="next" style="rounded=0;whiteSpace=wrap;html=1;fontSize=10;strokeColor=#6c8ebf;strokeWidth=1;fillColor=#dae8fc;" vertex="1" parent="1">
          <mxGeometry x="663" y="3990" width="70" height="16.38" as="geometry" />
        </mxCell>
        <mxCell id="qCqkurPFL0nyQApsLO0Z-143" value="" style="rounded=1;whiteSpace=wrap;html=1;" vertex="1" parent="1">
          <mxGeometry x="30" y="5140" width="200" height="360" as="geometry" />
        </mxCell>
        <mxCell id="qCqkurPFL0nyQApsLO0Z-144" value="&lt;b&gt;H&lt;/b&gt;&lt;br&gt;(admin initial letter in big font)" style="ellipse;whiteSpace=wrap;html=1;" vertex="1" parent="1">
          <mxGeometry x="85" y="5160" width="90" height="90" as="geometry" />
        </mxCell>
        <mxCell id="qCqkurPFL0nyQApsLO0Z-148" value="&lt;b&gt;admin email&lt;/b&gt;" style="text;html=1;strokeColor=none;fillColor=none;align=center;verticalAlign=middle;whiteSpace=wrap;rounded=0;" vertex="1" parent="1">
          <mxGeometry x="80" y="5250" width="100" height="30" as="geometry" />
        </mxCell>
        <mxCell id="qCqkurPFL0nyQApsLO0Z-151" value="profile" style="rounded=1;whiteSpace=wrap;html=1;fillColor=none;" vertex="1" parent="1">
          <mxGeometry x="40" y="5290" width="180" height="30" as="geometry" />
        </mxCell>
        <mxCell id="qCqkurPFL0nyQApsLO0Z-152" value="applications" style="rounded=1;whiteSpace=wrap;html=1;fillColor=none;" vertex="1" parent="1">
          <mxGeometry x="43" y="5340" width="180" height="30" as="geometry" />
        </mxCell>
        <mxCell id="qCqkurPFL0nyQApsLO0Z-153" value="statistics" style="rounded=1;whiteSpace=wrap;html=1;fillColor=none;" vertex="1" parent="1">
          <mxGeometry x="41" y="5450" width="180" height="30" as="geometry" />
        </mxCell>
        <mxCell id="qCqkurPFL0nyQApsLO0Z-154" value="" style="rounded=1;whiteSpace=wrap;html=1;fillColor=none;" vertex="1" parent="1">
          <mxGeometry x="260" y="5140" width="360" height="360" as="geometry" />
        </mxCell>
        <mxCell id="qCqkurPFL0nyQApsLO0Z-155" value="" style="rounded=1;whiteSpace=wrap;html=1;fillColor=none;" vertex="1" parent="1">
          <mxGeometry x="650" y="5140" width="170" height="360" as="geometry" />
        </mxCell>
        <mxCell id="qCqkurPFL0nyQApsLO0Z-156" value="" style="endArrow=none;html=1;rounded=0;" edge="1" parent="1" source="qCqkurPFL0nyQApsLO0Z-154">
          <mxGeometry width="50" height="50" relative="1" as="geometry">
            <mxPoint x="390" y="5190" as="sourcePoint" />
            <mxPoint x="440" y="5140" as="targetPoint" />
            <Array as="points">
              <mxPoint x="440" y="5440" />
            </Array>
          </mxGeometry>
        </mxCell>
        <mxCell id="qCqkurPFL0nyQApsLO0Z-157" value="" style="endArrow=none;html=1;rounded=0;exitX=0.004;exitY=0.551;exitDx=0;exitDy=0;exitPerimeter=0;entryX=0.998;entryY=0.546;entryDx=0;entryDy=0;entryPerimeter=0;" edge="1" parent="1" source="qCqkurPFL0nyQApsLO0Z-154" target="qCqkurPFL0nyQApsLO0Z-154">
          <mxGeometry width="50" height="50" relative="1" as="geometry">
            <mxPoint x="570" y="5340" as="sourcePoint" />
            <mxPoint x="620" y="5290" as="targetPoint" />
          </mxGeometry>
        </mxCell>
        <mxCell id="qCqkurPFL0nyQApsLO0Z-158" value="application received" style="text;html=1;strokeColor=none;fillColor=none;align=center;verticalAlign=middle;whiteSpace=wrap;rounded=0;" vertex="1" parent="1">
          <mxGeometry x="310" y="5180" width="110" height="30" as="geometry" />
        </mxCell>
        <mxCell id="qCqkurPFL0nyQApsLO0Z-159" value="&lt;font style=&quot;font-size: 20px&quot;&gt;&lt;b&gt;50&lt;/b&gt;&lt;/font&gt;" style="text;html=1;strokeColor=none;fillColor=none;align=center;verticalAlign=middle;whiteSpace=wrap;rounded=0;" vertex="1" parent="1">
          <mxGeometry x="305" y="5210" width="95" height="30" as="geometry" />
        </mxCell>
        <mxCell id="qCqkurPFL0nyQApsLO0Z-160" value="&lt;font style=&quot;font-size: 12px&quot;&gt;application rejected&lt;/font&gt;" style="text;html=1;strokeColor=none;fillColor=none;align=center;verticalAlign=middle;whiteSpace=wrap;rounded=0;fontSize=20;" vertex="1" parent="1">
          <mxGeometry x="460" y="5180" width="140" height="30" as="geometry" />
        </mxCell>
        <mxCell id="qCqkurPFL0nyQApsLO0Z-161" value="&lt;font style=&quot;font-size: 20px&quot;&gt;&lt;b&gt;12&lt;/b&gt;&lt;/font&gt;" style="text;html=1;strokeColor=none;fillColor=none;align=center;verticalAlign=middle;whiteSpace=wrap;rounded=0;fontSize=12;" vertex="1" parent="1">
          <mxGeometry x="490" y="5210" width="80" height="30" as="geometry" />
        </mxCell>
        <mxCell id="qCqkurPFL0nyQApsLO0Z-162" value="&lt;font style=&quot;font-size: 12px&quot;&gt;reviewing&lt;/font&gt;" style="text;html=1;strokeColor=none;fillColor=none;align=center;verticalAlign=middle;whiteSpace=wrap;rounded=0;fontSize=20;" vertex="1" parent="1">
          <mxGeometry x="301.5" y="5350" width="95" height="30" as="geometry" />
        </mxCell>
        <mxCell id="qCqkurPFL0nyQApsLO0Z-163" value="&lt;font style=&quot;font-size: 20px&quot;&gt;&lt;b&gt;456&lt;/b&gt;&lt;/font&gt;" style="text;html=1;strokeColor=none;fillColor=none;align=center;verticalAlign=middle;whiteSpace=wrap;rounded=0;fontSize=12;" vertex="1" parent="1">
          <mxGeometry x="310" y="5390" width="83" height="30" as="geometry" />
        </mxCell>
        <mxCell id="qCqkurPFL0nyQApsLO0Z-164" value="&lt;b&gt;&lt;font style=&quot;font-size: 14px&quot;&gt;recent activities&lt;/font&gt;&lt;/b&gt;" style="text;html=1;strokeColor=none;fillColor=none;align=center;verticalAlign=middle;whiteSpace=wrap;rounded=0;fontSize=20;" vertex="1" parent="1">
          <mxGeometry x="660" y="5180" width="150" height="30" as="geometry" />
        </mxCell>
        <mxCell id="qCqkurPFL0nyQApsLO0Z-165" value="&lt;ul&gt;&lt;li&gt;&lt;h5 class=&quot;mb-1&quot; style=&quot;box-sizing: border-box ; outline: none ; padding: 0px ; margin-top: 0px ; font-weight: 500 ; line-height: 1.5 ; font-family: &amp;#34;poppins&amp;#34; , sans-serif ; background-color: rgb(255 , 255 , 255) ; margin-bottom: 0.25rem&quot;&gt;&lt;span style=&quot;font-size: 12px&quot;&gt;user ID1245 has reported for violating the rules&lt;/span&gt;&lt;/h5&gt;&lt;/li&gt;&lt;li&gt;&lt;h5 class=&quot;mb-1&quot; style=&quot;box-sizing: border-box ; outline: none ; padding: 0px ; margin-top: 0px ; font-weight: 500 ; line-height: 1.5 ; font-family: &amp;#34;poppins&amp;#34; , sans-serif ; background-color: rgb(255 , 255 , 255) ; margin-bottom: 0.25rem&quot;&gt;&lt;span style=&quot;font-size: 12px&quot;&gt;new company application received from apple&lt;/span&gt;&lt;/h5&gt;&lt;/li&gt;&lt;/ul&gt;" style="text;strokeColor=none;fillColor=none;html=1;whiteSpace=wrap;verticalAlign=middle;overflow=hidden;fontSize=14;" vertex="1" parent="1">
          <mxGeometry x="660" y="5245" width="150" height="205" as="geometry" />
        </mxCell>
        <mxCell id="qCqkurPFL0nyQApsLO0Z-166" value="Company" style="rounded=0;whiteSpace=wrap;html=1;fontSize=13;strokeColor=#6c8ebf;strokeWidth=1;fillColor=#dae8fc;" vertex="1" parent="1">
          <mxGeometry x="60" y="5380" width="150" height="20" as="geometry" />
        </mxCell>
        <mxCell id="qCqkurPFL0nyQApsLO0Z-167" value="employee" style="rounded=0;whiteSpace=wrap;html=1;fontSize=13;strokeColor=#82b366;strokeWidth=1;fillColor=#d5e8d4;" vertex="1" parent="1">
          <mxGeometry x="60" y="5410" width="150" height="20" as="geometry" />
        </mxCell>
      </root>
    </mxGraphModel>
  </diagram>
</mxfile>
